VerticalMetricsTest.glyphspackage
{
glyphname = exclam;
layers = (
{
background = {
shapes = (
{
closed = 1;
nodes = (
(-24,0,l),
(-24,-100,l),
(1,-100,l),
(1,0,l)
);
},
{
closed = 1;
nodes = (
(-49,-100,l),
(-49,-200,l),
(-24,-200,l),
(-24,-100,l)
);
},
{
closed = 1;
nodes = (
(-24,-200,l),
(-24,-300,l),
(1,-300,l),
(1,-200,l)
);
},
{
closed = 1;
nodes = (
(-49,-300,l),
(-49,-400,l),
(-24,-400,l),
(-24,-300,l)
);
},
{
closed = 1;
nodes = (
(-49,1000,l),
(-24,1000,l),
(-24,1100,l),
(-49,1100,l)
);
},
{
closed = 1;
nodes = (
(-24,900,l),
(1,900,l),
(1,1000,l),
(-24,1000,l)
);
},
{
closed = 1;
nodes = (
(-49,800,l),
(-24,800,l),
(-24,900,l),
(-49,900,l)
);
},
{
closed = 1;
nodes = (
(-24,700,l),
(1,700,l),
(1,800,l),
(-24,800,l)
);
}
);
};
layerId = m01;
shapes = (
{
closed = 1;
nodes = (
(51,-75,l),
(51,-100,l),
(101,-100,l),
(101,-75,l)
);
},
{
closed = 1;
nodes = (
(25,-50,l),
(25,-75,l),
(51,-75,l),
(51,-50,l)
);
},
{
closed = 1;
nodes = (
(51,-25,l),
(51,-50,l),
(75,-50,l),
(75,-25,l)
);
},
{
closed = 1;
nodes = (
(26,0,l),
(26,-25,l),
(51,-25,l),
(51,0,l)
);
},
{
closed = 1;
nodes = (
(51,-175,l),
(51,-200,l),
(151,-200,l),
(151,-175,l)
);
},
{
closed = 1;
nodes = (
(25,-150,l),
(25,-175,l),
(51,-175,l),
(51,-150,l)
);
},
{
closed = 1;
nodes = (
(51,-125,l),
(51,-150,l),
(75,-150,l),
(75,-125,l)
);
},
{
closed = 1;
nodes = (
(26,-100,l),
(26,-125,l),
(51,-125,l),
(51,-100,l)
);
},
{
closed = 1;
nodes = (
(51,-275,l),
(51,-300,l),
(101,-300,l),
(101,-275,l)
);
},
{
closed = 1;
nodes = (
(25,-250,l),
(25,-275,l),
(51,-275,l),
(51,-250,l)
);
},
{
closed = 1;
nodes = (
(51,-225,l),
(51,-250,l),
(75,-250,l),
(75,-225,l)
);
},
{
closed = 1;
nodes = (
(26,-200,l),
(26,-225,l),
(51,-225,l),
(51,-200,l)
);
},
{
closed = 1;
nodes = (
(51,-375,l),
(51,-400,l),
(151,-400,l),
(151,-375,l)
);
},
{
closed = 1;
nodes = (
(25,-350,l),
(25,-375,l),
(51,-375,l),
(51,-350,l)
);
},
{
closed = 1;
nodes = (
(51,-325,l),
(51,-350,l),
(75,-350,l),
(75,-325,l)
);
},
{
closed = 1;
nodes = (
(26,-300,l),
(26,-325,l),
(51,-325,l),
(51,-300,l)
);
},
{
closed = 1;
nodes = (
(25,1000,l),
(49,1000,l),
(49,1025,l),
(25,1025,l)
);
},
{
closed = 1;
nodes = (
(49,1025,l),
(75,1025,l),
(75,1050,l),
(49,1050,l)
);
},
{
closed = 1;
nodes = (
(25,1050,l),
(49,1050,l),
(49,1075,l),
(25,1075,l)
);
},
{
closed = 1;
nodes = (
(49,1075,l),
(149,1075,l),
(149,1100,l),
(49,1100,l)
);
},
{
closed = 1;
nodes = (
(25,900,l),
(49,900,l),
(49,925,l),
(25,925,l)
);
},
{
closed = 1;
nodes = (
(49,925,l),
(75,925,l),
(75,950,l),
(49,950,l)
);
},
{
closed = 1;
nodes = (
(25,950,l),
(49,950,l),
(49,975,l),
(25,975,l)
);
},
{
closed = 1;
nodes = (
(49,975,l),
(99,975,l),
(99,1000,l),
(49,1000,l)
);
},
{
closed = 1;
nodes = (
(25,800,l),
(49,800,l),
(49,825,l),
(25,825,l)
);
},
{
closed = 1;
nodes = (
(49,825,l),
(75,825,l),
(75,850,l),
(49,850,l)
);
},
{
closed = 1;
nodes = (
(25,850,l),
(49,850,l),
(49,875,l),
(25,875,l)
);
},
{
closed = 1;
nodes = (
(49,875,l),
(149,875,l),
(149,900,l),
(49,900,l)
);
},
{
closed = 1;
nodes = (
(25,700,l),
(49,700,l),
(49,725,l),
(25,725,l)
);
},
{
closed = 1;
nodes = (
(49,725,l),
(75,725,l),
(75,750,l),
(49,750,l)
);
},
{
closed = 1;
nodes = (
(25,750,l),
(49,750,l),
(49,775,l),
(25,775,l)
);
},
{
closed = 1;
nodes = (
(49,775,l),
(99,775,l),
(99,800,l),
(49,800,l)
);
},
{
closed = 1;
nodes = (
(74,700,l),
(74,600,l),
(99,600,l),
(99,700,l)
);
},
{
closed = 1;
nodes = (
(49,600,l),
(49,500,l),
(74,500,l),
(74,600,l)
);
},
{
closed = 1;
nodes = (
(74,500,l),
(74,400,l),
(99,400,l),
(99,500,l)
);
},
{
closed = 1;
nodes = (
(49,400,l),
(49,300,l),
(74,300,l),
(74,400,l)
);
},
{
closed = 1;
nodes = (
(74,300,l),
(74,200,l),
(99,200,l),
(99,300,l)
);
},
{
closed = 1;
nodes = (
(49,200,l),
(49,100,l),
(74,100,l),
(74,200,l)
);
},
{
closed = 1;
nodes = (
(74,100,l),
(74,0,l),
(99,0,l),
(99,100,l)
);
},
{
closed = 1;
nodes = (
(25,1200,l),
(49,1200,l),
(49,1225,l),
(25,1225,l)
);
},
{
closed = 1;
nodes = (
(49,1225,l),
(75,1225,l),
(75,1250,l),
(49,1250,l)
);
},
{
closed = 1;
nodes = (
(25,1250,l),
(49,1250,l),
(49,1275,l),
(25,1275,l)
);
},
{
closed = 1;
nodes = (
(49,1275,l),
(149,1275,l),
(149,1300,l),
(49,1300,l)
);
},
{
closed = 1;
nodes = (
(25,1100,l),
(49,1100,l),
(49,1125,l),
(25,1125,l)
);
},
{
closed = 1;
nodes = (
(49,1125,l),
(75,1125,l),
(75,1150,l),
(49,1150,l)
);
},
{
closed = 1;
nodes = (
(25,1150,l),
(49,1150,l),
(49,1175,l),
(25,1175,l)
);
},
{
closed = 1;
nodes = (
(49,1175,l),
(99,1175,l),
(99,1200,l),
(49,1200,l)
);
},
{
closed = 1;
nodes = (
(51,-475,l),
(51,-500,l),
(101,-500,l),
(101,-475,l)
);
},
{
closed = 1;
nodes = (
(25,-450,l),
(25,-475,l),
(51,-475,l),
(51,-450,l)
);
},
{
closed = 1;
nodes = (
(51,-425,l),
(51,-450,l),
(75,-450,l),
(75,-425,l)
);
},
{
closed = 1;
nodes = (
(26,-400,l),
(26,-425,l),
(51,-425,l),
(51,-400,l)
);
},
{
closed = 1;
nodes = (
(51,-575,l),
(51,-600,l),
(151,-600,l),
(151,-575,l)
);
},
{
closed = 1;
nodes = (
(25,-550,l),
(25,-575,l),
(51,-575,l),
(51,-550,l)
);
},
{
closed = 1;
nodes = (
(51,-525,l),
(51,-550,l),
(75,-550,l),
(75,-525,l)
);
},
{
closed = 1;
nodes = (
(26,-500,l),
(26,-525,l),
(51,-525,l),
(51,-500,l)
);
}
);
userData = {
com.arrowtype.glyphMarkStatus = needsFixing;
com.typemytype.robofont.guideline.magnetic.0HIXpdxyWk = 10;
com.typemytype.robofont.guideline.magnetic.3Lc2waOiu3 = 10;
com.typemytype.robofont.guideline.magnetic.3dsrirYOvp = 10;
com.typemytype.robofont.guideline.magnetic.4s2XOj5axK = 10;
com.typemytype.robofont.guideline.magnetic.85yiFnkgUq = 10;
com.typemytype.robofont.guideline.magnetic.B8I2y3dbbC = 10;
com.typemytype.robofont.guideline.magnetic.G1pPRPEdq0 = 10;
com.typemytype.robofont.guideline.magnetic.MoVHlbBAQQ = 10;
com.typemytype.robofont.guideline.magnetic.PkahEy7DVO = 10;
com.typemytype.robofont.guideline.magnetic.TMEIVverWe = 10;
com.typemytype.robofont.guideline.magnetic.ZArF92iAOQ = 10;
com.typemytype.robofont.guideline.magnetic.ZnCHYXeDpG = 10;
com.typemytype.robofont.guideline.magnetic.djqDXfrITQ = 10;
com.typemytype.robofont.guideline.magnetic.eY1ExmHe0j = 10;
com.typemytype.robofont.guideline.magnetic.giKhDLJVid = 10;
com.typemytype.robofont.guideline.magnetic.gsQvqslc3Y = 10;
com.typemytype.robofont.guideline.magnetic.j6ZPWGyOMM = 10;
com.typemytype.robofont.guideline.magnetic.mc7XPIDZWF = 10;
com.typemytype.robofont.guideline.magnetic.msGkUupIdP = 10;
com.typemytype.robofont.guideline.magnetic.nS0xeD2nH3 = 10;
com.typemytype.robofont.guideline.magnetic.napQmEmOuQ = 10;
com.typemytype.robofont.guideline.magnetic.nj6FkiqCgK = 10;
com.typemytype.robofont.guideline.magnetic.oG523TMpIB = 10;
com.typemytype.robofont.guideline.magnetic.tT2NCb1SBd = 10;
com.typemytype.robofont.guideline.magnetic.ufXmhClChE = 10;
com.typemytype.robofont.guideline.magnetic.vObIPyhbkB = 10;
com.typemytype.robofont.guideline.magnetic.xzpNoqRtHG = 10;
};
width = 176;
}
);
unicode = 33;
}
{
glyphname = asterisk;
layers = (
{
background = {
guides = (
{
angle = 90;
name = "Vertical Center";
pos = (300,270);
},
{
name = "Cap Height Middle";
pos = (0,350);
},
{
name = "x-Height Middle";
pos = (0,270);
}
);
shapes = (
{
closed = 1;
nodes = (
(479,292,o),
(493,325,o),
(491,346,c),
(442,406,o),
(413,401,o),
(322,491,c),
(300,487,l),
(288,466,l),
(338,380,o),
(319,338,o),
(360,283,cs),
(382,251,o),
(419,248,o),
(454,274,cs)
);
},
{
closed = 1;
nodes = (
(267,327,o),
(253,353,o),
(310,467,c),
(300,487,l),
(277,491,l),
(211,417,o),
(164,423,o),
(124,367,cs),
(101,336,o),
(109,300,o),
(145,275,cs),
(170,256,o),
(205,253,o),
(225,262,c)
);
},
{
closed = 1;
nodes = (
(300,487,l),
(298,509,l),
(207,549,o),
(197,597,o),
(132,618,cs),
(95,630,o),
(63,611,o),
(51,569,cs),
(40,540,o),
(48,505,o),
(63,489,c),
(138,469,o),
(158,491,o),
(284,472,c)
);
},
{
closed = 1;
nodes = (
(330,435,o),
(353,458,o),
(353,487,cs),
(353,516,o),
(330,539,o),
(301,539,cs),
(272,539,o),
(249,516,o),
(249,487,cs),
(249,458,o),
(272,435,o),
(301,435,cs)
);
},
{
closed = 1;
nodes = (
(322,497,l),
(332,596,o),
(372,619,o),
(372,688,cs),
(372,726,o),
(344,750,o),
(300,750,cs),
(270,750,o),
(239,732,o),
(228,713,c),
(233,636,o),
(259,623,o),
(280,497,c),
(300,487,l)
);
},
{
closed = 1;
nodes = (
(414,490,o),
(448,459,o),
(513,481,cs),
(550,492,o),
(564,526,o),
(550,568,cs),
(541,597,o),
(514,621,o),
(493,625,c),
(421,597,o),
(417,568,o),
(303,509,c),
(300,487,l),
(316,469,l)
);
}
);
};
guides = (
{
angle = 90;
name = "Vertical Center";
pos = (300,270);
},
{
name = "Cap Height Middle";
pos = (0,350);
},
{
name = "x-Height Middle";
pos = (0,270);
}
);
layerId = m01;
shapes = (
{
closed = 1;
nodes = (
(479,292,o),
(493,325,o),
(491,346,c),
(447,400,o),
(419,402,o),
(349,466,c),
(350,468,o),
(351,471,o),
(352,475,c),
(424,483,o),
(457,462,o),
(513,481,cs),
(550,492,o),
(564,526,o),
(550,568,cs),
(541,597,o),
(514,621,o),
(493,625,c),
(429,600,o),
(419,574,o),
(335,526,c),
(333,528,o),
(329,531,o),
(327,532,c),
(342,604,o),
(372,628,o),
(372,688,cs),
(372,726,o),
(344,750,o),
(300,750,cs),
(270,750,o),
(239,732,o),
(228,713,c),
(233,643,o),
(254,627,o),
(274,531,c),
(270,529,o),
(269,528,o),
(266,525,c),
(204,561,o),
(188,600,o),
(132,618,cs),
(95,630,o),
(63,611,o),
(51,569,c),
(40,540,o),
(48,505,o),
(63,489,c),
(131,471,o),
(153,487,o),
(250,476,c),
(251,472,o),
(252,469,o),
(253,467,c),
(199,418,o),
(159,416,o),
(124,367,cs),
(101,336,o),
(109,300,o),
(145,275,cs),
(170,256,o),
(205,253,o),
(225,262,c),
(263,321,o),
(256,348,o),
(295,435,c),
(296,435,o),
(299,435,o),
(301,435,cs),
(302,435,o),
(304,435,o),
(304,435,c),
(334,369,o),
(325,330,o),
(360,283,cs),
(382,251,o),
(419,248,o),
(454,274,cs)
);
}
);
width = 600;
}
);
unicode = 42;
}
{
glyphname = comma;
kernLeft = Punct_low_left;
kernRight = Punct_low_right;
layers = (
{
background = {
shapes = (
{
closed = 1;
nodes = (
(377,-88,o),
(427,44,o),
(427,136,cs),
(427,145,o),
(425,149,o),
(417,156,c),
(391,183,o),
(355,190,o),
(312,190,cs),
(227,190,l),
(227,98,o),
(177,-33,o),
(177,-126,cs),
(177,-136,o),
(179,-139,o),
(186,-146,cs),
(212,-172,o),
(249,-180,o),
(292,-180,cs),
(377,-180,l)
);
}
);
};
layerId = m01;
shapes = (
{
closed = 1;
nodes = (
(156,-210,o),
(168,-205,o),
(179,-193,cs),
(237,-127,o),
(289,7,o),
(289,99,cs),
(289,163,o),
(254,188,o),
(195,188,cs),
(170,188,o),
(153,186,o),
(124,180,c),
(124,31,o),
(100,-80,o),
(53,-170,c),
(76,-196,o),
(103,-210,o),
(134,-210,cs)
);
}
);
userData = {
com.arrowtype.glyphMarkStatus = needsFixing;
com.typemytype.robofont.Image.Brightness = 0;
com.typemytype.robofont.Image.Contrast = 1;
com.typemytype.robofont.Image.Saturation = 1;
com.typemytype.robofont.Image.Sharpness = 0.4;
com.typemytype.robofont.guideline.magnetic.1eh51WlIRy = 10;
com.typemytype.robofont.guideline.magnetic.2QM18SQrKv = 10;
com.typemytype.robofont.guideline.magnetic.7zVAh2AnGp = 10;
com.typemytype.robofont.guideline.magnetic.93wxzZ07kZ = 10;
com.typemytype.robofont.guideline.magnetic.9Zfy8hYT0C = 10;
com.typemytype.robofont.guideline.magnetic.DC6EH0rSgg = 10;
com.typemytype.robofont.guideline.magnetic.DXa004pwmF = 10;
com.typemytype.robofont.guideline.magnetic.IwpyqaAzMn = 10;
com.typemytype.robofont.guideline.magnetic.JeCjrDg7yC = 10;
com.typemytype.robofont.guideline.magnetic.JfBdPGrVUY = 10;
com.typemytype.robofont.guideline.magnetic.KpIRpesi34 = 10;
com.typemytype.robofont.guideline.magnetic.RFk8iBmsf2 = 10;
com.typemytype.robofont.guideline.magnetic.Y9iFhAEzWd = 10;
com.typemytype.robofont.guideline.magnetic.ZO7hXKrOSP = 10;
com.typemytype.robofont.guideline.magnetic.aQrD4AHMvh = 10;
com.typemytype.robofont.guideline.magnetic.bHm3K5LJKO = 10;
com.typemytype.robofont.guideline.magnetic.cwqC1LLtAL = 10;
com.typemytype.robofont.guideline.magnetic.de8h0tWpX6 = 10;
com.typemytype.robofont.guideline.magnetic.fib7hvTO7s = 10;
com.typemytype.robofont.guideline.magnetic.i6y9RHvqJN = 10;
com.typemytype.robofont.guideline.magnetic.jaZJtDo7Z7 = 10;
com.typemytype.robofont.guideline.magnetic.jyHPdN5n0g = 10;
com.typemytype.robofont.guideline.magnetic.lAi2qqqA32 = 10;
com.typemytype.robofont.guideline.magnetic.lVMOfOvhBT = 10;
com.typemytype.robofont.guideline.magnetic.leNFGB688I = 10;
com.typemytype.robofont.guideline.magnetic.ngSNiLqtKb = 10;
com.typemytype.robofont.guideline.magnetic.oC8bWVhKq6 = 10;
com.typemytype.robofont.guideline.magnetic.oxdDipMbAw = 10;
com.typemytype.robofont.guideline.magnetic.pGCPyD7vdv = 10;
com.typemytype.robofont.guideline.magnetic.qXeWGFHPgj = 10;
com.typemytype.robofont.guideline.magnetic.y3Acqq1lig = 10;
com.typemytype.robofont.guideline.magnetic.ybLfK6ZThu = 10;
com.typemytype.robofont.guideline.magnetic.zMIina8zkg = 10;
};
width = 350;
}
);
unicode = 44;
}
{
glyphname = hyphen;
kernLeft = Punct_mid_left;
kernRight = Punct_mid_right;
layers = (
{
layerId = m01;
shapes = (
{
closed = 1;
nodes = (
(52,368,o),
(52,362,o),
(52,355,cs),
(52,240,o),
(65,224,o),
(159,224,cs),
(391,224,l),
(395,245,o),
(398,268,o),
(398,287,cs),
(398,355,o),
(382,374,o),
(325,374,cs),
(52,374,l)
);
}
);
userData = {
com.arrowtype.glyphMarkStatus = fromComponents;
};
width = 450;
}
);
unicode = 45;
}
{
glyphname = period;
kernLeft = Punct_low_left;
kernRight = Punct_low_right;
layers = (
{
layerId = m01;
shapes = (
{
closed = 1;
nodes = (
(264,111,ls),
(264,187,o),
(229,206,o),
(173,206,cs),
(139,206,o),
(111,199,o),
(86,188,c),
(86,93,ls),
(86,4,o),
(125,-11,o),
(196,-11,cs),
(222,-11,o),
(242,-8,o),
(264,0,c)
);
}
);
userData = {
com.arrowtype.glyphMarkStatus = needsFixing;
};
width = 350;
},
{
associatedMasterId = m01;
layerId = "EF2C2F1D-0189-49A2-A18D-7439959F1FBE";
name = proportional;
shapes = (
{
closed = 1;
nodes = (
(254,134,ls),
(254,196.71,o),
(185,206,o),
(124,206,cs),
(101,206,o),
(71,204,o),
(46,200,c),
(46,61,ls),
(46,-1.71,o),
(115,-11,o),
(176,-11,cs),
(199,-11,o),
(229,-9,o),
(254,-5,c)
);
},
{
closed = 1;
nodes = (
(254,134,ls),
(254,196.71,o),
(185,206,o),
(124,206,cs),
(101,206,o),
(71,204,o),
(46,200,c),
(46,61,ls),
(46,-1.71,o),
(115,-11,o),
(176,-11,cs),
(199,-11,o),
(229,-9,o),
(254,-5,c)
);
},
{
closed = 1;
nodes = (
(254,134,ls),
(254,196.71,o),
(185,206,o),
(124,206,cs),
(101,206,o),
(71,204,o),
(46,200,c),
(46,61,ls),
(46,-1.71,o),
(115,-11,o),
(176,-11,cs),
(199,-11,o),
(229,-9,o),
(254,-5,c)
);
}
);
width = 300;
}
);
unicode = 46;
}
{
glyphname = zero;
layers = (
{
layerId = m01;
shapes = (
{
closed = 1;
nodes = (
(153,720,o),
(50,571,o),
(50,350,cs),
(50,310,ls),
(50,106,o),
(158,-20,o),
(300,-20,cs),
(448,-20,o),
(550,109,o),
(550,300,cs),
(550,340,ls),
(550,574,o),
(444,720,o),
(302,720,cs)
);
},
{
closed = 1;
nodes = (
(336,571,o),
(347,571,o),
(355,570,c),
(385,530,o),
(400,467,o),
(400,375,cs),
(400,330,ls),
(400,216,o),
(358,129,o),
(276,129,cs),
(259,129,o),
(245,129,o),
(235,131,c),
(211,163,o),
(200,210,o),
(200,275,cs),
(200,320,ls),
(200,463,o),
(242,571,o),
(324,571,cs)
);
},
{
closed = 1;
nodes = (
(354,438,o),
(306,397,o),
(268,366,cs),
(233,338,o),
(209,312,o),
(193,270,c),
(235,298,l),
(159,298,l),
(159,199,l),
(239,240,o),
(300,277,o),
(339,309,cs),
(370,335,o),
(392,362,o),
(401,415,c),
(364,385,l),
(433,385,l),
(433,520,l)
);
}
);
userData = {
com.arrowtype.glyphMarkStatus = fromComponents;
};
width = 600;
},
{
associatedMasterId = m01;
layerId = "1562E419-5772-4635-B7CE-FF01138839CB";
name = 45degrees;
shapes = (
{
closed = 1;
nodes = (
(148,720,o),
(50,571,o),
(50,350,cs),
(50,310,ls),
(50,106,o),
(162,-20,o),
(285,-20,cs),
(310,-20,ls),
(349,-20,o),
(375,18,o),
(375,74,c),
(256,74,o),
(200,131,o),
(200,275,cs),
(200,320,ls),
(200,463,o),
(242,571,o),
(324,571,cs),
(378,571,o),
(390,567,o),
(417,552,c),
(432,567,o),
(434,572,o),
(434,600,cs),
(434,665,o),
(354,720,o),
(290,720,cs)
);
},
{
closed = 1;
nodes = (
(452,-20,o),
(550,109,o),
(550,300,cs),
(550,340,ls),
(550,575,o),
(438,720,o),
(315,720,cs),
(290,720,ls),
(251,720,o),
(225,682,o),
(225,626,c),
(344,626,o),
(400,555,o),
(400,375,cs),
(400,330,ls),
(400,216,o),
(358,129,o),
(276,129,cs),
(222,129,o),
(210,133,o),
(183,148,c),
(168,133,o),
(166,128,o),
(166,100,cs),
(166,35,o),
(245,-20,o),
(310,-20,cs)
);
},
{
closed = 1;
nodes = (
(268,255,o),
(349,304,o),
(432,392,cs),
(459,421,o),
(472,472,o),
(433,520,c),
(330,412,o),
(245,341,o),
(138,276,cs),
(113,261,o),
(135,231,o),
(159,199,c)
);
}
);
width = 600;
},
{
associatedMasterId = m01;
layerId = "322F69BE-0507-4A52-9E89-22C293F47573";
name = "old-sans";
shapes = (
{
closed = 1;
nodes = (
(154.125,720,o),
(50,571,o),
(50,350,cs),
(50,310,ls),
(50,106,o),
(155.538,-20,o),
(295,-20,cs),
(343,-20,o),
(375,18,o),
(375,74,c),
(256,74,o),
(200,131,o),
(200,275,cs),
(200,320,ls),
(200,463,o),
(242,571,o),
(324,571,cs),
(378,571,o),
(390,567,o),
(417,552,c),
(463.971,598.971,o),
(386.134,720,o),
(305,720,cs)
);
},
{
closed = 1;
nodes = (
(445.875,-20,o),
(550,109,o),
(550,300,cs),
(550,340,ls),
(550,575,o),
(454,720,o),
(305,720,cs),
(257,720,o),
(225,682,o),
(225,626,c),
(344,626,o),
(400,555,o),
(400,375,cs),
(400,330,ls),
(400,216,o),
(358,129,o),
(276,129,cs),
(222,129,o),
(210,133,o),
(183,148,c),
(136.029,101.029,o),
(212.984,-20,o),
(295,-20,cs)
);
}
);
width = 500;
}
);
unicode = 48;
}
{
glyphname = one;
layers = (
{
layerId = m01;
shapes = (
{
closed = 1;
nodes = (
(231,685,o),
(202,646,o),
(177,620,cs),
(149,592,o),
(117,568,o),
(75,546,c),
(75,521,ls),
(75,440,o),
(99,407,o),
(131,407,cs),
(162,407,o),
(190,422,o),
(212,449,cs),
(234,476,o),
(250,506,o),
(266,554,c),
(226,521,l),
(288,521,l),
(260,555,l),
(260,437,o),
(260,345,o),
(260,252,cs),
(260,207,o),
(274,171,o),
(298,156,c),
(298,122,l),
(410,122,l),
(410,318,o),
(410,469,o),
(410,658,cs),
(410,699,o),
(378,710,o),
(312,710,cs),
(285,710,o),
(256,705,o),
(240,700,c)
);
},
{
closed = 1;
nodes = (
(80,138,o),
(80,127,o),
(80,110,cs),
(80,72,o),
(88,38,o),
(106,20,cs),
(121,5,o),
(141,0,o),
(187,0,cs),
(283,0,o),
(544,0,o),
(556,0,c),
(560,12,o),
(562,27,o),
(562,43,cs),
(562,106,o),
(507,150,o),
(385,150,cs),
(283,150,o),
(92,150,o),
(80,150,c)
);
}
);
userData = {
com.arrowtype.glyphMarkStatus = fromComponents;
};
width = 600;
}
);
unicode = 49;
}
{
glyphname = two;
layers = (
{
layerId = m01;
shapes = (
{
closed = 1;
nodes = (
(221,720,o),
(158,693,o),
(119,654,cs),
(87,622,o),
(71,583,o),
(71,535,cs),
(71,480,o),
(110,443,o),
(197,443,c),
(203,443,l),
(191,521,o),
(223,570,o),
(307,570,cs),
(332,570,o),
(355,566,o),
(375,559,c),
(380,550,o),
(384,532,o),
(384,513,cs),
(384,508,ls),
(384,443,o),
(367,406,o),
(269,352,cs),
(97,258,o),
(50,192,o),
(50,121,cs),
(50,116,ls),
(50,69,o),
(88,0,o),
(122,0,cs),
(156,0,o),
(526,0,o),
(545,0,c),
(549,19,o),
(552,42,o),
(552,63,cs),
(552,129,o),
(535,150,o),
(479,150,cs),
(357,150,ls),
(253,150,o),
(187,139,o),
(141,107,c),
(199,117,l),
(165,144,l),
(165,99,l),
(181,155,o),
(200,176,o),
(335,242,cs),
(488,318,o),
(535,390,o),
(535,503,cs),
(535,508,ls),
(535,643,o),
(444,720,o),
(302,720,cs)
);
}
);
userData = {
com.arrowtype.glyphMarkStatus = fromComponents;
};
width = 600;
}
);
unicode = 50;
}
{
glyphname = three;
layers = (
{
layerId = m01;
shapes = (
{
closed = 1;
nodes = (
(214,720,o),
(138,695,o),
(107,664,cs),
(81,638,o),
(72,612,o),
(72,554,cs),
(72,527,o),
(74,509,o),
(80,488,c),
(86,488,l),
(145,547,o),
(197,570,o),
(279,570,cs),
(332,570,o),
(374,557,o),
(404,536,c),
(404,530,l),
(380,441,o),
(295,404,o),
(172,404,c),
(168,386,o),
(167,376,o),
(167,351,cs),
(167,295,o),
(180,274,o),
(216,271,cs),
(314,263,o),
(401,227,o),
(417,168,c),
(417,164,l),
(389,142,o),
(343,130,o),
(279,130,cs),
(189,130,o),
(128,150,o),
(66,212,c),
(60,212,l),
(54,191,o),
(52,173,o),
(52,146,cs),
(52,88,o),
(61,62,o),
(87,36,cs),
(119,4,o),
(205,-20,o),
(300,-20,cs),
(456,-20,o),
(550,60,o),
(550,159,cs),
(550,174,ls),
(550,264,o),
(475,322,o),
(320,350,c),
(353,313,l),
(353,375,l),
(321,342,l),
(474,371,o),
(537,459,o),
(539,516,cs),
(540,541,ls),
(544,640,o),
(450,720,o),
(300,720,cs)
);
}
);
userData = {
com.arrowtype.glyphMarkStatus = fromComponents;
};
width = 600;
}
);
unicode = 51;
}
{
glyphname = four;
layers = (
{
layerId = m01;
shapes = (
{
closed = 1;
nodes = (
(353,710,o),
(323,697,o),
(272,646,cs),
(156,530,o),
(40,366,o),
(40,280,cs),
(40,265,ls),
(40,191,o),
(67,150,o),
(117,150,cs),
(565,150,l),
(569,165,o),
(571,183,o),
(571,203,cs),
(571,259,o),
(558,300,o),
(513,300,cs),
(330,300,ls),
(252,300,o),
(205,293,o),
(158,261,c),
(177,250,l),
(177,314,l),
(162,253,l),
(261,429,o),
(406,579,o),
(550,661,c),
(550,667,l),
(526,693,o),
(473,710,o),
(400,710,cs)
);
},
{
closed = 1;
nodes = (
(370,360,o),
(340,262,o),
(340,200,cs),
(340,155,o),
(340,109,o),
(340,64,cs),
(340,26,o),
(368,-8,o),
(459,-8,cs),
(478,-8,o),
(496,-5,o),
(510,0,c),
(502,28,o),
(500,59,o),
(500,94,cs),
(500,355,ls),
(500,394,o),
(461,420,o),
(406,420,cs),
(404,420,o),
(402,420,o),
(400,420,c)
);
}
);
userData = {
com.arrowtype.glyphMarkStatus = fromComponents;
};
width = 600;
}
);
unicode = 52;
}
{
glyphname = five;
layers = (
{
background = {
shapes = (
{
closed = 1;
nodes = (
(456,-20,o),
(550,60,o),
(550,159,cs),
(550,174,ls),
(550,203,o),
(496,277,o),
(458,279,c),
(460,270,o),
(461,261,o),
(461,250,cs),
(461,182,o),
(391,130,o),
(279,130,cs),
(189,130,o),
(122,156,o),
(54,218,c),
(50,218,l),
(50,206,o),
(50,185,o),
(50,162,cs),
(50,99,o),
(66,57,o),
(87,36,cs),
(119,4,o),
(205,-20,o),
(300,-20,cs)
);
},
{
closed = 1;
nodes = (
(385,300,o),
(461,241,o),
(461,106,cs),
(461,96,l),
(501,96,o),
(550,137,o),
(550,174,cs),
(550,313,o),
(459,430,o),
(181,430,c),
(181,346,o),
(191,300,o),
(227,300,cs)
);
},
{
closed = 1;
nodes = (
(150,627,o),
(162,584,o),
(188,558,cs),
(194,552,o),
(197,550,o),
(205,550,cs),
(253,550,o),
(202,550,o),
(250,550,cs),
(350,550,o),
(430,550,o),
(530,550,c),
(530,575,ls),
(530,623,o),
(518,666,o),
(492,692,cs),
(486,698,o),
(483,700,o),
(475,700,cs),
(330,700,o),
(301,700,o),
(150,700,c),
(150,675,ls)
);
},
{
closed = 1;
nodes = (
(277,655,ls),
(281,685,o),
(234,700,o),
(165,700,cs),
(140,700,l),
(92,365,ls),
(88,337,o),
(119,300,o),
(215,300,cs),
(227,300,l)
);
}
);
};
layerId = m01;
shapes = (
{
closed = 1;
nodes = (
(88,687,o),
(85,664,o),
(85,638,cs),
(85,563,o),
(105,550,o),
(162,550,cs),
(219,550,o),
(511,550,o),
(525,550,c),
(528,564,o),
(532,593,o),
(532,613,cs),
(532,668,o),
(507,700,o),
(439,700,cs),
(371,700,o),
(105,700,o),
(92,700,c)
);
},
{
closed = 1;
nodes = (
(134,562,o),
(122,523,o),
(90,320,cs),
(86,295,o),
(106,280,o),
(170,280,cs),
(232,280,ls),
(255,280,o),
(270,280,o),
(296,280,cs),
(371,280,o),
(418,258,o),
(441,218,c),
(441,213,l),
(441,165,o),
(383,130,o),
(279,130,cs),
(190,130,o),
(124,152,o),
(61,194,c),
(55,194,l),
(52,183,o),
(50,164,o),
(50,142,cs),
(50,99,o),
(61,62,o),
(87,36,cs),
(119,4,o),
(188,-20,o),
(300,-20,cs),
(470,-20,o),
(550,68,o),
(550,186,cs),
(550,201,ls),
(550,321,o),
(467,394,o),
(355,394,cs),
(303,394,o),
(266,385,o),
(218,358,c),
(279,373,l),
(212,373,l),
(238,349,l),
(244,389,o),
(249,429,o),
(256,469,cs),
(261,499,o),
(258,522,o),
(241,545,c),
(249,603,l),
(153,603,l)
);
}
);
userData = {
com.arrowtype.glyphMarkStatus = fromComponents;
com.typemytype.robofont.Image.Brightness = 0;
com.typemytype.robofont.Image.Contrast = 1;
com.typemytype.robofont.Image.Saturation = 1;
com.typemytype.robofont.Image.Sharpness = 0.4;
com.typemytype.robofont.guideline.magnetic.0X35vzMmaL = 10;
com.typemytype.robofont.guideline.magnetic.0x5DXqvXQB = 10;
com.typemytype.robofont.guideline.magnetic.2JTczRQKNn = 10;
com.typemytype.robofont.guideline.magnetic.2jF5FUS3Pe = 10;
com.typemytype.robofont.guideline.magnetic.8GsSrhZAYG = 10;
com.typemytype.robofont.guideline.magnetic.C42FnPm3dU = 10;
com.typemytype.robofont.guideline.magnetic.CXaobe8NTi = 10;
com.typemytype.robofont.guideline.magnetic.CYmSjbShef = 10;
com.typemytype.robofont.guideline.magnetic.E7Gh3YrwXb = 10;
com.typemytype.robofont.guideline.magnetic.HXKifW8fiv = 10;
com.typemytype.robofont.guideline.magnetic.J4P7EQGF51 = 10;
com.typemytype.robofont.guideline.magnetic.J7DAUzDQFn = 10;
com.typemytype.robofont.guideline.magnetic.LXBuq9gxf6 = 10;
com.typemytype.robofont.guideline.magnetic.M5yz9oEJHR = 10;
com.typemytype.robofont.guideline.magnetic.QdCsmQSwcm = 10;
com.typemytype.robofont.guideline.magnetic.RuXdljHnG6 = 10;
com.typemytype.robofont.guideline.magnetic.RyWZkWOoQR = 10;
com.typemytype.robofont.guideline.magnetic.S7dPMdK8r6 = 10;
com.typemytype.robofont.guideline.magnetic.UJ6qSBxy2y = 10;
com.typemytype.robofont.guideline.magnetic.Y2ux71oi3s = 10;
com.typemytype.robofont.guideline.magnetic.Y4YAnw5Iev = 10;
com.typemytype.robofont.guideline.magnetic.cs8cdRo98q = 10;
com.typemytype.robofont.guideline.magnetic.eujHwfQfhM = 10;
com.typemytype.robofont.guideline.magnetic.g6XH20SAtK = 10;
com.typemytype.robofont.guideline.magnetic.hAMFWzmUGH = 10;
com.typemytype.robofont.guideline.magnetic.iyzyCXxE8V = 10;
com.typemytype.robofont.guideline.magnetic.m5B9KnOhXj = 10;
com.typemytype.robofont.guideline.magnetic.qfcHMk9QZj = 10;
com.typemytype.robofont.guideline.magnetic.wZZDSMCBQX = 10;
com.typemytype.robofont.guideline.magnetic.xLyJ2kk3nX = 10;
com.typemytype.robofont.guideline.magnetic.z2Uw7KCjw1 = 10;
com.typemytype.robofont.guideline.magnetic.zLToriOkju = 10;
com.typemytype.robofont.guideline.magnetic.zXlhXa0bzU = 10;
};
width = 600;
}
);
unicode = 53;
}
{
glyphname = six;
layers = (
{
layerId = m01;
shapes = (
{
closed = 1;
nodes = (
(199,720,o),
(50,611,o),
(50,304,cs),
(50,297,ls),
(50,85,o),
(160,-20,o),
(310,-20,cs),
(452,-20,o),
(550,69,o),
(550,200,cs),
(550,214,ls),
(550,323,o),
(457,404,o),
(362,404,cs),
(284,404,o),
(227,376,o),
(195,309,c),
(242,336,l),
(160,336,l),
(160,245,l),
(216,267,o),
(271,280,o),
(320,280,cs),
(350,280,o),
(379,274,o),
(396,269,c),
(399,254,o),
(400,244,o),
(400,228,cs),
(400,221,ls),
(400,171,o),
(365,130,o),
(296,130,cs),
(272,130,o),
(247,133,o),
(227,138,c),
(218,155,o),
(204,210,o),
(204,289,cs),
(204,296,ls),
(204,439,o),
(232,522,o),
(253,546,c),
(282,560,o),
(326,570,o),
(366,570,cs),
(423,570,o),
(459,560,o),
(509,536,c),
(515,536,l),
(518,551,o),
(520,567,o),
(520,590,cs),
(520,648,o),
(502,673,o),
(488,687,cs),
(474,701,o),
(443,720,o),
(356,720,cs)
);
}
);
userData = {
com.arrowtype.glyphMarkStatus = fromComponents;
};
width = 600;
}
);
unicode = 54;
}
{
glyphname = seven;
layers = (
{
layerId = m01;
shapes = (
{
closed = 1;
nodes = (
(73,675,o),
(60,567,o),
(60,506,cs),
(60,452,o),
(94,444,o),
(150,444,cs),
(173,444,o),
(193,446,o),
(208,450,c),
(208,470,o),
(226,650,o),
(226,666,cs),
(226,700,o),
(150,720,o),
(88,720,c)
);
},
{
closed = 1;
nodes = (
(362,100,o),
(376,183,o),
(435,299,cs),
(516,458,o),
(550,529,o),
(550,575,cs),
(550,584,ls),
(550,655,o),
(529,700,o),
(473,700,cs),
(100,700,l),
(100,670,o),
(123,558,o),
(161,558,cs),
(226,558,ls),
(328,558,o),
(391,567,o),
(433,591,c),
(405,599,l),
(405,552,l),
(417,616,l),
(405,565,o),
(386,506,o),
(330,417,cs),
(250,291,o),
(200,182,o),
(200,75,cs),
(200,18,o),
(241,-10,o),
(305,-10,cs),
(330,-10,o),
(350,-6,o),
(362,0,c)
);
}
);
userData = {
com.arrowtype.glyphMarkStatus = fromComponents;
};
width = 600;
}
);
unicode = 55;
}
{
glyphname = eight;
layers = (
{
layerId = m01;
shapes = (
{
closed = 1;
nodes = (
(157,720,o),
(65,619,o),
(65,515,cs),
(65,512,ls),
(65,443,o),
(100,353,o),
(252,297,cs),
(344,263,ls),
(407,240,o),
(420,205,o),
(420,162,c),
(420,155,l),
(392.602,132.676,o),
(344.195,120,o),
(294,120,cs),
(212,120,o),
(184,142,o),
(184,179,cs),
(184,187,ls),
(184,223,o),
(215,271,o),
(321,301,c),
(199,340,l),
(199,283,l),
(229,316,l),
(100,314,o),
(50,239,o),
(50,169,cs),
(50,162,ls),
(50,55,o),
(144,-20,o),
(290,-20,cs),
(452,-20,o),
(550,63,o),
(550,168,cs),
(550,174,ls),
(550,213,o),
(529,306,o),
(394,354,cs),
(299,388,ls),
(226.926,413.795,o),
(200,445,o),
(200,491,cs),
(200,499,ls),
(200,550,o),
(251,580,o),
(307,580,cs),
(345,580,o),
(377,572,o),
(391,565,c),
(396,553,o),
(400,535,o),
(400,515,cs),
(400,511,ls),
(400,454,o),
(366,410,o),
(270,360,c),
(397,316,l),
(397,389,l),
(367,355,l),
(479,364,o),
(539,429,o),
(539,511,cs),
(539,516,ls),
(539,639,o),
(427,720,o),
(305,720,cs)
);
}
);
userData = {
com.arrowtype.glyphMarkStatus = fromComponents;
};
width = 600;
}
);
unicode = 56;
}
{
glyphname = nine;
layers = (
{
layerId = m01;
shapes = (
{
closed = 1;
nodes = (
(148,720,o),
(50,615,o),
(50,460,cs),
(50,456,ls),
(50,323,o),
(135,265,o),
(233,265,cs),
(304,265,o),
(373,294,o),
(402,367,c),
(358,340,l),
(440,340,l),
(440,434,l),
(384,412,o),
(329,399,o),
(280,399,cs),
(255,399,o),
(229,404,o),
(210,411,c),
(202,425,o),
(200,441,o),
(200,469,cs),
(200,475,ls),
(200,531,o),
(230,579,o),
(304,579,cs),
(328,579,o),
(351,576,o),
(373,571,c),
(385,548,o),
(396,491,o),
(396,411,cs),
(396,404,ls),
(396,285,o),
(381,206,o),
(352,149,c),
(318,136,o),
(282,130,o),
(239,130,cs),
(184,130,o),
(141,140,o),
(91,164,c),
(85,164,l),
(82,149,o),
(80,133,o),
(80,110,cs),
(80,52,o),
(98,27,o),
(112,13,cs),
(126,-1,o),
(159,-20,o),
(244,-20,cs),
(408,-20,o),
(550,49,o),
(550,380,cs),
(550,387,ls),
(550,623,o),
(440,720,o),
(290,720,cs)
);
}
);
userData = {
com.arrowtype.glyphMarkStatus = fromComponents;
};
width = 600;
}
);
unicode = 57;
}
{
glyphname = colon;
layers = (
{
layerId = m01;
shapes = (
{
closed = 1;
nodes = (
(264,457,ls),
(264,533,o),
(229,552,o),
(173,552,cs),
(139,552,o),
(111,545,o),
(86,534,c),
(86,439,ls),
(86,350,o),
(125,335,o),
(196,335,cs),
(222,335,o),
(242,338,o),
(264,346,c)
);
},
{
closed = 1;
nodes = (
(264,111,ls),
(264,187,o),
(229,206,o),
(173,206,cs),
(139,206,o),
(111,199,o),
(86,188,c),
(86,93,ls),
(86,4,o),
(125,-11,o),
(196,-11,cs),
(222,-11,o),
(242,-8,o),
(264,0,c)
);
}
);
userData = {
com.arrowtype.glyphMarkStatus = needsFixing;
com.typemytype.robofont.Image.Brightness = 0;
com.typemytype.robofont.Image.Contrast = 1;
com.typemytype.robofont.Image.Saturation = 1;
com.typemytype.robofont.Image.Sharpness = 0.4;
};
width = 350;
}
);
unicode = 58;
}
{
glyphname = semicolon;
layers = (
{
layerId = m01;
shapes = (
{
closed = 1;
nodes = (
(263,455,ls),
(263,531,o),
(228,550,o),
(172,550,cs),
(138,550,o),
(110,543,o),
(85,532,c),
(85,437,ls),
(85,348,o),
(124,333,o),
(195,333,cs),
(221,333,o),
(241,336,o),
(263,344,c)
);
},
{
closed = 1;
nodes = (
(137,-210,o),
(149,-205,o),
(160,-193,cs),
(218,-127,o),
(270,7,o),
(270,99,cs),
(270,163,o),
(235,188,o),
(176,188,cs),
(151,188,o),
(134,186,o),
(105,180,c),
(105,31,o),
(81,-80,o),
(34,-170,c),
(57,-196,o),
(84,-210,o),
(115,-210,cs)
);
}
);
userData = {
com.arrowtype.glyphMarkStatus = needsFixing;
com.typemytype.robofont.Image.Brightness = 0;
com.typemytype.robofont.Image.Contrast = 1;
com.typemytype.robofont.Image.Saturation = 1;
com.typemytype.robofont.Image.Sharpness = 0.4;
com.typemytype.robofont.guideline.magnetic.26xVOeGbZO = 10;
com.typemytype.robofont.guideline.magnetic.2wClt6qHhg = 10;
com.typemytype.robofont.guideline.magnetic.3aHjUvw70r = 10;
com.typemytype.robofont.guideline.magnetic.4xtOc19CaY = 10;
com.typemytype.robofont.guideline.magnetic.6Xec6MHcg0 = 10;
com.typemytype.robofont.guideline.magnetic.8sGcNwyQgM = 10;
com.typemytype.robofont.guideline.magnetic.8vV6H1xW3C = 10;
com.typemytype.robofont.guideline.magnetic.96KeWwcwC8 = 10;
com.typemytype.robofont.guideline.magnetic.AaDB0cqjo1 = 10;
com.typemytype.robofont.guideline.magnetic.CesnVmpODm = 10;
com.typemytype.robofont.guideline.magnetic.D5ZdmseCp9 = 10;
com.typemytype.robofont.guideline.magnetic.Dncsik4fy6 = 10;
com.typemytype.robofont.guideline.magnetic.Hqvn8SCUXH = 10;
com.typemytype.robofont.guideline.magnetic.Jh82Dl0JnP = 10;
com.typemytype.robofont.guideline.magnetic.MAUZatjaGJ = 10;
com.typemytype.robofont.guideline.magnetic.OjZrXS0XVY = 10;
com.typemytype.robofont.guideline.magnetic.QHUDiF1OCa = 10;
com.typemytype.robofont.guideline.magnetic.R274FGQ1aH = 10;
com.typemytype.robofont.guideline.magnetic.SIVcErgiOl = 10;
com.typemytype.robofont.guideline.magnetic.VIb8L462Za = 10;
com.typemytype.robofont.guideline.magnetic.ahC8YN2qpA = 10;
com.typemytype.robofont.guideline.magnetic.b1sCINXlIf = 10;
com.typemytype.robofont.guideline.magnetic.c5rNCNrvkR = 10;
com.typemytype.robofont.guideline.magnetic.cZWGp7UaLw = 10;
com.typemytype.robofont.guideline.magnetic.cvsET7eRh1 = 10;
com.typemytype.robofont.guideline.magnetic.eZOiSAIBYN = 10;
com.typemytype.robofont.guideline.magnetic.fa2fQwcXEz = 10;
com.typemytype.robofont.guideline.magnetic.fp1U1MqZmX = 10;
com.typemytype.robofont.guideline.magnetic.hWAtct23Up = 10;
com.typemytype.robofont.guideline.magnetic.nrLHVuKTQR = 10;
com.typemytype.robofont.guideline.magnetic.nxzabrdkqW = 10;
com.typemytype.robofont.guideline.magnetic.pPGFaYgzAJ = 10;
com.typemytype.robofont.guideline.magnetic.xRDXJ0UxSP = 10;
};
width = 350;
}
);
unicode = 59;
}
{
glyphname = A;
kernLeft = A_left;
kernRight = A_right;
layers = (
{
anchors = (
{
name = bottom;
pos = (287,-1);
},
{
name = hook;
pos = (335,770);
},
{
name = ogonek;
pos = (585,0);
},
{
name = ring;
pos = (335,711);
},
{
name = top;
pos = (335,712);
}
);
background = {
shapes = (
{
closed = 1;
nodes = (
(232,400,o),
(250,504,o),
(339,594,cs),
(369,624,o),
(348,710,o),
(269,710,cs),
(239,710,l),
(126,615,o),
(52,338,o),
(52,57,cs),
(52,8,o),
(101,-10,o),
(175,-10,cs),
(193,-10,o),
(201,-9,o),
(212,-7,c)
);
},
{
closed = 1;
nodes = (
(540,247,o),
(516,435,o),
(462,563,cs),
(441,612,o),
(415,652,o),
(384,683,cs),
(370,697,o),
(324,710,o),
(269,710,cs),
(238,710,o),
(200,650,o),
(200,611,c),
(211,611,o),
(219,611,o),
(228,611,cs),
(255,611,o),
(265,607,o),
(274,595,cs),
(348,504,o),
(366,412,o),
(384,58,cs),
(385,40,o),
(387,32,o),
(397,22,cs),
(418,1,o),
(464,-10,o),
(508,-10,cs),
(526,-10,o),
(538,-9,o),
(550,-6,c)
);
},
{
closed = 1;
nodes = (
(25,265,ls),
(25,221,o),
(32,180,o),
(54,158,cs),
(60,152,o),
(63,150,o),
(71,150,cs),
(425,150,l),
(425,240,o),
(375,290,o),
(270,290,cs),
(25,290,l)
);
}
);
};
layerId = m01;
shapes = (
{
closed = 1;
nodes = (
(25,265,l),
(25,190,o),
(34,150,o),
(85,150,c),
(451,150,l),
(451,214,l),
(451,276,l),
(416,261,l),
(391,281,o),
(357,290,o),
(314,290,cs),
(25,290,l)
);
},
{
closed = 1;
nodes = (
(228,279,o),
(261,395,o),
(345,581,c),
(302,551,l),
(368,551,l),
(327,581,l),
(386,431,o),
(427,314,o),
(444,58,cs),
(447,14,o),
(478,-10,o),
(544,-10,cs),
(568,-10,o),
(591,-7,o),
(610,0,c),
(608,51,o),
(606,100,o),
(601,148,cs),
(584,301,o),
(551,452,o),
(507,558,cs),
(458,675,o),
(413,710,o),
(325,710,c),
(296,710,o),
(275,708,o),
(257,703,c),
(135,554,o),
(62,315,o),
(62,57,cs),
(62,8,o),
(99,-10,o),
(155,-10,cs),
(177,-10,o),
(203,-6,o),
(227,0,c)
);
}
);
userData = {
com.arrowtype.glyphMarkStatus = check;
com.typemytype.robofont.Image.Brightness = 0;
com.typemytype.robofont.Image.Contrast = 1;
com.typemytype.robofont.Image.Saturation = 1;
com.typemytype.robofont.Image.Sharpness = 0.4;
com.typemytype.robofont.guideline.magnetic.0WYQqscbLy = 10;
com.typemytype.robofont.guideline.magnetic.1YzU7pDaDJ = 10;
com.typemytype.robofont.guideline.magnetic.331c8oaXJM = 10;
com.typemytype.robofont.guideline.magnetic.4qjfiFLhc4 = 0;
com.typemytype.robofont.guideline.magnetic.5KqxVwSRVJ = 0;
com.typemytype.robofont.guideline.magnetic.5hbNim8zl2 = 0;
com.typemytype.robofont.guideline.magnetic.80PotdkpGR = 0;
com.typemytype.robofont.guideline.magnetic.8UfPMgeSS8 = 10;
com.typemytype.robofont.guideline.magnetic.9FpF2EX3vg = 0;
com.typemytype.robofont.guideline.magnetic.9ZVplP4i5Q = 10;
com.typemytype.robofont.guideline.magnetic.9hZHHLXOdE = 10;
com.typemytype.robofont.guideline.magnetic.AcR8TrNMUr = 10;
com.typemytype.robofont.guideline.magnetic.AqLJBfWn2C = 0;
com.typemytype.robofont.guideline.magnetic.C8QJaNPZ9W = 0;
com.typemytype.robofont.guideline.magnetic.E6pHuUBmqJ = 0;
com.typemytype.robofont.guideline.magnetic.EcwHBZYKFy = 10;
com.typemytype.robofont.guideline.magnetic.G9rWzJYR22 = 10;
com.typemytype.robofont.guideline.magnetic.IQeoAp0TYz = 10;
com.typemytype.robofont.guideline.magnetic.JmRj2oxa4U = 0;
com.typemytype.robofont.guideline.magnetic.KAOzU8WQEz = 0;
com.typemytype.robofont.guideline.magnetic.KM3BJj1ZZd = 10;
com.typemytype.robofont.guideline.magnetic.KpP76WdKZc = 0;
com.typemytype.robofont.guideline.magnetic.Mmu9ksYewR = 10;
com.typemytype.robofont.guideline.magnetic.MtCIWCwgmF = 0;
com.typemytype.robofont.guideline.magnetic.O7Unhk8V2p = 0;
com.typemytype.robofont.guideline.magnetic.PnuTpKzGj9 = 10;
com.typemytype.robofont.guideline.magnetic.Q8NTVUkVVy = 0;
com.typemytype.robofont.guideline.magnetic.R3hl00RiC3 = 0;
com.typemytype.robofont.guideline.magnetic.SkF1Vvz48S = 10;
com.typemytype.robofont.guideline.magnetic.TcLwhmr2Rx = 0;
com.typemytype.robofont.guideline.magnetic.ToaCxkqs7o = 10;
com.typemytype.robofont.guideline.magnetic.X7un6U3ahR = 0;
com.typemytype.robofont.guideline.magnetic.XBLn7JeUHQ = 0;
com.typemytype.robofont.guideline.magnetic.XTdUGbeuSc = 0;
com.typemytype.robofont.guideline.magnetic.Ye5N8PnOz2 = 0;
com.typemytype.robofont.guideline.magnetic.a56iYf0EVs = 10;
com.typemytype.robofont.guideline.magnetic.bPTHIVQxKO = 0;
com.typemytype.robofont.guideline.magnetic.bmQq4XGN6j = 10;
com.typemytype.robofont.guideline.magnetic.c2Qf3LXEhY = 10;
com.typemytype.robofont.guideline.magnetic.cW61XisbuH = 0;
com.typemytype.robofont.guideline.magnetic.d6tB6ZZk5g = 0;
com.typemytype.robofont.guideline.magnetic.fOHCdiEEIX = 10;
com.typemytype.robofont.guideline.magnetic.hC1EO90aiN = 10;
com.typemytype.robofont.guideline.magnetic.hn4xUPnqYE = 0;
com.typemytype.robofont.guideline.magnetic.jZK0MdY60n = 0;
com.typemytype.robofont.guideline.magnetic.l54Xc19uVO = 10;
com.typemytype.robofont.guideline.magnetic.lgu4nkkn9o = 0;
com.typemytype.robofont.guideline.magnetic.m2kJtqxVfu = 10;
com.typemytype.robofont.guideline.magnetic.nArelrGdPb = 0;
com.typemytype.robofont.guideline.magnetic.nsZyYnddA1 = 10;
com.typemytype.robofont.guideline.magnetic.o0kfz9oIwi = 0;
com.typemytype.robofont.guideline.magnetic.oKj7LSzMVO = 10;
com.typemytype.robofont.guideline.magnetic.ojh8nYMQiP = 10;
com.typemytype.robofont.guideline.magnetic.opf3oMJWx4 = 10;
com.typemytype.robofont.guideline.magnetic.pwZosKrYQs = 10;
com.typemytype.robofont.guideline.magnetic.q1DA5MvSIo = 0;
com.typemytype.robofont.guideline.magnetic.qcSEqrjGR2 = 0;
com.typemytype.robofont.guideline.magnetic.rlO3YXcnE1 = 10;
com.typemytype.robofont.guideline.magnetic.sSK4FDULGJ = 0;
com.typemytype.robofont.guideline.magnetic.sXHN3rC1Jd = 10;
com.typemytype.robofont.guideline.magnetic.sxZm49TuKq = 0;
com.typemytype.robofont.guideline.magnetic.tCZuVnZThw = 0;
com.typemytype.robofont.guideline.magnetic.unGSJHJMJw = 10;
com.typemytype.robofont.guideline.magnetic.vjY1tTLc6i = 10;
com.typemytype.robofont.guideline.magnetic.y2tEUGhMO3 = 10;
com.typemytype.robofont.guideline.magnetic.za9baqhss9 = 10;
};
width = 650;
}
);
unicode = 65;
}
{
glyphname = B;
kernLeft = E_left;
kernRight = B_right;
layers = (
{
anchors = (
{
name = bottom;
pos = (300,0);
},
{
name = top;
pos = (300,711);
}
);
layerId = m01;
shapes = (
{
closed = 1;
nodes = (
(415,-10,o),
(530,66,o),
(530,198,cs),
(530,202,ls),
(530,248,o),
(497,295,o),
(449,320,c),
(449,339,l),
(276,361,l),
(276,329,l),
(286,329,l),
(366,299,o),
(380,268,o),
(380,228,cs),
(380,220,ls),
(380,160,o),
(337,131,o),
(269,131,cs),
(257,131,o),
(246,132,o),
(235,136,c),
(235,242,o),
(235,349,o),
(235,455,c),
(235,503,o),
(223,539,o),
(199,561,c),
(209,593,l),
(75,593,l),
(75,435,o),
(75,283,o),
(75,125,c),
(75,97,o),
(86,74,o),
(109,51,cs),
(144,16,o),
(207,-10,o),
(276,-10,cs)
);
},
{
closed = 1;
nodes = (
(17,683,o),
(15,666,o),
(15,643,cs),
(15,579,o),
(28,550,o),
(59,550,cs),
(80,550,o),
(164,570,o),
(274,570,cs),
(320,570,o),
(358,566,o),
(383,558,c),
(388,543,o),
(390,529,o),
(390,509,cs),
(390,501,ls),
(390,425,o),
(341,390,o),
(266,390,cs),
(238,390,o),
(231,392,o),
(213,403,c),
(213,296,l),
(241,296,l),
(253,284,o),
(269,279,o),
(293,279,cs),
(433,279,o),
(540,373,o),
(540,501,cs),
(540,508,ls),
(540,598,o),
(456,720,o),
(295,720,cs),
(205,720,o),
(106,714,o),
(21,700,c)
);
}
);
userData = {
com.arrowtype.glyphMarkStatus = fromComponents;
};
width = 600;
}
);
unicode = 66;
}
{
glyphname = C;
kernLeft = O_left;
kernRight = C_right;
layers = (
{
anchors = (
{
name = bottom;
pos = (328,0);
},
{
name = top;
pos = (303,711);
}
);
background = {
shapes = (
{
closed = 1;
nodes = (
(395,-20,o),
(481,4,o),
(513,36,cs),
(534,57,o),
(550,99,o),
(550,162,cs),
(550,185,o),
(550,206,o),
(550,218,c),
(546,218,l),
(483,161,o),
(406,130,o),
(300,130,cs),
(209,130,o),
(139,169,o),
(139,220,cs),
(139,224,o),
(139,226,o),
(139,230,c),
(102,228,o),
(50,198,o),
(50,184,cs),
(50,118,ls),
(50,41,o),
(144,-20,o),
(300,-20,cs)
);
}
);
};
layerId = m01;
shapes = (
{
closed = 1;
nodes = (
(418,-20,o),
(471,1,o),
(506,36,cs),
(529,59,o),
(550,98,o),
(550,162,cs),
(550,179,o),
(548,200,o),
(543,218,c),
(537,218,l),
(486,160,o),
(416,130,o),
(349,130,cs),
(296,130,o),
(256,143,o),
(221,172,c),
(216,204,o),
(214,236,o),
(214,277,cs),
(214,295,ls),
(214,452,o),
(280,582,o),
(363,582,cs),
(378,582,o),
(388,579,o),
(404,569,c),
(395,609,l),
(381,538,o),
(375,498,o),
(375,466,cs),
(375,412,o),
(410,394,o),
(471,394,cs),
(497,394,o),
(520,398,o),
(535,404,c),
(535,442,o),
(535,487,o),
(535,531,c),
(535,584,o),
(523,626,o),
(484,665,cs),
(450,699,o),
(414,720,o),
(357,720,cs),
(176,720,o),
(56,543,o),
(56,294,cs),
(56,268,ls),
(56,97,o),
(168,-20,o),
(336,-20,cs)
);
}
);
userData = {
com.arrowtype.glyphMarkStatus = fromComponents;
com.typemytype.robofont.Image.Brightness = 0;
com.typemytype.robofont.Image.Contrast = 1;
com.typemytype.robofont.Image.Saturation = 1;
com.typemytype.robofont.Image.Sharpness = 0.4;
com.typemytype.robofont.guideline.magnetic.4nGANUc0cc = 10;
com.typemytype.robofont.guideline.magnetic.6EYEHSWNMQ = 10;
com.typemytype.robofont.guideline.magnetic.8GlFqmzOxo = 10;
com.typemytype.robofont.guideline.magnetic.8h91z27wez = 10;
com.typemytype.robofont.guideline.magnetic.9jmk6w40hm = 10;
com.typemytype.robofont.guideline.magnetic.BOCxvSBdyr = 10;
com.typemytype.robofont.guideline.magnetic.Cf4lPVVdhE = 10;
com.typemytype.robofont.guideline.magnetic.CzGyyA3n6P = 10;
com.typemytype.robofont.guideline.magnetic.FyLLohIMEO = 10;
com.typemytype.robofont.guideline.magnetic.GHvV9zTFan = 10;
com.typemytype.robofont.guideline.magnetic.HGg9eVba2u = 10;
com.typemytype.robofont.guideline.magnetic.Ih1Er61bmz = 10;
com.typemytype.robofont.guideline.magnetic.JJS7EmQHkb = 10;
com.typemytype.robofont.guideline.magnetic.K17tSqCAaG = 10;
com.typemytype.robofont.guideline.magnetic.MfJGWFkNzO = 10;
com.typemytype.robofont.guideline.magnetic.N9OupD3jlO = 10;
com.typemytype.robofont.guideline.magnetic.NxtzT2gavh = 10;
com.typemytype.robofont.guideline.magnetic.QnvlBRpuDI = 10;
com.typemytype.robofont.guideline.magnetic.Txs1XMgyvm = 10;
com.typemytype.robofont.guideline.magnetic.Tye2TIkbbI = 10;
com.typemytype.robofont.guideline.magnetic.ZYLDLC5up6 = 10;
com.typemytype.robofont.guideline.magnetic.byUsd0NEbk = 10;
com.typemytype.robofont.guideline.magnetic.cFfoowmY4D = 10;
com.typemytype.robofont.guideline.magnetic.dVdkT3Nzt8 = 10;
com.typemytype.robofont.guideline.magnetic.f1q0fO0wcU = 10;
com.typemytype.robofont.guideline.magnetic.icZHGEecUP = 10;
com.typemytype.robofont.guideline.magnetic.jHNXrXjzue = 10;
com.typemytype.robofont.guideline.magnetic.levMyWp6Lb = 10;
com.typemytype.robofont.guideline.magnetic.nKjz8zQGba = 10;
com.typemytype.robofont.guideline.magnetic.ryGYdVddiD = 10;
com.typemytype.robofont.guideline.magnetic.sPlbDY43a5 = 10;
com.typemytype.robofont.guideline.magnetic.sS03zHTsWK = 10;
com.typemytype.robofont.guideline.magnetic.z1TII09j3Z = 10;
};
width = 600;
}
);
unicode = 67;
}
{
glyphname = D;
kernLeft = E_left;
kernRight = O_right;
layers = (
{
anchors = (
{
name = bottom;
pos = (304,0);
},
{
name = top;
pos = (310,711);
}
);
background = {
shapes = (
{
closed = 1;
nodes = (
(235,495,ls),
(235,576,o),
(183,609,o),
(75,609,c),
(75,95,ls),
(75,64,o),
(146,40,o),
(235,40,c)
);
},
{
closed = 1;
nodes = (
(22,683,o),
(20,666,o),
(20,643,cs),
(20,600,o),
(27,574,o),
(41,559,cs),
(48,552,o),
(54,550,o),
(64,550,cs),
(74,550,o),
(91,554,o),
(129,559,cs),
(171,565,o),
(216,570,o),
(282,570,cs),
(381,570,o),
(424,551,o),
(484,492,c),
(584.393,623.283,o),
(458.718,720,o),
(298,720,cs),
(207.333,720,o),
(112.192,714.006,o),
(26,700,c)
);
},
{
closed = 1;
nodes = (
(600,408,ls),
(600,609,o),
(488,720,o),
(298,720,cs),
(272,720,o),
(224,702,o),
(224,645,c),
(399,626,o),
(442,570,o),
(442,403,cs),
(442,393,ls),
(442,234,o),
(354,145,o),
(246,145,cs),
(176,145,o),
(158,148,o),
(103,173,c),
(83,157,o),
(75,135,o),
(75,95,cs),
(75,50,o),
(175,-10,o),
(248,-10,cs),
(252,-10,ls),
(450,-10,o),
(600,147,o),
(600,403,cs)
);
}
);
};
layerId = m01;
shapes = (
{
closed = 1;
nodes = (
(600,417,ls),
(600,620,o),
(469,720,o),
(306,720,c),
(205,720,o),
(111,714,o),
(26,700,c),
(22,683,o),
(20,666,o),
(20,643,cs),
(20,579,o),
(33,550,o),
(64,550,cs),
(85,550,o),
(156,570,o),
(282,570,cs),
(343,570,o),
(383,562,o),
(422,542,c),
(435,508,o),
(442,470,o),
(442,403,cs),
(442,393,ls),
(442,231,o),
(353,145,o),
(246,145,cs),
(242,145,o),
(239,145,o),
(235,145,c),
(235,255,o),
(235,365,o),
(235,475,cs),
(235,515,o),
(222,542,o),
(196,561,c),
(205,589,l),
(75,589,l),
(75,435,o),
(75,282,o),
(75,113,c),
(75,82,o),
(81,72,o),
(108,45,cs),
(145,8,o),
(209,-10,o),
(265,-10,c),
(442,-10,o),
(600,141,o),
(600,403,cs)
);
}
);
userData = {
com.arrowtype.glyphMarkStatus = check;
com.typemytype.robofont.Image.Brightness = 0;
com.typemytype.robofont.Image.Contrast = 1;
com.typemytype.robofont.Image.Saturation = 1;
com.typemytype.robofont.Image.Sharpness = 0.4;
};
width = 650;
},
{
associatedMasterId = m01;
layerId = "1404D55D-28CE-4711-B41C-B7E9AC6548BA";
name = 45degrees;
shapes = (
{
closed = 1;
nodes = (
(235,495,ls),
(235,576,o),
(183,609,o),
(75,609,c),
(75,95,ls),
(75,64,o),
(146,40,o),
(235,40,c)
);
},
{
closed = 1;
nodes = (
(22,683,o),
(20,666,o),
(20,643,cs),
(20,600,o),
(27,574,o),
(41,559,cs),
(48,552,o),
(54,550,o),
(64,550,cs),
(74,550,o),
(91,554,o),
(129,559,cs),
(171,565,o),
(216,570,o),
(282,570,cs),
(381,570,o),
(424,551,o),
(484,492,c),
(523,543,o),
(551,609,o),
(516,644,cs),
(458,702,o),
(389,720,o),
(278,720,cs),
(194,720,o),
(106,713,o),
(26,700,c)
);
},
{
closed = 1;
nodes = (
(600,408,ls),
(600,516,o),
(577,583,o),
(516,644,cs),
(476,684,o),
(383,695,o),
(339,638,c),
(405,605,o),
(442,548,o),
(442,403,cs),
(442,393,ls),
(442,234,o),
(354,145,o),
(246,145,cs),
(176,145,o),
(158,148,o),
(103,173,c),
(83,157,o),
(75,135,o),
(75,95,cs),
(75,50,o),
(175,-10,o),
(248,-10,cs),
(252,-10,ls),
(450,-10,o),
(600,147,o),
(600,403,cs)
);
}
);
width = 600;
}
);
unicode = 68;
}
{
glyphname = E;
kernLeft = E_left;
kernRight = E_right;
layers = (
{
anchors = (
{
name = bottom;
pos = (282,-1);
},
{
name = hook;
pos = (268,770);
},
{
name = ogonek;
pos = (506,0);
},
{
name = top;
pos = (268,711);
}
);
background = {
shapes = (
{
closed = 1;
nodes = (
(25,692,o),
(25,683,o),
(25,675,cs),
(25,627,o),
(31,575,o),
(48,558,cs),
(54,552,o),
(57,550,o),
(65,550,cs),
(503,550,l),
(508,564,o),
(510,583,o),
(510,604,cs),
(510,625,o),
(505,669,o),
(486,688,cs),
(476,698,o),
(469,700,o),
(452,700,cs),
(25,700,l)
);
},
{
closed = 1;
nodes = (
(235,477,ls),
(235,558,o),
(195,584,o),
(75,584,c),
(75,140,ls),
(75,97,o),
(151,85,o),
(235,85,c)
);
},
{
closed = 1;
nodes = (
(75,132,ls),
(75,73,o),
(135,0,o),
(183,0,cs),
(505,0,l),
(509,15,o),
(511,35,o),
(511,58,cs),
(511,124,o),
(493,150,o),
(449,150,cs),
(75,150,l)
);
},
{
closed = 1;
nodes = (
(145,310,o),
(157,270,o),
(200,270,cs),
(460,270,l),
(460,278,o),
(460,287,o),
(460,295,cs),
(460,320,o),
(447,358,o),
(420,385,cs),
(406,399,o),
(403,400,o),
(384,400,cs),
(145,400,l)
);
}
);
};
layerId = m01;
shapes = (
{
closed = 1;
nodes = (
(32,681,o),
(30,662,o),
(30,645,c),
(30,600,o),
(41,550,o),
(76,550,c),
(503,550,l),
(508,564,o),
(510,583,o),
(510,604,cs),
(510,636,o),
(498,700,o),
(439,700,cs),
(35,700,l)
);
},
{
closed = 1;
nodes = (
(190,270,l),
(457,270,l),
(459,280,o),
(460,289,o),
(460,304,cs),
(460,352,o),
(437,400,o),
(379,400,cs),
(190,400,l)
);
},
{
closed = 1;
nodes = (
(504,0,l),
(508,15,o),
(510,37,o),
(510,58,cs),
(510,124,o),
(477,150,o),
(398,150,cs),
(235,150,l),
(235,252,o),
(235,355,o),
(235,457,cs),
(235,499,o),
(224,527,o),
(197,544,c),
(206,573,l),
(75,573,l),
(75,426,o),
(75,279,o),
(75,132,c),
(75,70,o),
(135,0,o),
(190,0,c)
);
}
);
userData = {
com.arrowtype.glyphMarkStatus = check;
com.typemytype.robofont.Image.Brightness = 0;
com.typemytype.robofont.Image.Contrast = 1;
com.typemytype.robofont.Image.Saturation = 1;
com.typemytype.robofont.Image.Sharpness = 0.4;
};
width = 550;
}
);
unicode = 69;
}
{
glyphname = F;
kernLeft = E_left;
layers = (
{
anchors = (
{
name = bottom;
pos = (275,0);
},
{
name = top;
pos = (275,711);
}
);
background = {
shapes = (
{
closed = 1;
nodes = (
(257,31,o),
(255,65,o),
(255,96,cs),
(255,477,ls),
(255,558,o),
(217,584,o),
(95,584,c),
(95,56,ls),
(95,11,o),
(138,-6,o),
(248,-6,cs),
(253,-6,o),
(258,-6,o),
(263,-6,c)
);
},
{
closed = 1;
nodes = (
(25,692,o),
(25,683,o),
(25,675,cs),
(25,616,o),
(34,572,o),
(48,558,cs),
(55,551,o),
(58,550,o),
(65,550,cs),
(513,550,l),
(518,563,o),
(520,581,o),
(520,604,cs),
(520,638,o),
(510,674,o),
(496,688,cs),
(486,698,o),
(480,700,o),
(462,700,cs),
(25,700,l)
);
},
{
closed = 1;
nodes = (
(115,260,o),
(127,200,o),
(170,200,cs),
(467,200,l),
(469,209,o),
(470,218,o),
(470,229,cs),
(470,264,o),
(453,305,o),
(430,328,cs),
(410,348,o),
(401,350,o),
(371,350,cs),
(115,350,l)
);
}
);
};
layerId = m01;
shapes = (
{
closed = 1;
nodes = (
(257,31,o),
(255,65,o),
(255,96,c),
(255,216,o),
(255,335,o),
(255,455,c),
(255,498,o),
(244,528,o),
(217,544,c),
(225,574,l),
(95,574,l),
(95,417,o),
(95,260,o),
(95,103,cs),
(95,26,o),
(131,-6,o),
(213,-6,c),
(235,-6,o),
(248,-4,o),
(266,0,c)
);
},
{
closed = 1;
nodes = (
(27,681,o),
(25,662,o),
(25,645,c),
(25,600,o),
(37,550,o),
(78,550,cs),
(513,550,l),
(518,564,o),
(520,583,o),
(520,604,cs),
(520,636,o),
(508,700,o),
(449,700,c),
(30,700,l)
);
},
{
closed = 1;
nodes = (
(200,200,l),
(466,200,l),
(469,212,o),
(470,234,o),
(470,249,c),
(470,303,o),
(436,350,o),
(371,350,cs),
(200,350,l)
);
}
);
userData = {
com.arrowtype.glyphMarkStatus = check;
};
width = 550;
}
);
unicode = 70;
}
{
glyphname = G;
kernLeft = O_left;
kernRight = G_right;
layers = (
{
anchors = (
{
name = bottom;
pos = (332,-1);
},
{
name = top;
pos = (332,711);
}
);
background = {
shapes = (
{
closed = 1;
nodes = (
(453,581,o),
(482,549,o),
(482,486,c),
(545,486,o),
(565,524,o),
(565,546,cs),
(565,588,o),
(546,636,o),
(511,671,cs),
(482,700,o),
(441,720,o),
(391,720,cs),
(199,720,o),
(50,563,o),
(50,284,cs),
(50,277,ls),
(50,199,o),
(120,130,o),
(216,130,c),
(207,155,o),
(200,210,o),
(200,267,cs),
(200,276,ls),
(200,489,o),
(302,581,o),
(397,581,cs)
);
},
{
closed = 1;
nodes = (
(225,130,o),
(180,198,o),
(180,342,c),
(101,343,o),
(50,328,o),
(50,277,cs),
(50,112,o),
(145,-20,o),
(350,-20,cs),
(477,-20,o),
(586,43,o),
(586,141,cs),
(586,150,ls),
(586,217,o),
(546,286,o),
(489,286,c),
(493,268,o),
(494,258,o),
(494,229,cs),
(494,157,o),
(434,130,o),
(350,130,cs)
);
},
{
closed = 1;
nodes = (
(359,349,o),
(359,343,o),
(359,336,cs),
(359,296,o),
(370,274,o),
(386,258,cs),
(409,235,o),
(436,226,o),
(515,226,cs),
(615,226,l),
(615,235,ls),
(615,326,o),
(599,355,o),
(547,355,cs),
(359,355,l)
);
},
{
closed = 1;
nodes = (
(565,546,ls),
(565,598,o),
(519,638,o),
(438,638,c),
(421,588,o),
(415,547,o),
(415,517,cs),
(415,512,ls),
(415,466,o),
(436,450,o),
(507,450,cs),
(530,450,o),
(550,452,o),
(565,456,c)
);
}
);
};
layerId = m01;
shapes = (
{
closed = 1;
nodes = (
(360,349,o),
(359,337,o),
(359,328,cs),
(359,257,o),
(399,226,o),
(515,226,c),
(615,226,l),
(615,235,l),
(615,326,o),
(599,355,o),
(547,355,cs),
(362,355,l)
);
},
{
closed = 1;
nodes = (
(185,720,o),
(50,532,o),
(50,294,cs),
(50,277,ls),
(50,97,o),
(157,-20,o),
(351,-20,cs),
(432,-20,o),
(505,9,o),
(539,41,cs),
(565,65,o),
(586,98,o),
(586,144,cs),
(586,183,o),
(578,204,o),
(557,220,c),
(568,245,l),
(477,245,l),
(480,235,o),
(481,226,o),
(481,213,cs),
(481,163,o),
(438,130,o),
(360,130,cs),
(275,130,o),
(229,152,o),
(203,208,c),
(201,226,o),
(200,254,o),
(200,277,cs),
(200,295,ls),
(200,452,o),
(279,581,o),
(395,581,cs),
(409,581,o),
(422,580,o),
(433,575,c),
(436,609,l),
(418,563,o),
(415,537,o),
(415,508,cs),
(415,465,o),
(445,450,o),
(501,450,cs),
(527,450,o),
(550,453,o),
(565,459,c),
(565,481,o),
(565,506,o),
(565,531,c),
(565,594,o),
(547,634,o),
(508,673,cs),
(474,707,o),
(433,720,o),
(377,720,c)
);
}
);
userData = {
com.arrowtype.glyphMarkStatus = check;
};
width = 650;
},
{
associatedMasterId = m01;
layerId = "DDF4A637-43AE-4382-8DAD-8237868E83CB";
name = 45degrees;
shapes = (
{
closed = 1;
nodes = (
(423,581,o),
(452,583,o),
(487,566,c),
(540,590,o),
(550,633,o),
(517,666,cs),
(484,699,o),
(443,720,o),
(391,720,cs),
(199,720,o),
(50,563,o),
(50,284,cs),
(50,277,ls),
(50,199,o),
(120,130,o),
(216,130,c),
(207,155,o),
(200,210,o),
(200,267,cs),
(200,276,ls),
(200,489,o),
(302,581,o),
(397,581,cs)
);
},
{
closed = 1;
nodes = (
(225,130,o),
(180,198,o),
(180,342,c),
(101,343,o),
(50,328,o),
(50,277,cs),
(50,112,o),
(145,-20,o),
(350,-20,cs),
(477,-20,o),
(586,43,o),
(586,141,cs),
(586,150,ls),
(586,217,o),
(546,286,o),
(489,286,c),
(493,268,o),
(494,258,o),
(494,229,cs),
(494,157,o),
(434,130,o),
(350,130,cs)
);
},
{
closed = 1;
nodes = (
(359,349,o),
(359,343,o),
(359,336,cs),
(359,296,o),
(370,274,o),
(386,258,cs),
(409,235,o),
(436,226,o),
(515,226,cs),
(615,226,l),
(615,235,ls),
(615,326,o),
(599,355,o),
(547,355,cs),
(359,355,l)
);
},
{
closed = 1;
nodes = (
(565,522,ls),
(565,613,o),
(548,635,o),
(517,666,cs),
(496,687,o),
(475,685,o),
(454,678,c),
(431,610,o),
(415,557,o),
(415,517,cs),
(415,512,ls),
(415,466,o),
(436,450,o),
(507,450,cs),
(530,450,o),
(550,452,o),
(565,456,c)
);
}
);
width = 600;
}
);
unicode = 71;
}
{
glyphname = H;
kernLeft = H_left;
kernRight = H_right;
layers = (
{
anchors = (
{
name = bottom;
pos = (326,0);
},
{
name = top;
pos = (311,711);
}
);
background = {
shapes = (
{
closed = 1;
nodes = (
(71,667,o),
(75,630,o),
(75,590,cs),
(75,57,ls),
(75,12,o),
(116,-10,o),
(198,-10,cs),
(215,-10,o),
(227,-9,o),
(235,-7,c),
(235,640,ls),
(235,665,o),
(231,677,o),
(220,688,cs),
(204,704,o),
(179,710,o),
(129,710,cs),
(104,710,o),
(85,708,o),
(62,703,c)
);
},
{
closed = 1;
nodes = (
(589,33,o),
(585,70,o),
(585,110,cs),
(585,643,ls),
(585,687,o),
(536,710,o),
(442,710,cs),
(434,710,o),
(429,710,o),
(425,710,c),
(425,60,ls),
(425,35,o),
(429,23,o),
(440,12,cs),
(456,-4,o),
(481,-10,o),
(531,-10,cs),
(556,-10,o),
(575,-8,o),
(598,-3,c)
);
},
{
closed = 1;
nodes = (
(25,375,ls),
(25,324,o),
(38,283,o),
(63,258,cs),
(70,251,o),
(73,250,o),
(80,250,cs),
(550,250,l),
(550,332,o),
(516,400,o),
(475,400,cs),
(25,400,l)
);
},
{
closed = 1;
nodes = (
(71,667,o),
(75,630,o),
(75,590,cs),
(75,57,ls),
(75,12,o),
(116,-10,o),
(198,-10,cs),
(215,-10,o),
(227,-9,o),
(235,-7,c),
(235,640,ls),
(235,665,o),
(231,677,o),
(220,688,cs),
(204,704,o),
(179,710,o),
(129,710,cs),
(104,710,o),
(85,708,o),
(62,703,c)
);
},
{
closed = 1;
nodes = (
(589,33,o),
(585,70,o),
(585,110,cs),
(585,643,ls),
(585,687,o),
(536,710,o),
(442,710,cs),
(434,710,o),
(429,710,o),
(425,710,c),
(425,60,ls),
(425,35,o),
(429,23,o),
(440,12,cs),
(456,-4,o),
(481,-10,o),
(531,-10,cs),
(556,-10,o),
(575,-8,o),
(598,-3,c)
);
},
{
closed = 1;
nodes = (
(25,375,ls),
(25,324,o),
(38,283,o),
(63,258,cs),
(70,251,o),
(73,250,o),
(80,250,cs),
(459,250,l),
(459,362,o),
(433,400,o),
(352,400,cs),
(25,400,l)
);
}
);
};
layerId = m01;
shapes = (
{
closed = 1;
nodes = (
(71,667,o),
(75,630,o),
(75,590,cs),
(75,433,o),
(75,277,o),
(75,120,cs),
(75,20,o),
(106,-8,o),
(170,-8,cs),
(194,-8,o),
(213,-5,o),
(235,0,c),
(235,202,o),
(235,405,o),
(235,607,cs),
(235,668,o),
(203,708,o),
(129,708,cs),
(104,708,o),
(85,705,o),
(62,700,c)
);
},
{
closed = 1;
nodes = (
(25,375,l),
(25,300,o),
(34,250,o),
(85,250,c),
(454,250,l),
(454,385,l),
(419,370,l),
(394,391,o),
(365,400,o),
(322,400,cs),
(25,400,l)
);
},
{
closed = 1;
nodes = (
(585,36,o),
(585,73,o),
(585,113,cs),
(585,289,o),
(585,467,o),
(585,603,cs),
(585,687,o),
(549,708,o),
(487,708,cs),
(464,708,o),
(445,705,o),
(425,700,c),
(425,498,o),
(425,306,o),
(425,111,cs),
(425,32,o),
(464,-8,o),
(527,-8,cs),
(552,-8,o),
(571,-5,o),
(594,0,c)
);
}
);
userData = {
com.arrowtype.glyphMarkStatus = check;
com.typemytype.robofont.Image.Brightness = 0;
com.typemytype.robofont.Image.Contrast = 1;
com.typemytype.robofont.Image.Saturation = 1;
com.typemytype.robofont.Image.Sharpness = 0.4;
};
width = 650;
}
);
unicode = 72;
}
{
glyphname = I;
kernLeft = I_left;
kernRight = I_right;
layers = (
{
anchors = (
{
name = bottom;
pos = (251,-1);
},
{
name = hook;
pos = (250,770);
},
{
name = ogonek;
pos = (455,0);
},
{
name = top;
pos = (251,711);
}
);
background = {
shapes = (
{
closed = 1;
nodes = (
(330,477,ls),
(330,558,o),
(292,584,o),
(170,584,c),
(170,228,ls),
(170,130,o),
(208,86,o),
(330,86,c)
);
},
{
closed = 1;
nodes = (
(43,691,o),
(41,679,o),
(41,664,cs),
(41,626,o),
(50,597,o),
(70,577,cs),
(92,555,o),
(122,550,o),
(195,550,cs),
(454,550,l),
(459,570,o),
(461,590,o),
(461,608,cs),
(461,659,o),
(453,700,o),
(399,700,cs),
(46,700,l)
);
},
{
closed = 1;
nodes = (
(43,134,o),
(41,116,o),
(41,97,cs),
(41,67,o),
(45,36,o),
(63,18,cs),
(77,4,o),
(89,0,o),
(129,0,cs),
(454,0,l),
(458,15,o),
(461,35,o),
(461,58,cs),
(461,109,o),
(453,150,o),
(399,150,cs),
(48,150,l)
);
}
);
};
layerId = m01;
shapes = (
{
closed = 1;
nodes = (
(330,231,o),
(330,339,o),
(330,448,cs),
(330,493,o),
(316,529,o),
(292,544,c),
(302,578,l),
(170,578,l),
(170,469,o),
(170,361,o),
(170,252,cs),
(170,207,o),
(184,171,o),
(208,156,c),
(198,122,l),
(330,122,l)
);
},
{
closed = 1;
nodes = (
(457,14,o),
(460,29,o),
(460,45,cs),
(460,103,o),
(429,150,o),
(307,150,cs),
(47,150,l),
(43,135,o),
(40,111,o),
(40,88,cs),
(40,33,o),
(57,0,o),
(102,0,cs),
(453,0,l)
);
},
{
closed = 1;
nodes = (
(43,691,o),
(41,673,o),
(41,658,cs),
(41,581,o),
(90,550,o),
(195,550,cs),
(452,550,l),
(457,570,o),
(460,590,o),
(460,608,cs),
(460,659,o),
(452,700,o),
(398,700,cs),
(46,700,l)
);
}
);
userData = {
com.arrowtype.glyphMarkStatus = check;
com.typemytype.robofont.Image.Brightness = 0;
com.typemytype.robofont.Image.Contrast = 1;
com.typemytype.robofont.Image.Saturation = 1;
com.typemytype.robofont.Image.Sharpness = 0.4;
};
width = 500;
}
);
unicode = 73;
}
{
glyphname = J;
kernLeft = I_left;
kernRight = J_right;
layers = (
{
anchors = (
{
name = bottom;
pos = (250,0);
},
{
name = top;
pos = (262,711);
}
);
background = {
shapes = (
{
closed = 1;
nodes = (
(73,691,o),
(71,679,o),
(71,664,cs),
(71,626,o),
(80,597,o),
(100,577,cs),
(121,556,o),
(148,550,o),
(215,550,cs),
(383,550,l),
(383,660,o),
(357,700,o),
(308,700,cs),
(76,700,l)
);
},
{
closed = 1;
nodes = (
(455,650,ls),
(455,679,o),
(419,700,o),
(330,700,cs),
(296,700,l),
(296,230,ls),
(296,144,o),
(285,105,o),
(246,63,c),
(338,20,o),
(455,114,o),
(455,220,cs)
);
},
{
closed = 1;
nodes = (
(148,130,o),
(118,150,o),
(48,185,c),
(44,185,l),
(41,169,o),
(40,154,o),
(40,138,cs),
(40,70,o),
(58,36,o),
(73,21,cs),
(99.339,-5.339,o),
(152.523,-20,o),
(200,-20,cs),
(210,-20,ls),
(364,-20,o),
(455,115,o),
(455,220,cs),
(455,252,o),
(434.485,280.384,o),
(351,315,c),
(351,194,o),
(325,130,o),
(225,130,cs)
);
}
);
};
layerId = m01;
shapes = (
{
closed = 1;
nodes = (
(141,130,o),
(90,147,o),
(33,185,c),
(27,185,l),
(23,169,o),
(20,148,o),
(20,116,c),
(20,70,o),
(31,43,o),
(53,21,cs),
(79,-5,o),
(122,-20,o),
(185,-20,cs),
(344,-20,o),
(435,110,o),
(435,225,cs),
(435,357,o),
(435,503,o),
(435,614,c),
(435,679,o),
(393,710,o),
(290,710,cs),
(209,710,o),
(137,706,o),
(56,700,c),
(52,686,o),
(50,663,o),
(50,637,cs),
(50,571,o),
(75,540,o),
(121,540,c),
(173,540,o),
(225,555,o),
(299,588,c),
(245,587,l),
(303,559,l),
(276,603,l),
(276,453,o),
(276,339,o),
(276,230,c),
(276,196,o),
(275,169,o),
(270,144,c),
(249,135,o),
(227,130,o),
(198,130,cs)
);
}
);
userData = {
com.arrowtype.glyphMarkStatus = check;
com.typemytype.robofont.Image.Brightness = 0;
com.typemytype.robofont.Image.Contrast = 1;
com.typemytype.robofont.Image.Saturation = 1;
com.typemytype.robofont.Image.Sharpness = 0.4;
};
width = 500;
},
{
associatedMasterId = m01;
layerId = "77D0E9F2-A7CB-4B8B-BB4D-8001FAB6A021";
name = 45degrees;
shapes = (
{
closed = 1;
nodes = (
(73,691,o),
(71,679,o),
(71,664,cs),
(71,626,o),
(80,597,o),
(100,577,cs),
(121,556,o),
(148,550,o),
(215,550,cs),
(383,550,l),
(383,660,o),
(357,700,o),
(308,700,cs),
(76,700,l)
);
},
{
closed = 1;
nodes = (
(455,650,ls),
(455,679,o),
(419,700,o),
(330,700,cs),
(296,700,l),
(296,230,ls),
(296,144,o),
(288,99,o),
(246,27,c),
(280,13,o),
(339,12,o),
(369,42,cs),
(442,115,o),
(455,153,o),
(455,230,cs)
);
},
{
closed = 1;
nodes = (
(148,130,o),
(118,150,o),
(48,185,c),
(44,185,l),
(41,169,o),
(40,154,o),
(40,138,cs),
(40,70,o),
(58,36,o),
(73,21,cs),
(97,-3,o),
(140,-20,o),
(180,-20,cs),
(190,-20,ls),
(288,-20,o),
(328,1,o),
(369,42,cs),
(397,70,o),
(412,150,o),
(369,208,c),
(330,161,o),
(284,130,o),
(225,130,cs)
);
}
);
width = 600;
}
);
unicode = 74;
}
{
glyphname = K;
kernLeft = N_left;
kernRight = K_right;
layers = (
{
anchors = (
{
name = bottom;
pos = (322,-1);
},
{
name = top;
pos = (322,711);
}
);
layerId = m01;
shapes = (
{
closed = 1;
nodes = (
(237,250,l),
(277,250,l),
(314,150,o),
(325,125,o),
(356,68,cs),
(391,4,o),
(429,-20,o),
(479,-20,cs),
(505,-20,o),
(525,-14,o),
(539,0,cs),
(555,16,o),
(564,46,o),
(564,82,cs),
(564,117,o),
(562,136,o),
(557,159,c),
(551,159,l),
(541,152,o),
(530,149,o),
(512,149,cs),
(487,149,o),
(465,164,o),
(445,202,cs),
(414,260,o),
(382,318,o),
(351,376,c)
);
},
{
closed = 1;
nodes = (
(398,710,l),
(388,622,o),
(362,546,o),
(332,491,cs),
(299,430,o),
(264,386,o),
(227,352,c),
(197,352,l),
(197,217,l),
(308,253,o),
(464,375,o),
(516,498,cs),
(545,563,o),
(551,600,o),
(551,640,cs),
(551,679,o),
(504,710,o),
(417,710,cs)
);
},
{
closed = 1;
nodes = (
(61,667,o),
(65,630,o),
(65,590,cs),
(65,433,o),
(65,277,o),
(65,120,cs),
(65,20,o),
(96,-8,o),
(160,-8,cs),
(184,-8,o),
(199,-5,o),
(221,0,c),
(221,202,o),
(221,405,o),
(221,607,cs),
(221,668,o),
(193,708,o),
(119,708,cs),
(94,708,o),
(75,705,o),
(52,700,c)
);
}
);
userData = {
com.arrowtype.glyphMarkStatus = fromComponents;
};
width = 600;
}
);
unicode = 75;
}
{
glyphname = L;
kernLeft = N_left;
kernRight = L_right;
layers = (
{
anchors = (
{
name = bottom;
pos = (286,-1);
},
{
name = caronslovak;
pos = (406,606);
},
{
name = dot;
pos = (436,435);
},
{
name = slash;
pos = (145,362);
},
{
name = top;
pos = (146,711);
}
);
background = {
shapes = (
{
closed = 1;
nodes = (
(225,640,ls),
(225,665,o),
(221,677,o),
(210,688,cs),
(194,704,o),
(169,710,o),
(119,710,cs),
(94,710,o),
(75,708,o),
(52,703,c),
(61,668,o),
(65,631,o),
(65,590,cs),
(65,137,ls),
(65,96,o),
(123,73,o),
(225,73,c)
);
},
{
closed = 1;
nodes = (
(65,132,ls),
(65,73,o),
(125,0,o),
(173,0,cs),
(514,0,l),
(518,15,o),
(520,35,o),
(520,58,cs),
(520,124,o),
(502,150,o),
(458,150,cs),
(65,150,l)
);
}
);
};
layerId = m01;
shapes = (
{
closed = 1;
nodes = (
(464,0,l),
(475,102,o),
(453,150,o),
(394,150,c),
(225,150,l),
(225,310,o),
(225,480,o),
(225,620,c),
(225,693,o),
(201,710,o),
(130,710,cs),
(100,710,o),
(75,706,o),
(52,700,c),
(61,666,o),
(65,630,o),
(65,590,cs),
(65,446,o),
(65,303,o),
(65,159,cs),
(65,88,o),
(95,0,o),
(163,0,cs)
);
},
{
closed = 1;
nodes = (
(382,116,o),
(357,68,o),
(357,-4,cs),
(357,-28,o),
(384,-45,o),
(458,-45,c),
(491,23,o),
(520,99,o),
(520,181,cs),
(520,227,o),
(500,243,o),
(440,243,cs),
(417,243,o),
(397,241,o),
(382,237,c)
);
}
);
userData = {
com.arrowtype.glyphMarkStatus = check;
};
width = 550;
}
);
unicode = 76;
}
{
glyphname = M;
kernLeft = M_left;
kernRight = M_right;
layers = (
{
anchors = (
{
name = bottom;
pos = (403,0);
},
{
name = top;
pos = (400,711);
}
);
background = {
shapes = (
{
closed = 1;
nodes = (
(199,49,o),
(197,103,o),
(197,158,cs),
(197,315,o),
(218,469,o),
(249,629,cs),
(254,654,o),
(247,677,o),
(236,688,cs),
(220,704,o),
(195,710,o),
(145,710,cs),
(120,710,o),
(101,708,o),
(78,703,c),
(87,667,o),
(90,633,o),
(85,593,cs),
(65,414,o),
(45,234,o),
(45,57,cs),
(45,41,o),
(50,28,o),
(60,18,cs),
(79,-1,o),
(115,-10,o),
(168,-10,cs),
(185,-10,o),
(197,-9,o),
(205,-7,c)
);
},
{
closed = 1;
nodes = (
(760,33,o),
(756,70,o),
(756,110,cs),
(756,287,o),
(736,468,o),
(710,643,cs),
(708,657,o),
(703,668,o),
(693,678,cs),
(672,699,o),
(620,710,o),
(553,710,cs),
(550,710,l),
(556,679,o),
(559,647,o),
(564,614,cs),
(586,482,o),
(600,330,o),
(600,186,cs),
(600,143,o),
(599,101,o),
(596,60,cs),
(595,35,o),
(600,23,o),
(611,12,cs),
(627,-4,o),
(652,-10,o),
(702,-10,cs),
(727,-10,o),
(746,-8,o),
(769,-3,c)
);
},
{
closed = 1;
nodes = (
(316,688,o),
(259,710,o),
(156,710,cs),
(145,710,l),
(176,675,o),
(204,624,o),
(208,598,cs),
(243.16,305.535,o),
(327,155,o),
(344,138,cs),
(365,117,o),
(375,112,o),
(401,112,cs),
(435,112,o),
(464,134,o),
(464,192,c),
(389,339,o),
(362,441,o),
(321,659,cs)
);
},
{
closed = 1;
nodes = (
(458,473,o),
(409,349,o),
(346,226,cs),
(327,191,o),
(359,112,o),
(401,112,cs),
(442,112,l),
(527,263,o),
(604,535,o),
(604,657,cs),
(604,690,o),
(586,710,o),
(550,710,cs),
(529,710,o),
(516,708,o),
(495,703,c)
);
}
);
};
layerId = m01;
shapes = (
{
closed = 1;
nodes = (
(200,49,o),
(197,100,o),
(197,150,cs),
(197,220,o),
(204,321,o),
(222,492,c),
(198,462,l),
(261,462,l),
(219,489,l),
(254,322,o),
(317,159,o),
(351,130,cs),
(365,118,o),
(379,115,o),
(403,115,cs),
(423,115,o),
(442,118,o),
(455,125,c),
(494,179,o),
(552,363,o),
(583,488,c),
(540,462,l),
(603,462,l),
(580,492,l),
(591,350,o),
(599,264,o),
(599,204,cs),
(599,161,o),
(597,99,o),
(597,75,c),
(597,11,o),
(616,-8,o),
(694,-8,cs),
(724,-8,o),
(752,-5,o),
(768,0,c),
(760,30,o),
(753,77,o),
(748,192,cs),
(743,310,o),
(737,431,o),
(715,616,cs),
(707,682,o),
(684,708,o),
(578,708,c),
(536,708,o),
(516,705,o),
(498,700,c),
(476,561,o),
(438,386,o),
(394,277,c),
(435,301,l),
(372,301,l),
(405,276,l),
(368,388,o),
(342,521,o),
(325,632,cs),
(316,688,o),
(276,708,o),
(177,708,c),
(126,708,o),
(101,705,o),
(78,700,c),
(85,675,o),
(87,660,o),
(87,632,cs),
(87,523,o),
(45,315,o),
(45,77,cs),
(45,13,o),
(87,-8,o),
(134,-8,cs),
(154,-8,o),
(194,-6,o),
(205,0,c)
);
}
);
userData = {
com.arrowtype.glyphMarkStatus = check;
com.typemytype.robofont.Image.Brightness = 0;
com.typemytype.robofont.Image.Contrast = 1;
com.typemytype.robofont.Image.Saturation = 1;
com.typemytype.robofont.Image.Sharpness = 0.4;
com.typemytype.robofont.guideline.magnetic.1IrJbg0K7t = 10;
com.typemytype.robofont.guideline.magnetic.1k7uZsaf2P = 10;
com.typemytype.robofont.guideline.magnetic.1mmhNj0xla = 10;
com.typemytype.robofont.guideline.magnetic.24dVKV2N8E = 10;
com.typemytype.robofont.guideline.magnetic.36pRiUIfse = 10;
com.typemytype.robofont.guideline.magnetic.6Jgpt4kJvn = 10;
com.typemytype.robofont.guideline.magnetic.6iouFgmBmG = 10;
com.typemytype.robofont.guideline.magnetic.6yrOlPLMdR = 10;
com.typemytype.robofont.guideline.magnetic.7Wqsks5nLl = 10;
com.typemytype.robofont.guideline.magnetic.89DF8G2iT3 = 10;
com.typemytype.robofont.guideline.magnetic.8JKJxfKfsq = 10;
com.typemytype.robofont.guideline.magnetic.AO9j8WNFrQ = 10;
com.typemytype.robofont.guideline.magnetic.DmjBJxTNvs = 10;
com.typemytype.robofont.guideline.magnetic.GO6eWnjyBg = 10;
com.typemytype.robofont.guideline.magnetic.HFrHAMCBIq = 10;
com.typemytype.robofont.guideline.magnetic.HmZA5qbdQM = 10;
com.typemytype.robofont.guideline.magnetic.RkqjxEjZ9g = 10;
com.typemytype.robofont.guideline.magnetic.T4Cy7mN58E = 10;
com.typemytype.robofont.guideline.magnetic.TnNFLTZY5y = 10;
com.typemytype.robofont.guideline.magnetic.VekOcv5NLO = 10;
com.typemytype.robofont.guideline.magnetic.WI2aJYbK7Q = 10;
com.typemytype.robofont.guideline.magnetic.X6a6TCZXLy = 10;
com.typemytype.robofont.guideline.magnetic.XzsJnSs8cZ = 10;
com.typemytype.robofont.guideline.magnetic.Yscsup1pBt = 10;
com.typemytype.robofont.guideline.magnetic.Zuh9A0kyH5 = 10;
com.typemytype.robofont.guideline.magnetic.ayMavN9Upq = 10;
com.typemytype.robofont.guideline.magnetic.frdvkl6t3i = 10;
com.typemytype.robofont.guideline.magnetic.iC4fbNNyEb = 10;
com.typemytype.robofont.guideline.magnetic.lkVGszN3P6 = 10;
com.typemytype.robofont.guideline.magnetic.nEO7yeYuc4 = 10;
com.typemytype.robofont.guideline.magnetic.njJ570oIIp = 10;
com.typemytype.robofont.guideline.magnetic.oYfgcxtHri = 10;
com.typemytype.robofont.guideline.magnetic.opTkFkdZcU = 10;
com.typemytype.robofont.guideline.magnetic.p20ancqdoi = 10;
com.typemytype.robofont.guideline.magnetic.pgvmq5Mews = 10;
com.typemytype.robofont.guideline.magnetic.qRz6uOzIrS = 10;
com.typemytype.robofont.guideline.magnetic.rXa5VbYcct = 10;
com.typemytype.robofont.guideline.magnetic.xpRaO5XHTD = 10;
com.typemytype.robofont.guideline.magnetic.yFKvadgjox = 10;
};
width = 800;
}
);
unicode = 77;
}
{
glyphname = N;
kernLeft = N_left;
kernRight = H_right;
layers = (
{
anchors = (
{
name = bottom;
pos = (348,-1);
},
{
name = top;
pos = (348,711);
}
);
background = {
shapes = (
{
closed = 1;
nodes = (
(225,101,ls),
(225,443,o),
(199.378,654.622,o),
(161,693,cs),
(153,701,o),
(138,710,o),
(130,710,cs),
(105,710,o),
(88,708,o),
(62,701,c),
(71,665,o),
(75,630,o),
(75,590,cs),
(75,57,ls),
(75,8,o),
(135,-9,o),
(178,-9,cs),
(198.324,-9,o),
(210.049,-8.984,o),
(225,-4,c)
);
},
{
closed = 1;
nodes = (
(635,651,ls),
(635,691,o),
(579.565,710,o),
(510,710,cs),
(485,710,l),
(485,470,ls),
(485,225,o),
(508.619,54.381,o),
(543,20,cs),
(564,-1,o),
(592,-10,o),
(610,-10,cs),
(635,-10,l)
);
},
{
closed = 1;
nodes = (
(157,683,o),
(167,627,o),
(176,579,cs),
(221.768,322.702,o),
(390.392,120.608,o),
(476,35,cs),
(506.192,4.808,o),
(557.048,-10,o),
(610,-10,cs),
(614,-10,o),
(615,-10,o),
(619,-10,cs),
(624,-10,o),
(626,29,o),
(626,87,c),
(444,254,o),
(336,442,o),
(270,667,cs),
(262,695,o),
(188,710,o),
(132,710,cs),
(130,710,l)
);
}
);
};
layerId = m01;
shapes = (
{
closed = 1;
nodes = (
(205,17,o),
(205,33,o),
(205,55,cs),
(205,187,o),
(198,297,o),
(180,488,c),
(157,458,l),
(221,458,l),
(180,485,l),
(243,281,o),
(344,117,o),
(422,35,cs),
(455,0,o),
(481,-10,o),
(538,-10,cs),
(567,-10,o),
(589,-6,o),
(608,0,c),
(599,35,o),
(596,71,o),
(596,106,cs),
(596,276,o),
(596,446,o),
(596,608,c),
(596,679,o),
(580,708,o),
(509,708,cs),
(477,708,o),
(459,705,o),
(446,700,c),
(446,640,o),
(446,581,o),
(446,520,cs),
(446,376,o),
(449,300,o),
(463,192,c),
(491,215,l),
(421,215,l),
(467,195,l),
(356,364,o),
(313,479,o),
(267,615,cs),
(242,688,o),
(220,708,o),
(137,708,cs),
(101,708,o),
(72,706,o),
(42,700,c),
(51,664,o),
(55,630,o),
(55,590,c),
(55,429,o),
(55,268,o),
(55,107,c),
(55,31,o),
(83,-7,o),
(146,-7,cs),
(168,-7,o),
(192,-4,o),
(205,0,c)
);
}
);
userData = {
com.arrowtype.glyphMarkStatus = check;
com.typemytype.robofont.Image.Brightness = 0;
com.typemytype.robofont.Image.Contrast = 1;
com.typemytype.robofont.Image.Saturation = 1;
com.typemytype.robofont.Image.Sharpness = 0.4;
};
width = 650;
}
);
unicode = 78;
}
{
glyphname = O;
kernLeft = O_left;
kernRight = O_right;
layers = (
{
anchors = (
{
name = bottom;
pos = (325,-1);
},
{
name = hook;
pos = (325,770);
},
{
name = horn;
pos = (450,680);
},
{
name = ogonek;
pos = (527,76);
},
{
name = tildeviet;
pos = (282,712);
},
{
name = top;
pos = (325,711);
}
);
background = {
shapes = (
{
closed = 1;
nodes = (
(149.164,720,o),
(50,583,o),
(50,342,cs),
(50,326,ls),
(50,103,o),
(148.411,-20,o),
(329,-20,cs),
(374,-20,o),
(404,28,o),
(404,98,c),
(252.02,98,o),
(200,171,o),
(200,309,cs),
(200,322,ls),
(200,502,o),
(238.438,571,o),
(323,571,cs),
(380,571,o),
(409,560,o),
(447,535,c),
(499,583,o),
(405.333,720,o),
(320,720,cs)
);
},
{
closed = 1;
nodes = (
(500.469,-20,o),
(600,117,o),
(600,358,cs),
(600,374,ls),
(600,597,o),
(501.236,720,o),
(320,720,cs),
(275,720,o),
(245,672,o),
(245,602,c),
(397.725,602,o),
(450,529,o),
(450,391,cs),
(450,378,ls),
(450,198,o),
(411.25,129,o),
(326,129,cs),
(269,129,o),
(240,140,o),
(202,165,c),
(150,117,o),
(243.667,-20,o),
(329,-20,cs)
);
}
);
};
layerId = m01;
shapes = (
{
closed = 1;
nodes = (
(152,720,o),
(50,588,o),
(50,342,cs),
(50,326,ls),
(50,93,o),
(156,-20,o),
(331,-20,c),
(491,-20,o),
(600,103,o),
(600,358,cs),
(600,374,ls),
(600,607,o),
(491,720,o),
(323,720,c)
);
},
{
closed = 1;
nodes = (
(200,324,ls),
(200,506,o),
(240,571,o),
(331,571,c),
(366,571,o),
(387,567,o),
(419,553,c),
(439,517,o),
(450,468,o),
(450,401,cs),
(450,388,ls),
(450,176,o),
(403,129,o),
(310,129,c),
(278,129,o),
(257,134,o),
(232,144,c),
(214,173,o),
(200,220,o),
(200,313,cs)
);
}
);
userData = {
com.arrowtype.glyphMarkStatus = check;
com.typemytype.robofont.Image.Brightness = 0;
com.typemytype.robofont.Image.Contrast = 1;
com.typemytype.robofont.Image.Saturation = 1;
com.typemytype.robofont.Image.Sharpness = 0.4;
com.typemytype.robofont.guideline.magnetic.0TVMkgilPa = 10;
com.typemytype.robofont.guideline.magnetic.0ZaB5aYwdC = 10;
com.typemytype.robofont.guideline.magnetic.69c5kt8Plu = 10;
com.typemytype.robofont.guideline.magnetic.7vH28cKxGM = 10;
com.typemytype.robofont.guideline.magnetic.8P5y2ZyRCF = 10;
com.typemytype.robofont.guideline.magnetic.BvwI1ea2uE = 10;
com.typemytype.robofont.guideline.magnetic.Bxq4RH5VfM = 10;
com.typemytype.robofont.guideline.magnetic.C4hhpiltkc = 10;
com.typemytype.robofont.guideline.magnetic.CzisnAAdHa = 10;
com.typemytype.robofont.guideline.magnetic.DGuTMwCc7r = 10;
com.typemytype.robofont.guideline.magnetic.FChh6Ha9tz = 10;
com.typemytype.robofont.guideline.magnetic.IuMOkSTath = 10;
com.typemytype.robofont.guideline.magnetic.Q2VWnuuEis = 10;
com.typemytype.robofont.guideline.magnetic.RDuvJ4Zmye = 10;
com.typemytype.robofont.guideline.magnetic.V95GcVXwP2 = 10;
com.typemytype.robofont.guideline.magnetic.VL836sPVOR = 10;
com.typemytype.robofont.guideline.magnetic.Vd93RPWmEu = 10;
com.typemytype.robofont.guideline.magnetic.WH592sIi9X = 10;
com.typemytype.robofont.guideline.magnetic.WnyNcTusyR = 10;
com.typemytype.robofont.guideline.magnetic.XUN8yquuDQ = 10;
com.typemytype.robofont.guideline.magnetic.YzIZ4G5uaL = 10;
com.typemytype.robofont.guideline.magnetic.ZK9HNs1mxF = 10;
com.typemytype.robofont.guideline.magnetic.Zhjt0ZmCb7 = 10;
com.typemytype.robofont.guideline.magnetic.bsY6LTDplF = 10;
com.typemytype.robofont.guideline.magnetic.d7xAenC4C9 = 10;
com.typemytype.robofont.guideline.magnetic.dvWpTETpZz = 10;
com.typemytype.robofont.guideline.magnetic.jJwsAowrqh = 10;
com.typemytype.robofont.guideline.magnetic.jlGEt9G7nn = 10;
com.typemytype.robofont.guideline.magnetic.lBwmu0U4Ls = 10;
com.typemytype.robofont.guideline.magnetic.mUGfpzc9E3 = 10;
com.typemytype.robofont.guideline.magnetic.qhp1ps9E1Y = 10;
com.typemytype.robofont.guideline.magnetic.r1lQlQqRI5 = 10;
com.typemytype.robofont.guideline.magnetic.sft7SzUKQq = 10;
com.typemytype.robofont.guideline.magnetic.vNX8jR40vY = 10;
};
width = 650;
}
);
unicode = 79;
}
{
glyphname = P;
kernLeft = E_left;
layers = (
{
anchors = (
{
name = bottom;
pos = (300,0);
},
{
name = top;
pos = (300,711);
}
);
layerId = m01;
shapes = (
{
closed = 1;
nodes = (
(237,31,o),
(235,65,o),
(235,96,c),
(235,222,o),
(235,346,o),
(235,472,c),
(235,515.489,o),
(224.08,544.953,o),
(197,561,c),
(207,591,l),
(75,591,l),
(75,428,o),
(75,266,o),
(75,103,cs),
(75,26,o),
(111,-6,o),
(193,-6,c),
(215,-6,o),
(228,-4,o),
(246,0,c)
);
},
{
closed = 1;
nodes = (
(17,683,o),
(15,666,o),
(15,643,cs),
(15,579,o),
(28,550,o),
(59,550,cs),
(81,550,o),
(168,570,o),
(282,570,c),
(329,570,o),
(362,563,o),
(388,549,c),
(391,535,o),
(392,520,o),
(392,503,cs),
(392,488,ls),
(392,353,o),
(351,300,o),
(288,300,cs),
(258,300,o),
(234,304,o),
(210,311,c),
(210,215,l),
(241,215,l),
(262,179,o),
(293,158,o),
(329,158,cs),
(445,158,o),
(550,264,o),
(550,492,cs),
(550,499,ls),
(550,619,o),
(443,720,o),
(295,720,c),
(205,720,o),
(106,714,o),
(21,700,c)
);
}
);
userData = {
com.arrowtype.glyphMarkStatus = fromComponents;
};
width = 600;
}
);
unicode = 80;
}
{
glyphname = Q;
kernLeft = O_left;
kernRight = O_right;
layers = (
{
anchors = (
{
name = bottom;
pos = (325,0);
},
{
name = top;
pos = (325,711);
}
);
background = {
shapes = (
{
closed = 1;
nodes = (
(365,97,o),
(349,66,o),
(365,35,cs),
(424,-77,ls),
(461,-147,o),
(501,-186,o),
(554,-186,cs),
(559,-186,ls),
(608,-186,o),
(639,-150,o),
(639,-72,cs),
(639,-40,o),
(636,-20,o),
(631,1,c),
(627,1,l),
(615,-6,o),
(607,-8,o),
(590,-8,cs),
(555,-8,o),
(541,3,o),
(525,31,cs),
(459,147,l)
);
}
);
};
layerId = m01;
shapes = (
{
closed = 1;
nodes = (
(388,66,l),
(395,8,o),
(410,-41,o),
(438,-98,cs),
(467,-155,o),
(507,-186,o),
(557,-186,cs),
(579,-186,o),
(595,-181,o),
(610,-166,c),
(627,-149,o),
(640,-113,o),
(640,-63,cs),
(640,-41,o),
(638,-22,o),
(633,-1,c),
(627,-1,l),
(615,-8,o),
(609,-10,o),
(592,-10,cs),
(563,-10,o),
(541,4,o),
(521,42,cs),
(506,70,o),
(497,100,o),
(493,132,c)
);
},
{
ref = O;
}
);
userData = {
com.arrowtype.glyphMarkStatus = check;
com.typemytype.robofont.Image.Brightness = 0;
com.typemytype.robofont.Image.Contrast = 1;
com.typemytype.robofont.Image.Saturation = 1;
com.typemytype.robofont.Image.Sharpness = 0.4;
};
width = 650;
}
);
unicode = 81;
}
{
glyphname = R;
kernLeft = E_left;
kernRight = R_right;
layers = (
{
anchors = (
{
name = bottom;
pos = (297,-1);
},
{
name = top;
pos = (297,711);
}
);
layerId = m01;
shapes = (
{
closed = 1;
nodes = (
(322,226,l),
(329,168,o),
(344,119,o),
(372,62,cs),
(402,3,o),
(444,-20,o),
(497,-20,cs),
(519,-20,o),
(535,-15,o),
(550,0,c),
(565,15,o),
(574,46,o),
(574,97,cs),
(574,119,o),
(572,138,o),
(567,159,c),
(561,159,l),
(549,152,o),
(543,150,o),
(526,150,cs),
(497,150,o),
(475,164,o),
(455,202,cs),
(440,230,o),
(431,260,o),
(427,292,c)
);
},
{
closed = 1;
nodes = (
(17,682,o),
(15,665,o),
(15,643,cs),
(15,581,o),
(28,550,o),
(59,550,cs),
(83,550,o),
(171,570,o),
(282,570,cs),
(321,570,o),
(348,566,o),
(375,556,c),
(380,538,o),
(382,522,o),
(382,503,cs),
(382,488,ls),
(382,371,o),
(336,316,o),
(266,316,cs),
(227,316,o),
(217,318,o),
(202,323,c),
(202,211,l),
(241,211,l),
(255,196,o),
(278,190,o),
(305,190,cs),
(420,190,o),
(540,306.226,o),
(540,498,cs),
(540,509,ls),
(540,605.508,o),
(467,720,o),
(278,720,cs),
(194,720,o),
(101,713,o),
(21,700,c)
);
},
{
closed = 1;
nodes = (
(237,31,o),
(235,65,o),
(235,96,c),
(235,222,o),
(235,346,o),
(235,472,c),
(235,515.489,o),
(224.08,544.953,o),
(197,561,c),
(207,591,l),
(75,591,l),
(75,428,o),
(75,266,o),
(75,103,cs),
(75,26,o),
(111,-6,o),
(193,-6,c),
(215,-6,o),
(228,-4,o),
(246,0,c)
);
}
);
userData = {
com.arrowtype.glyphMarkStatus = fromComponents;
};
width = 600;
}
);
unicode = 82;
}
{
glyphname = S;
kernLeft = S_left;
kernRight = S_right;
layers = (
{
anchors = (
{
name = bottom;
pos = (305,-1);
},
{
name = dot;
pos = (407,711);
},
{
name = top;
pos = (315,711);
}
);
background = {
shapes = (
{
closed = 1;
nodes = (
(214,720,o),
(75,581,o),
(75,447,cs),
(75,434,ls),
(75,376,o),
(103,324,o),
(257,267,cs),
(349,233,ls),
(392,217,o),
(420,191,o),
(420,158,cs),
(420,153,l),
(391,138,o),
(350,130,o),
(305,130,cs),
(200,130,o),
(125,161,o),
(68,218,c),
(62,218,l),
(58,203,o),
(55,182,o),
(55,156,cs),
(55,99,o),
(71,57,o),
(92,36,cs),
(124,4,o),
(210,-20,o),
(305,-20,cs),
(478,-20,o),
(555,51,o),
(555,162,cs),
(555,178,ls),
(555,227,o),
(529,293,o),
(398,340,cs),
(304,374,ls),
(246,395,o),
(227,410,o),
(225,441,cs),
(225,445,ls),
(225,506,o),
(312,570,o),
(375,570,c),
(394,570,o),
(404,567,o),
(421,557,c),
(400,609,l),
(389,555,o),
(380,525,o),
(380,501,cs),
(380,447,o),
(415,429,o),
(476,429,cs),
(498,429,o),
(517,434,o),
(530,439,c),
(530,470,o),
(530,506,o),
(530,541,c),
(530,590,o),
(523,631,o),
(489,665,cs),
(455,699,o),
(419,720,o),
(368,720,c)
);
}
);
};
layerId = m01;
shapes = (
{
closed = 1;
nodes = (
(214,720,o),
(75,597,o),
(75,463,cs),
(75,450,ls),
(75,392,o),
(103,324,o),
(257,267,cs),
(349,233,ls),
(395,216,o),
(426,193,o),
(426,168,c),
(426,163,l),
(402,139,o),
(372,130,o),
(305,130,cs),
(200,130,o),
(125,161,o),
(72,217,c),
(66,217,l),
(58,200,o),
(53,176,o),
(53,149,cs),
(53,93,o),
(63,65,o),
(88,40,cs),
(124,4,o),
(210,-20,o),
(305,-20,cs),
(478,-20,o),
(555,51,o),
(555,162,cs),
(555,178,ls),
(555,227,o),
(529,293,o),
(398,340,cs),
(304,374,ls),
(246,395,o),
(225,426,o),
(225,457,cs),
(225,461,ls),
(225,522,o),
(312,570,o),
(375,570,c),
(394,570,o),
(404,567,o),
(421,557,c),
(400,609,l),
(389,555,o),
(380,525,o),
(380,501,cs),
(380,447,o),
(415,429,o),
(476,429,cs),
(498,429,o),
(517,434,o),
(530,439,c),
(530,470,o),
(530,506,o),
(530,541,c),
(530,590,o),
(518,636,o),
(484,670,cs),
(450,704,o),
(419,720,o),
(358,720,c)
);
}
);
userData = {
com.arrowtype.glyphMarkStatus = fromComponents;
};
width = 600;
}
);
unicode = 83;
}
{
glyphname = T;
kernLeft = T_left;
kernRight = T_right;
layers = (
{
anchors = (
{
name = bottom;
pos = (300,13);
},
{
name = top;
pos = (296,711);
}
);
layerId = m01;
shapes = (
{
closed = 1;
nodes = (
(29,685,o),
(28,673,o),
(28,657,c),
(28,588,o),
(69,550,o),
(195,550,cs),
(558,550,l),
(562,565,o),
(566,585,o),
(566,608,cs),
(566,659,o),
(548,700,o),
(494,700,cs),
(32,700,l)
);
},
{
closed = 1;
nodes = (
(382,31,o),
(380,65,o),
(380,96,c),
(380,216,o),
(380,335,o),
(380,455,c),
(380,498,o),
(369,528,o),
(342,544,c),
(351,574,l),
(220,574,l),
(220,417,o),
(220,260,o),
(220,103,cs),
(220,26,o),
(256,-6,o),
(338,-6,c),
(360,-6,o),
(373,-4,o),
(391,0,c)
);
}
);
userData = {
com.arrowtype.glyphMarkStatus = fromComponents;
};
width = 600;
}
);
unicode = 84;
}
{
glyphname = U;
kernLeft = U_left;
kernRight = H_right;
layers = (
{
anchors = (
{
name = bottom;
pos = (322,-1);
},
{
name = hook;
pos = (323,770);
},
{
name = horn;
pos = (499,700);
},
{
name = ogonek;
pos = (606,0);
},
{
name = ring;
pos = (322,711);
},
{
name = tildeviet;
pos = (286,711);
},
{
name = top;
pos = (322,711);
}
);
background = {
shapes = (
{
closed = 1;
nodes = (
(61,667,o),
(65,630,o),
(65,589,cs),
(65,138,ls),
(65,96,o),
(114,83,o),
(191,83,c),
(223,295,o),
(244,412,o),
(244,549,cs),
(244,559,ls),
(244,675,o),
(198,709,o),
(116,709,cs),
(92,709,o),
(74,707,o),
(52,702,c)
);
},
{
closed = 1;
nodes = (
(271,-10,o),
(378,38,o),
(430,130,cs),
(466,197,o),
(483,212,o),
(429,291,c),
(379,192,o),
(302,160,o),
(231,160,cs),
(200,160,o),
(181,172,o),
(171,202,c),
(141,202,o),
(65,173,o),
(65,138,cs),
(65,72,o),
(142,-10,o),
(206,-10,cs)
);
},
{
closed = 1;
nodes = (
(586,28,o),
(585,64,o),
(585,101,cs),
(585,650,ls),
(585,691,o),
(547,709,o),
(470,709,cs),
(454,709,o),
(439,707,o),
(425,703,c),
(425,87,ls),
(425,55,o),
(432,37,o),
(451,18,cs),
(469,0,o),
(509,-10,o),
(549,-10,cs),
(567,-10,o),
(578,-9,o),
(593,-7,c)
);
}
);
};
layerId = m01;
shapes = (
{
closed = 1;
nodes = (
(592,32,o),
(586,64,o),
(586,101,cs),
(586,268,o),
(586,435,o),
(586,601,c),
(586,677,o),
(559,710,o),
(483,710,cs),
(465,710,o),
(445,707,o),
(430,700,c),
(430,609,o),
(430,518,o),
(430,177,cs),
(430,14,o),
(470,-8,o),
(536,-8,cs),
(562,-8,o),
(589,-5,o),
(605,0,c)
);
},
{
closed = 1;
nodes = (
(293,-10,o),
(378,23,o),
(424,157,c),
(468,157,l),
(468,341,l),
(408,218,o),
(315,160,o),
(236,160,cs),
(223,160,o),
(213,162,o),
(204,167,c),
(232,332,o),
(244,450,o),
(244,560,cs),
(244,676,o),
(199,710,o),
(117,710,cs),
(93,710,o),
(74,708,o),
(50,700,c),
(61,668,o),
(66,631,o),
(66,590,cs),
(66,455,o),
(66,310,o),
(66,175,cs),
(66,58,o),
(143,-10,o),
(218,-10,cs)
);
}
);
userData = {
com.arrowtype.glyphMarkStatus = check;
};
width = 650;
}
);
unicode = 85;
}
{
glyphname = V;
layers = (
{
anchors = (
{
name = bottom;
pos = (325,0);
},
{
name = top;
pos = (325,711);
}
);
background = {
shapes = (
{
closed = 1;
nodes = (
(49,710,l),
(60.002,365.941,o),
(124.388,153.612,o),
(241,37,cs),
(283,-5,o),
(317,-10,o),
(346,-10,cs),
(388,-10,o),
(414,14,o),
(432,77,c),
(429,77,o),
(427,77,o),
(425,77,cs),
(417,77,o),
(411,79,o),
(398,88,cs),
(281.165,169.583,o),
(227.007,278.856,o),
(209,660,cs),
(208,688,o),
(138,710,o),
(73,710,cs)
);
},
{
closed = 1;
nodes = (
(446,710,l),
(423,333,o),
(393,205,o),
(283,114,cs),
(256,92,o),
(286,-10,o),
(346,-10,cs),
(386,-10,l),
(511,95,o),
(584,325,o),
(600,636,cs),
(602,679,o),
(535,710,o),
(470,710,cs)
);
}
);
};
layerId = m01;
shapes = (
{
closed = 1;
nodes = (
(86,708,o),
(67,705,o),
(50,700,c),
(52,647,o),
(55,597,o),
(58,550,cs),
(77,274,o),
(134,99,o),
(203,33,cs),
(237,1,o),
(268,-10,o),
(310,-10,cs),
(339,-10,o),
(369,-8,o),
(395,-2,c),
(502,89,o),
(587,335,o),
(600,590,cs),
(605,679,o),
(566,708,o),
(501,708,c),
(483,708,o),
(464,705,o),
(444,700,c),
(444,418,o),
(403,275,o),
(321,120,c),
(363,129,l),
(278,129,l),
(324,120,l),
(251,256,o),
(227,368,o),
(217,591,cs),
(212,688,o),
(169,708,o),
(104,708,cs)
);
}
);
userData = {
com.arrowtype.glyphMarkStatus = check;
};
width = 650;
}
);
unicode = 86;
}
{
glyphname = W;
kernLeft = W_left;
kernRight = W_right;
layers = (
{
anchors = (
{
name = bottom;
pos = (471,0);
},
{
name = top;
pos = (470,711);
}
);
background = {
shapes = (
{
closed = 1;
nodes = (
(34,383,o),
(62,156,o),
(187,31,cs),
(214,4,o),
(241,-10,o),
(269,-10,cs),
(297,-10,ls),
(322,-10,o),
(334,20,o),
(334,70,c),
(235,128,o),
(202,305,o),
(201,660,cs),
(201,669,o),
(198,672,o),
(192,678,cs),
(170,700,o),
(109,710,o),
(61,710,cs),
(53,710,o),
(45,710,o),
(37,710,c)
);
},
{
closed = 1;
nodes = (
(706,363,o),
(674,192,o),
(576,114,cs),
(538,84,o),
(579,-10,o),
(639,-10,cs),
(679,-10,l),
(788,81,o),
(866,355,o),
(863,636,cs),
(863,646,o),
(863,654,o),
(857,660,cs),
(827,690,o),
(781,710,o),
(733,710,cs),
(725,710,o),
(717,710,o),
(709,710,c)
);
},
{
closed = 1;
nodes = (
(392,625,l),
(368,375,o),
(323,182,o),
(226,104,cs),
(195,79,o),
(228,-10,o),
(269,-10,cs),
(309,-10,l),
(409,74,o),
(478,324,o),
(499,536,cs),
(503,574,o),
(462,625,o),
(414,625,cs)
);
},
{
closed = 1;
nodes = (
(405,625,l),
(429,343,o),
(456,132,o),
(545,43,cs),
(582,6,o),
(609,-10,o),
(639,-10,cs),
(665,-10,ls),
(680,-10,o),
(689,29,o),
(689,70,c),
(576,136,o),
(549,271,o),
(522,575,cs),
(520,599,o),
(469,625,o),
(422,625,cs)
);
}
);
};
layerId = m01;
shapes = (
{
closed = 1;
nodes = (
(36,666,o),
(39,621,o),
(39,573,cs),
(41,218,o),
(124,87,o),
(208,12,cs),
(222,0,o),
(242,-8,o),
(268,-8,cs),
(291,-8,o),
(309,-4,o),
(318,0,c),
(382.161,76.007,o),
(442,202,o),
(476,365,c),
(439,333,l),
(504,333,l),
(467,365,l),
(493,206,o),
(549,88,o),
(611,26,cs),
(639,-2,o),
(648.853,-8,o),
(689,-8,cs),
(704.333,-8,o),
(722.264,-3.639,o),
(735,0,c),
(828,77,o),
(916,328,o),
(916,586,cs),
(916,687,o),
(891,708,o),
(816,708,c),
(798,708,o),
(777,705,o),
(758,700,c),
(764,428.017,o),
(732.229,231.34,o),
(664,130,c),
(709,160,l),
(643,160,l),
(691,138,l),
(620.172,238.755,o),
(572.519,427.661,o),
(556,622,cs),
(551.412,679.344,o),
(506.633,700,o),
(438,700,c),
(408,700,l),
(389.008,474.093,o),
(324.494,231.924,o),
(252,132,c),
(294,160,l),
(228,160,l),
(278,131,l),
(222,243,o),
(203,390,o),
(203,589,cs),
(203,681,o),
(180,708,o),
(93,708,c),
(75,708,o),
(55,705,o),
(30,700,c)
);
}
);
userData = {
com.arrowtype.glyphMarkStatus = check;
com.typemytype.robofont.guideline.magnetic.0YuyIBRwb2 = 10;
com.typemytype.robofont.guideline.magnetic.1MIk4D4lAG = 10;
com.typemytype.robofont.guideline.magnetic.6PlYCui24c = 10;
com.typemytype.robofont.guideline.magnetic.6f7FZiZZPB = 10;
com.typemytype.robofont.guideline.magnetic.8Fie42asLf = 10;
com.typemytype.robofont.guideline.magnetic.CQJfp1kxmo = 10;
com.typemytype.robofont.guideline.magnetic.JmaLoQOzFa = 10;
com.typemytype.robofont.guideline.magnetic.Jzs1tHHrj6 = 10;
com.typemytype.robofont.guideline.magnetic.KC3T6RpBXG = 10;
com.typemytype.robofont.guideline.magnetic.L7Dqve5e8g = 10;
com.typemytype.robofont.guideline.magnetic.LLGHlVlyo2 = 10;
com.typemytype.robofont.guideline.magnetic.QiJnD3pXpa = 10;
com.typemytype.robofont.guideline.magnetic.Rl5rf3KBeL = 10;
com.typemytype.robofont.guideline.magnetic.UG4KZvvlh7 = 10;
com.typemytype.robofont.guideline.magnetic.UnwPALcjdy = 10;
com.typemytype.robofont.guideline.magnetic.W3l6aZWJH8 = 10;
com.typemytype.robofont.guideline.magnetic.Xe0Z8ZzHDD = 10;
com.typemytype.robofont.guideline.magnetic.XyHwi5UHBn = 10;
com.typemytype.robofont.guideline.magnetic.Y42AffKFLq = 10;
com.typemytype.robofont.guideline.magnetic.ac2ySEHiAm = 10;
com.typemytype.robofont.guideline.magnetic.ak45EWw8UB = 10;
com.typemytype.robofont.guideline.magnetic.ap63tuvV8W = 10;
com.typemytype.robofont.guideline.magnetic.c0ZpDPTgDE = 10;
com.typemytype.robofont.guideline.magnetic.d4ACNy4nIk = 10;
com.typemytype.robofont.guideline.magnetic.ifNpm5F5uf = 10;
com.typemytype.robofont.guideline.magnetic.j8fRZHBYr2 = 10;
com.typemytype.robofont.guideline.magnetic.jJkx8FucAF = 10;
com.typemytype.robofont.guideline.magnetic.jpyDCbFkHx = 10;
com.typemytype.robofont.guideline.magnetic.lGruCdHo65 = 10;
com.typemytype.robofont.guideline.magnetic.lSoQNsqIJF = 10;
com.typemytype.robofont.guideline.magnetic.mZtbYKqKNx = 10;
com.typemytype.robofont.guideline.magnetic.mxf07NtQBE = 10;
com.typemytype.robofont.guideline.magnetic.nN0CN9Lfh7 = 10;
com.typemytype.robofont.guideline.magnetic.nqxGfXXpYy = 10;
com.typemytype.robofont.guideline.magnetic.qgsKRQjdua = 10;
com.typemytype.robofont.guideline.magnetic.qnsALG9etJ = 10;
com.typemytype.robofont.guideline.magnetic.rZTDaDez1y = 10;
com.typemytype.robofont.guideline.magnetic.wGN2U6mBbc = 10;
com.typemytype.robofont.guideline.magnetic.zSHWNb4m3j = 10;
};
width = 950;
}
);
unicode = 87;
}
{
glyphname = X;
kernRight = K_right;
layers = (
{
anchors = (
{
name = bottom;
pos = (300,0);
},
{
name = top;
pos = (300,711);
}
);
background = {
shapes = (
{
closed = 1;
nodes = (
(594,-10,o),
(614,-7,o),
(634,-1,c),
(562,77,o),
(474,203,o),
(396,332,cs),
(386,349,o),
(376,366,o),
(366,383,cs),
(308,483,o),
(257,582,o),
(226,658,cs),
(209,699,o),
(152,710,o),
(38,710,cs),
(14,710,l),
(69,596,o),
(157,439,o),
(245,297,cs),
(255,282,o),
(264,266,o),
(274,251,cs),
(327,169,o),
(378,95,o),
(422,41,cs),
(453,3,o),
(501,-10,o),
(564,-10,cs)
);
},
{
closed = 1;
nodes = (
(463,710,l),
(430,552,o),
(388,454,o),
(331,386,cs),
(293,340,o),
(327,275,o),
(397,275,c),
(522,393,o),
(573,497,o),
(616,641,cs),
(620,655,o),
(618,663,o),
(611,670,cs),
(583,698,o),
(533,710,o),
(487,710,cs)
);
},
{
closed = 1;
nodes = (
(187,-10,l),
(213,93,o),
(253,166,o),
(311,227,cs),
(342,260,o),
(321,352,o),
(261,362,c),
(143,251,o),
(76,152,o),
(32,61,cs),
(25,46,o),
(29,37,o),
(36,30,cs),
(64,2,o),
(117,-10,o),
(163,-10,cs)
);
}
);
};
layerId = m01;
shapes = (
{
closed = 1;
nodes = (
(539,-12,o),
(566,-8,o),
(584,0,c),
(513,82,o),
(440,201,o),
(374,324,c),
(335,400,l),
(290,492,o),
(266,545,o),
(236,629,cs),
(215,690,o),
(171,708,o),
(91,708,c),
(66,708,o),
(43,706,o),
(17,700,c),
(64,585,o),
(138,433,o),
(217,292,c),
(256,223,l),
(295,156,o),
(334,94,o),
(372,41,cs),
(401,1,o),
(436,-12,o),
(515,-12,cs)
);
},
{
closed = 1;
nodes = (
(441,708,o),
(426,706,o),
(408,700,c),
(387,577,o),
(364,490,o),
(331,422,c),
(278,422,l),
(363,281,l),
(466,389,o),
(524,496,o),
(553,595,cs),
(581,689,o),
(526,708,o),
(464,708,cs)
);
},
{
closed = 1;
nodes = (
(157,-8,o),
(184,-5,o),
(202,0,c),
(213,75,o),
(232,146,o),
(261,205,c),
(302,205,l),
(228,340,l),
(130,240,o),
(73,161,o),
(44,94,cs),
(13,22,o),
(68,-8,o),
(135,-8,c)
);
}
);
userData = {
com.arrowtype.glyphMarkStatus = check;
com.typemytype.robofont.Image.Brightness = 0;
com.typemytype.robofont.Image.Contrast = 1;
com.typemytype.robofont.Image.Saturation = 1;
com.typemytype.robofont.Image.Sharpness = 0.4;
};
width = 600;
}
);
unicode = 88;
}
{
glyphname = Y;
kernLeft = Y_left;
kernRight = Y_right;
layers = (
{
anchors = (
{
name = bottom;
pos = (325,-1);
},
{
name = dot;
pos = (322,-146);
},
{
name = hook;
pos = (319,770);
},
{
name = top;
pos = (320,712);
}
);
background = {
shapes = (
{
closed = 1;
nodes = (
(70,475,o),
(116.334,325.666,o),
(205,237,cs),
(247,195,o),
(281,190,o),
(310,190,cs),
(357.535,190,o),
(385,204.156,o),
(385,281,c),
(280.203,341.03,o),
(238.697,431.549,o),
(214,660,cs),
(211,688.005,o),
(137.929,710,o),
(72,710,cs),
(48,710,l)
);
},
{
closed = 1;
nodes = (
(373.335,472.018,o),
(346,383,o),
(247,302,cs),
(221,281,o),
(250,190,o),
(310,190,cs),
(350,190,l),
(448,273,o),
(529,442,o),
(547,636,cs),
(551,678.992,o),
(483.5,710,o),
(420,710,cs),
(396,710,l)
);
},
{
closed = 1;
nodes = (
(384,33,o),
(380,70,o),
(380,110,cs),
(380,253,ls),
(380,291,o),
(312,320,o),
(220,320,c),
(220,60,ls),
(220,35,o),
(224,23,o),
(235,12,cs),
(251,-4,o),
(276,-10,o),
(326,-10,cs),
(351,-10,o),
(370,-8,o),
(393,-3,c)
);
}
);
};
layerId = m01;
shapes = (
{
closed = 1;
nodes = (
(404,33,o),
(400,70,o),
(400,110,cs),
(400,158,o),
(400,205,o),
(400,253,c),
(240,253,l),
(240,199,o),
(240,144,o),
(240,90,cs),
(240,29,o),
(264,-8,o),
(348,-8,cs),
(373,-8,o),
(390,-5,o),
(416,0,c)
);
},
{
closed = 1;
nodes = (
(72,473,o),
(136,325,o),
(224,237,cs),
(267,194,o),
(301,190,o),
(370,190,c),
(468,273,o),
(569,442,o),
(587,636,cs),
(591,679,o),
(556,708,o),
(500,708,cs),
(478,708,o),
(457,706,o),
(436,700,c),
(419,525,o),
(383,423,o),
(306,304,c),
(354,332,l),
(284,332,l),
(330,303,l),
(264,412,o),
(234,508,o),
(223,602,cs),
(213,688,o),
(189,708,o),
(114,708,cs),
(92,708,o),
(71,706,o),
(50,700,c)
);
}
);
userData = {
com.arrowtype.glyphMarkStatus = check;
};
width = 650;
}
);
unicode = 89;
}
{
glyphname = Z;
kernLeft = Z_left;
kernRight = Z_right;
layers = (
{
anchors = (
{
name = bottom;
pos = (300,0);
},
{
name = top;
pos = (300,711);
}
);
layerId = m01;
shapes = (
{
closed = 1;
nodes = (
(549,8,o),
(550,18,o),
(550,31,cs),
(550,100,o),
(532,150,o),
(465,150,cs),
(400,150,ls),
(352,150,o),
(298,149,o),
(209,140,c),
(239,121,l),
(239,178,l),
(213,128,l),
(256,163,o),
(302,203,o),
(344,246,cs),
(455,356,o),
(549,478,o),
(550,535,cs),
(550,544,ls),
(550,658,o),
(531,700,o),
(478,700,cs),
(110,700,l),
(92,645,o),
(114,555,o),
(177,555,cs),
(278,555,ls),
(335,555,o),
(373,560,o),
(419,575,c),
(390,599,l),
(390,519,l),
(406,593,l),
(377,536,o),
(349,485,o),
(318,438,cs),
(246,327,o),
(164,238,o),
(50,140,c),
(50,125,ls),
(50,47,o),
(71,0,o),
(141,0,c),
(547,0,l)
);
},
{
closed = 1;
nodes = (
(208,606,o),
(233,648,o),
(233,711,cs),
(233,740,o),
(199,760,o),
(108,760,c),
(79,701,o),
(60,630,o),
(60,556,cs),
(60,510,o),
(83,494,o),
(150,494,cs),
(173,494,o),
(193,496,o),
(208,500,c)
);
}
);
userData = {
com.arrowtype.glyphMarkStatus = fromComponents;
};
width = 600;
}
);
unicode = 90;
}
{
glyphname = a;
kernLeft = a_left;
kernRight = a_right;
layers = (
{
anchors = (
{
name = bottom;
pos = (301,-1);
},
{
name = hook;
pos = (301,584);
},
{
name = ogonek;
pos = (509,0);
},
{
name = top;
pos = (290,551);
}
);
layerId = m01;
shapes = (
{
closed = 1;
nodes = (
(515,441,o),
(435,550,o),
(297,550,cs),
(187,550,o),
(147,540,o),
(123,516,cs),
(104,497,o),
(95,466,o),
(95,435,cs),
(95,418,o),
(97,399,o),
(100,386,c),
(106,386,l),
(160,402,o),
(200,407,o),
(261,407,cs),
(307,407,o),
(340,403,o),
(379,388,c),
(363,317,o),
(355,267,o),
(355,230,cs),
(355,204,o),
(355,179,o),
(355,153,c),
(355,88,o),
(409,-6,o),
(482,-6,cs),
(502,-6,o),
(524,2,o),
(547,25,cs),
(569,47,o),
(585,93,o),
(585,133,c),
(585,144,o),
(584,149,o),
(582,158,c),
(576,158,l),
(563,146,o),
(547,142,o),
(534,142,cs),
(528,142,o),
(519,144,o),
(515,147,c),
(515,162,o),
(515,177,o),
(515,193,cs),
(515,246,o),
(515,300,o),
(515,354,cs)
);
},
{
closed = 1;
nodes = (
(203,161,ls),
(203,179,o),
(205,196,o),
(209,216,c),
(226,222,o),
(245,225,o),
(266,225,cs),
(311,225,o),
(373,218,o),
(427,205,c),
(427,244,o),
(415,266,o),
(403,278,cs),
(379,302,o),
(306,317,o),
(219,317,cs),
(129,317,o),
(43,227,o),
(43,158,cs),
(43,150,ls),
(43,42,o),
(99,-10,o),
(198,-10,cs),
(272,-10,o),
(337,44,o),
(361,96,c),
(376,96,l),
(367,178,l),
(333,136,o),
(288,119,o),
(251,119,cs),
(211,119,o),
(203,127,o),
(203,159,cs)
);
}
);
userData = {
com.arrowtype.glyphMarkStatus = fromComponents;
};
width = 600;
}
);
unicode = 97;
}
{
glyphname = b;
kernLeft = h_left;
kernRight = o_right;
layers = (
{
anchors = (
{
name = bottom;
pos = (300,-1);
},
{
name = top;
pos = (300,730);
}
);
layerId = m01;
shapes = (
{
closed = 1;
nodes = (
(202.26,41.591,o),
(215,106.277,o),
(215,157,cs),
(215,298.92,o),
(215,431.441,o),
(215,579,cs),
(215,716,o),
(155,756,o),
(90,756,cs),
(75,756,o),
(60,753,o),
(45,750,c),
(59,726,o),
(65,684,o),
(65,651,cs),
(65,465,o),
(65,352,o),
(65,155,cs),
(65,74,o),
(87.685,-3,o),
(163,-3,cs),
(171,-3,o),
(180,-3,o),
(188,0,c)
);
},
{
closed = 1;
nodes = (
(213,74,l),
(236,33,o),
(291,-12,o),
(350,-12,cs),
(449,-12,o),
(560,85,o),
(560,322,cs),
(560,344,ls),
(560,456,o),
(483,552,o),
(405,552,cs),
(329,552,o),
(253,478,o),
(221,392,c),
(202,392,l),
(202,204,l),
(245,343,o),
(305,391,o),
(386,391,cs),
(389,391,o),
(393,391,o),
(397,390,c),
(403,375,o),
(405,352,o),
(405,310,cs),
(405,299,ls),
(405,191,o),
(369,132,o),
(295,132,cs),
(253,132,o),
(214,156,o),
(190,181,c),
(190,74,l)
);
}
);
userData = {
com.arrowtype.glyphMarkStatus = fromComponents;
com.typemytype.robofont.Image.Brightness = 0;
com.typemytype.robofont.Image.Contrast = 1;
com.typemytype.robofont.Image.Saturation = 1;
com.typemytype.robofont.Image.Sharpness = 0.4;
};
width = 600;
}
);
unicode = 98;
}
{
glyphname = c;
kernLeft = o_left;
kernRight = c_right;
layers = (
{
anchors = (
{
name = bottom;
pos = (291,-1);
},
{
name = top;
pos = (288,551);
}
);
background = {
shapes = (
{
closed = 1;
nodes = (
(152,570,o),
(50,445,o),
(50,275,cs),
(50,265,ls),
(50,181,o),
(67,104,o),
(124,47,cs),
(153,18,o),
(233,13,o),
(261,41,c),
(219,95,o),
(200,160,o),
(200,234,cs),
(200,252,ls),
(200,360,o),
(241,420,o),
(308,420,cs),
(363,420,o),
(382,406,o),
(406,382,c),
(458,434,o),
(469,474,o),
(434,509,cs),
(384,559,o),
(359,570,o),
(299,570,cs)
);
},
{
closed = 1;
nodes = (
(382,-20,o),
(432,10,o),
(445,23,cs),
(461,39,o),
(485,101,o),
(485,166,cs),
(485,183,l),
(481,183,l),
(421,145,o),
(377,127,o),
(285,127,cs),
(220,127,o),
(165,151,o),
(115,185,c),
(79,149,o),
(91,80,o),
(124,47,cs),
(175,-4,o),
(228,-20,o),
(301,-20,cs),
(319,-20,ls)
);
},
{
closed = 1;
nodes = (
(485,385,ls),
(485,429,o),
(479,464,o),
(434,509,cs),
(393,550,o),
(347,554,o),
(310,517,c),
(331,496,o),
(335,475,o),
(335,437,cs),
(335,375,ls),
(335,368,o),
(336,365,o),
(343,358,cs),
(369,332,o),
(414,320,o),
(469,320,cs),
(485,320,l)
);
}
);
};
layerId = m01;
shapes = (
{
closed = 1;
nodes = (
(164,552,o),
(50,433,o),
(50,259,cs),
(50,245,ls),
(50,61,o),
(163,-12,o),
(302,-12,cs),
(367,-12,o),
(414,-1,o),
(434,19,cs),
(456,41,o),
(466,79,o),
(466,130,cs),
(466,152,o),
(465,165,o),
(462,180,c),
(456,180,l),
(409,145,o),
(369,133,o),
(311,133,cs),
(273,133,o),
(240,140,o),
(211,157,c),
(204,179,o),
(200,205,o),
(200,232,cs),
(200,243,ls),
(200,332,o),
(243,398,o),
(321,398,cs),
(371,398,o),
(398,390,o),
(436,363,c),
(442,363,l),
(454,389,o),
(459,416,o),
(459,451,cs),
(459,491,o),
(451,509,o),
(435,525,cs),
(418,542,o),
(382,552,o),
(331,552,cs)
);
}
);
userData = {
com.arrowtype.glyphMarkStatus = check;
com.typemytype.robofont.Image.Brightness = 0;
com.typemytype.robofont.Image.Contrast = 1;
com.typemytype.robofont.Image.Saturation = 1;
com.typemytype.robofont.Image.Sharpness = 0.4;
};
width = 500;
},
{
associatedMasterId = m01;
layerId = "949437E7-0BA8-4898-893A-6E17BCD04A6F";
name = 45degrees;
shapes = (
{
closed = 1;
nodes = (
(165,552,o),
(51,437,o),
(51,269,cs),
(51,259,ls),
(51,171,o),
(61,113,o),
(119,55,cs),
(150,24,o),
(211,26,o),
(261,76,c),
(217,133,o),
(201,186,o),
(201,242,cs),
(201,250,ls),
(201,336,o),
(244,398,o),
(322,398,cs),
(372,398,o),
(401,390,o),
(439,363,c),
(443,363,l),
(455,389,o),
(460,416,o),
(460,451,cs),
(460,491,o),
(452,509,o),
(436,525,cs),
(419,542,o),
(383,552,o),
(332,552,cs)
);
},
{
closed = 1;
nodes = (
(368,-12,o),
(415,-1,o),
(435,19,cs),
(457,41,o),
(467,79,o),
(467,130,cs),
(467,152,o),
(466,165,o),
(463,180,c),
(459,180,l),
(412,145,o),
(370,133,o),
(304,133,cs),
(239,133,o),
(208,158,o),
(154,235,c),
(96,181,o),
(73,101,o),
(119,55,cs),
(171,3,o),
(222,-12,o),
(303,-12,cs)
);
}
);
width = 600;
},
{
associatedMasterId = m01;
layerId = "5B05A6EE-714F-4BA1-A4F1-E0943FFE334F";
name = "old-sans";
shapes = (
{
closed = 1;
nodes = (
(165,552,o),
(51,432.936,o),
(51,259,cs),
(51,245,ls),
(51,61,o),
(164,-12,o),
(303,-12,cs),
(337,-12,o),
(335,13,o),
(335,51,c),
(239.204,70.958,o),
(201,142.921,o),
(201,232,cs),
(201,243,ls),
(201,332,o),
(244,398,o),
(322,398,cs),
(372,398,o),
(401,390,o),
(439,363,c),
(443,363,l),
(455,389,o),
(460,416,o),
(460,451,cs),
(460,491,o),
(452,509,o),
(436,525,cs),
(419,542,o),
(383,552,o),
(332,552,cs)
);
},
{
closed = 1;
nodes = (
(368,-12,o),
(415,-1,o),
(435,19,cs),
(457,41,o),
(467,79,o),
(467,130,cs),
(467,152,o),
(466,165,o),
(463,180,c),
(459,180,l),
(412,145,o),
(370,133,o),
(312,133,cs),
(248,133,o),
(198,153,o),
(156,206,c),
(84,110,o),
(163,-12,o),
(303,-12,cs)
);
}
);
width = 500;
}
);
unicode = 99;
}
{
glyphname = d;
kernLeft = o_left;
kernRight = H_right;
layers = (
{
anchors = (
{
name = bottom;
pos = (272,0);
},
{
name = caronslovak;
pos = (649,711);
},
{
name = top;
pos = (300,730);
}
);
layerId = m01;
shapes = (
{
closed = 1;
nodes = (
(151,552,o),
(40,455,o),
(40,218,cs),
(40,196,ls),
(40,84,o),
(117,-12,o),
(195,-12,cs),
(271,-12,o),
(347,62,o),
(379,148,c),
(396,148,l),
(396,334,l),
(355,197,o),
(295,149,o),
(214,149,cs),
(210,149,o),
(206,149,o),
(201,150,c),
(196,169,o),
(195,191,o),
(195,230,cs),
(195,241,ls),
(195,349,o),
(231,408,o),
(305,408,cs),
(348,408,o),
(378,394,o),
(402,368,c),
(402,472,l),
(380,472,l),
(360,513,o),
(311,552,o),
(250,552,cs)
);
},
{
closed = 1;
nodes = (
(395,756,o),
(380,753,o),
(365,750,c),
(379,726,o),
(385,684,o),
(385,651,cs),
(385,465,o),
(385,352,o),
(385,155,cs),
(385,74,o),
(414,-7,o),
(497,-7,cs),
(517,-7,o),
(532,-3,o),
(552,1,c),
(539,42,o),
(535,80,o),
(535,120,cs),
(535,272,o),
(535,419,o),
(535,579,cs),
(535,716,o),
(475,756,o),
(410,756,cs)
);
}
);
userData = {
com.arrowtype.glyphMarkStatus = fromComponents;
};
width = 600;
}
);
unicode = 100;
}
{
glyphname = e;
kernLeft = e_left;
kernRight = e_right;
layers = (
{
anchors = (
{
name = bottom;
pos = (300,-1);
},
{
name = hook;
pos = (317,584);
},
{
name = ogonek;
pos = (476,19);
},
{
name = top;
pos = (320,551);
}
);
layerId = m01;
shapes = (
{
closed = 1;
nodes = (
(163,556,o),
(50,430,o),
(50,266,cs),
(50,263,ls),
(50,95,o),
(167,-16,o),
(338,-16,cs),
(401,-16,o),
(463,-5,o),
(495,27,cs),
(518,50,o),
(530,77,o),
(530,123,cs),
(530,135,o),
(529,148,o),
(526,161,c),
(520,161,l),
(465,133,o),
(402,121,o),
(339,121,cs),
(282,121,o),
(245,126,o),
(214,140,c),
(205,164,o),
(200,193,o),
(200,231,cs),
(200,234,ls),
(200,366,o),
(254,429,o),
(336,429,cs),
(361,429,o),
(370,427,o),
(385,422,c),
(399,399,o),
(404,371,o),
(404,344,cs),
(404,337,o),
(403,326,o),
(401,318,c),
(190,318,l),
(184,254,l),
(206,264,l),
(227,244,o),
(264,231,o),
(308,231,c),
(516,231,l),
(534,231,o),
(551,238,o),
(551,320,cs),
(551,325,ls),
(551,461,o),
(465,556,o),
(324,556,cs)
);
}
);
userData = {
com.arrowtype.glyphMarkStatus = fromComponents;
};
width = 600;
}
);
unicode = 101;
}
{
glyphname = f;
kernLeft = f_left;
kernRight = f_right;
layers = (
{
anchors = (
{
name = bottom;
pos = (200,-1);
},
{
name = top;
pos = (200,730);
}
);
layerId = m01;
shapes = (
{
closed = 1;
nodes = (
(15,534,o),
(15,528,o),
(15,521,cs),
(15,421,o),
(43,390,o),
(162,390,cs),
(360,390,l),
(364,407,o),
(367,430,o),
(367,453,cs),
(367,519,o),
(343,540,o),
(264,540,cs),
(15,540,l)
);
},
{
closed = 1;
nodes = (
(245,175,o),
(245,459,o),
(245,540,c),
(238,567,o),
(228,596,o),
(228,622,c),
(246,625,o),
(264,628,o),
(280,628,cs),
(324,628,o),
(360,620,o),
(378,612,c),
(384,612,l),
(389,629,o),
(391,649,o),
(391,667,cs),
(391,699,o),
(385,728,o),
(367,746,cs),
(353,760,o),
(337,770,o),
(299,770,cs),
(168,770,o),
(95,671,o),
(95,544,cs),
(95,402,o),
(95,250,o),
(95,108,c),
(95,68,o),
(86,30,o),
(75,0,c),
(88,-5,o),
(105,-10,o),
(136,-10,c),
(208,-10,o),
(245,16,o),
(245,85,c)
);
}
);
userData = {
com.arrowtype.glyphMarkStatus = check;
com.typemytype.robofont.Image.Brightness = 0;
com.typemytype.robofont.Image.Contrast = 1;
com.typemytype.robofont.Image.Saturation = 1;
com.typemytype.robofont.Image.Sharpness = 0.4;
com.typemytype.robofont.guideline.magnetic.3Vn1IT2Kin = 10;
com.typemytype.robofont.guideline.magnetic.4UOPtDq6xL = 10;
com.typemytype.robofont.guideline.magnetic.93ApcVdMNy = 10;
com.typemytype.robofont.guideline.magnetic.9TjuHSIkMS = 10;
com.typemytype.robofont.guideline.magnetic.ATjMVsBMBF = 10;
com.typemytype.robofont.guideline.magnetic.B9RyXSzF37 = 10;
com.typemytype.robofont.guideline.magnetic.GZQUnRCdoF = 10;
com.typemytype.robofont.guideline.magnetic.GuqAv4osSh = 10;
com.typemytype.robofont.guideline.magnetic.IeZ4CwngVq = 10;
com.typemytype.robofont.guideline.magnetic.JfGLzX3w0v = 10;
com.typemytype.robofont.guideline.magnetic.LtZjloRTKo = 10;
com.typemytype.robofont.guideline.magnetic.NrrSRUi89b = 10;
com.typemytype.robofont.guideline.magnetic.RXmhmwGFhw = 10;
com.typemytype.robofont.guideline.magnetic.T9PqIrrE7I = 10;
com.typemytype.robofont.guideline.magnetic.VEmvmMX3jg = 10;
com.typemytype.robofont.guideline.magnetic.Wy2D9XJQmN = 10;
com.typemytype.robofont.guideline.magnetic.X8t60EcxoC = 10;
com.typemytype.robofont.guideline.magnetic.bjqcCeBLas = 10;
com.typemytype.robofont.guideline.magnetic.fYnaSc1n4p = 10;
com.typemytype.robofont.guideline.magnetic.gfkfJcLtbj = 10;
com.typemytype.robofont.guideline.magnetic.j9DWyDuaOl = 10;
com.typemytype.robofont.guideline.magnetic.kD3u0MpAPx = 10;
com.typemytype.robofont.guideline.magnetic.mPoJ2TIkkN = 10;
com.typemytype.robofont.guideline.magnetic.o6BZXyQLfr = 10;
com.typemytype.robofont.guideline.magnetic.otRgOGhTZ7 = 10;
com.typemytype.robofont.guideline.magnetic.qsdeVzZb2H = 10;
com.typemytype.robofont.guideline.magnetic.qwzOIIXFlF = 10;
com.typemytype.robofont.guideline.magnetic.rgMSGVWqVO = 10;
com.typemytype.robofont.guideline.magnetic.vpJqdaViT9 = 10;
com.typemytype.robofont.guideline.magnetic.ySelXGLPfB = 10;
};
width = 400;
},
{
associatedMasterId = m01;
layerId = "22B1AF58-A88F-420C-9CEF-C4593BB17F38";
name = 45degrees;
shapes = (
{
closed = 1;
nodes = (
(268,27,o),
(265,61,o),
(265,96,cs),
(265,520,l),
(249,571,o),
(238,658,o),
(238,726,c),
(200,733,o),
(182,733,o),
(162,713,cs),
(115,666,o),
(105,636,o),
(105,568,cs),
(105,56,ls),
(105,11,o),
(148,-6,o),
(258,-6,cs),
(264,-6,o),
(269,-6,o),
(275,-6,c)
);
},
{
closed = 1;
nodes = (
(213,625,o),
(253,635,o),
(290,635,cs),
(351,635,o),
(402,621,o),
(428,610,c),
(432,610,l),
(436,625,o),
(437,642,o),
(437,658,cs),
(437,690,o),
(429,726,o),
(411,744,cs),
(396,759,o),
(356,770,o),
(309,770,cs),
(307,770,ls),
(248,770,o),
(205,756,o),
(162,713,cs),
(131,682,o),
(132,632,o),
(173,607,c)
);
},
{
closed = 1;
nodes = (
(35,514,o),
(35,508,o),
(35,501,cs),
(35,450,o),
(44,420,o),
(62,402,cs),
(84,380,o),
(104,370,o),
(171,370,cs),
(323,370,o),
(286,370,o),
(410,370,c),
(414,387,o),
(417,410,o),
(417,433,cs),
(417,499,o),
(400,520,o),
(344,520,cs),
(282,520,o),
(185,520,o),
(35,520,c)
);
}
);
width = 600;
},
{
associatedMasterId = m01;
layerId = "3B234808-7B82-4690-9BFD-27A47E2E0828";
name = overlap;
shapes = (
{
closed = 1;
nodes = (
(248,33,o),
(245,67,o),
(245,102,cs),
(245,540,l),
(232,576,o),
(226,615,o),
(226,661,cs),
(226,699,o),
(251,726,o),
(302,724,c),
(302,748,o),
(293,770,o),
(265,770,cs),
(160,770,o),
(85,695,o),
(85,588,cs),
(85,56,ls),
(85,11,o),
(125,-6,o),
(199,-6,cs),
(217,-6,o),
(239,-4,o),
(255,0,c)
);
},
{
closed = 1;
nodes = (
(184,626,o),
(219,635,o),
(264,635,cs),
(305,635,o),
(348,626,o),
(384,612,c),
(388,612,l),
(392,627,o),
(393,644,o),
(393,660,cs),
(393,701,o),
(388,725,o),
(367,746,cs),
(353,760,o),
(321,770,o),
(265,770,cs),
(163,770,o),
(108,681,o),
(153,607,c)
);
},
{
closed = 1;
nodes = (
(15,534,o),
(15,528,o),
(15,521,cs),
(15,470,o),
(24,440,o),
(42,422,cs),
(64,400,o),
(84,390,o),
(151,390,cs),
(245,390,o),
(284,390,o),
(360,390,c),
(364,407,o),
(367,430,o),
(367,453,cs),
(367,519,o),
(350,540,o),
(294,540,cs),
(252,540,o),
(117,540,o),
(15,540,c)
);
}
);
width = 400;
},
{
associatedMasterId = m01;
layerId = "0095CC87-AC1B-434C-BD60-D12CA3DD617F";
name = "old-sans";
shapes = (
{
closed = 1;
nodes = (
(15,534,o),
(15,528,o),
(15,521,cs),
(15,421,o),
(43,390,o),
(162,390,cs),
(360,390,l),
(364,407,o),
(367,430,o),
(367,453,cs),
(367,519,o),
(343,540,o),
(264,540,cs),
(15,540,l)
);
},
{
closed = 1;
nodes = (
(245,175,o),
(245,459,o),
(245,540,c),
(238,567,o),
(228,596,o),
(228,622,c),
(246,625,o),
(264,628,o),
(280,628,cs),
(324,628,o),
(360,620,o),
(378,612,c),
(384,612,l),
(389,629,o),
(391,649,o),
(391,667,cs),
(391,699,o),
(385,728,o),
(367,746,cs),
(353,760,o),
(337,770,o),
(299,770,cs),
(168,770,o),
(95,671,o),
(95,544,cs),
(95,402,o),
(95,250,o),
(95,108,cs),
(95,68,o),
(86,30,o),
(75,0,c),
(88,-5,o),
(105,-10,o),
(136,-10,cs),
(208,-10,o),
(245,16,o),
(245,85,cs)
);
}
);
width = 400;
}
);
unicode = 102;
}
{
glyphname = g;
kernLeft = g_left;
kernRight = g_right;
layers = (
{
anchors = (
{
name = bottom;
pos = (300,-251);
},
{
name = top;
pos = (311,551);
}
);
layerId = m01;
shapes = (
{
closed = 1;
nodes = (
(125,-2,o),
(183,-50,o),
(271,-57,cs),
(388,-66,ls),
(405,-67,o),
(415,-77,o),
(415,-94,cs),
(415,-106,ls),
(415,-120,o),
(413,-131,o),
(405,-144,c),
(366,-152,o),
(319,-155,o),
(264,-155,cs),
(251,-155,ls),
(193,-155,o),
(168,-143,o),
(168,-103,cs),
(168,-92,ls),
(168,-56,o),
(180,-38,o),
(214,-15,c),
(142,24,l),
(142,0,l),
(66,-5,o),
(18,-48,o),
(18,-106,cs),
(18,-119,ls),
(18,-201,o),
(92,-250,o),
(233,-250,cs),
(242,-250,ls),
(445,-250,o),
(563,-188,o),
(563,-72,cs),
(563,-55,ls),
(563,21,o),
(507,63,o),
(435,68,cs),
(297,78,ls),
(276,80,o),
(263,94,o),
(263,113,cs),
(263,137,o),
(266,153,o),
(275,172,c),
(199,179,l),
(199,164,l),
(149,146,o),
(125,108,o),
(125,63,cs)
);
},
{
closed = 1;
nodes = (
(364,408,o),
(372,376,o),
(372,343,cs),
(372,331,ls),
(372,291,o),
(340,267,o),
(283,267,cs),
(242,267,o),
(218,272,o),
(193,283,c),
(186,297,o),
(183,312,o),
(183,328,cs),
(183,336,ls),
(183,395,o),
(225,422,o),
(309,422,cs),
(417,422,o),
(462,411,o),
(500,411,cs),
(536,411,o),
(550,445,o),
(550,494,cs),
(550,514,o),
(547,534,o),
(543,544,c),
(467,550,o),
(406,553,o),
(320,553,cs),
(140,553,o),
(47,471,o),
(47,352,cs),
(47,342,ls),
(47,227,o),
(147,158,o),
(283,160,cs),
(408,160,o),
(500,209,o),
(500,300,cs),
(500,311,ls),
(500,353,o),
(474,383,o),
(428,406,c),
(428,432,l),
(329,437,l)
);
}
);
userData = {
com.arrowtype.glyphMarkStatus = needsFixing;
com.typemytype.robofont.Image.Brightness = 0;
com.typemytype.robofont.Image.Contrast = 1;
com.typemytype.robofont.Image.Saturation = 1;
com.typemytype.robofont.Image.Sharpness = 0.4;
};
width = 600;
},
{
associatedMasterId = m01;
layerId = "AADD3A5B-5B16-42E7-A367-D4FD687BB111";
name = 45degrees;
shapes = (
{
closed = 1;
nodes = (
(135,65,ls),
(135,-9,o),
(194,-50,o),
(283,-57,cs),
(400,-66,ls),
(417,-67,o),
(427,-79,o),
(427,-94,cs),
(427,-101,ls),
(427,-136,o),
(424,-161,o),
(406,-206,c),
(448,-204,o),
(506,-194,o),
(521,-179,cs),
(561,-139,o),
(575,-107,o),
(575,-57,cs),
(575,-45,ls),
(575,25,o),
(519,63,o),
(447,68,cs),
(309,78,ls),
(288,80,o),
(275,94,o),
(275,117,cs),
(275,120,ls),
(275,136,o),
(279,157,o),
(292,175,c),
(289,186,o),
(284,190,o),
(275,190,cs),
(210,190,o),
(135,139,o),
(135,69,cs)
);
},
{
closed = 1;
nodes = (
(449,-149,o),
(373,-150,o),
(276,-150,cs),
(263,-150,ls),
(205,-150,o),
(184,-135,o),
(184,-95,cs),
(184,-89,ls),
(184,-53,o),
(197,-25,o),
(230,-2,c),
(230,13,o),
(200,23,o),
(167,23,cs),
(83,23,o),
(30,-35,o),
(30,-103,cs),
(30,-111,ls),
(30,-193,o),
(104,-250,o),
(245,-250,cs),
(254,-250,ls),
(373,-250,o),
(468,-233,o),
(521,-179,cs),
(559,-141,o),
(572,-96,o),
(553,-77,c)
);
}
);
width = 600;
},
{
associatedMasterId = m01;
layerId = "0D428380-D2B7-48E2-A087-25727A2B264D";
name = overlap;
shapes = (
{
closed = 1;
nodes = (
(435,422,o),
(490,411,o),
(528,411,cs),
(564,411,o),
(578,445,o),
(578,494,cs),
(578,514,o),
(575,534,o),
(571,544,c),
(495,550,o),
(424,553,o),
(338,553,cs),
(158,553,o),
(65,471,o),
(65,352,cs),
(65,342,ls),
(65,227,o),
(165,148,o),
(301,150,cs),
(341,150,o),
(352,159,o),
(352,212,c),
(259,217,o),
(201,260,o),
(201,328,cs),
(201,336,ls),
(201,395,o),
(243,422,o),
(327,422,cs)
);
},
{
closed = 1;
nodes = (
(238,275,o),
(214,281,o),
(177,300,c),
(151,237,o),
(200,150,o),
(301,150,cs),
(426,150,o),
(509,216,o),
(509,304,cs),
(509,315,ls),
(509,363,o),
(477,403,o),
(420,441,cs),
(392,460,o),
(336,451,o),
(326,441,c),
(360,422,o),
(380,398,o),
(380,357,cs),
(380,344,ls),
(380,297,o),
(354,275,o),
(291,275,cs)
);
},
{
closed = 1;
nodes = (
(135,65,ls),
(135,-9,o),
(194,-50,o),
(283,-57,cs),
(400,-66,ls),
(417,-67,o),
(427,-79,o),
(427,-94,cs),
(427,-101,ls),
(427,-164,o),
(362,-203,o),
(241,-203,c),
(241,-233,o),
(244,-250,o),
(274,-250,cs),
(453,-250,o),
(575,-184,o),
(575,-57,cs),
(575,-45,ls),
(575,25,o),
(519,63,o),
(447,68,cs),
(309,78,ls),
(288,80,o),
(275,94,o),
(275,117,cs),
(275,120,ls),
(275,136,o),
(279,157,o),
(292,175,c),
(289,186,o),
(284,190,o),
(275,190,cs),
(210,190,o),
(135,139,o),
(135,69,cs)
);
},
{
closed = 1;
nodes = (
(429,-143,o),
(382,-150,o),
(276,-150,cs),
(263,-150,ls),
(205,-150,o),
(184,-135,o),
(184,-95,cs),
(184,-89,ls),
(184,-53,o),
(197,-25,o),
(230,-2,c),
(230,13,o),
(200,23,o),
(167,23,cs),
(83,23,o),
(30,-35,o),
(30,-103,cs),
(30,-111,ls),
(30,-193,o),
(111,-250,o),
(265,-250,cs),
(274,-250,ls),
(419,-250,o),
(505,-178,o),
(490,-113,c)
);
}
);
width = 600;
}
);
unicode = 103;
}
{
glyphname = h;
kernLeft = h_left;
kernRight = n_right;
layers = (
{
anchors = (
{
name = bottom;
pos = (305,0);
},
{
name = top;
pos = (138,730);
}
);
layerId = m01;
shapes = (
{
closed = 1;
nodes = (
(188,-3,o),
(197,-3,o),
(215,0,c),
(215,197,o),
(215,378,o),
(215,579,cs),
(215,716,o),
(155,756,o),
(90,756,cs),
(75,756,o),
(60,753,o),
(45,750,c),
(59,726,o),
(65,684,o),
(65,651,cs),
(65,439,o),
(65,310,o),
(65,85,cs),
(65,40,o),
(90,-3,o),
(173,-3,cs)
);
},
{
closed = 1;
nodes = (
(247,333,o),
(305,385,o),
(363,385,cs),
(374,385,o),
(384,381,o),
(394,373,c),
(376,286,o),
(363,203,o),
(363,129,cs),
(363,22,o),
(407,-6,o),
(492,-6,cs),
(513,-6,o),
(530,-4,o),
(550,0,c),
(534,59,o),
(529,95,o),
(529,159,c),
(529,234,o),
(529,309,o),
(529,384,c),
(529,461,o),
(478,552,o),
(420,552,cs),
(337,552,o),
(258,478,o),
(222,381,c),
(194,381,l),
(194,136,l)
);
}
);
userData = {
com.arrowtype.glyphMarkStatus = fromComponents;
com.typemytype.robofont.Image.Brightness = 0;
com.typemytype.robofont.Image.Contrast = 1;
com.typemytype.robofont.Image.Saturation = 1;
com.typemytype.robofont.Image.Sharpness = 0.4;
};
width = 600;
}
);
unicode = 104;
}
{
glyphname = i;
kernLeft = i_left;
kernRight = i_right;
layers = (
{
anchors = (
{
name = bottom;
pos = (175,-7);
},
{
name = hook;
pos = (194,584);
},
{
name = ogonek;
pos = (306,0);
},
{
name = top;
pos = (195,755);
}
);
background = {
shapes = (
{
closed = 1;
nodes = (
(78,522,o),
(59,454,o),
(59,399,cs),
(59,388,l),
(119,388,o),
(169,382,o),
(204,356,c),
(213,356,o),
(220,361,o),
(220,368,cs),
(220,481,o),
(171,550,o),
(115,550,c)
);
},
{
closed = 1;
nodes = (
(275,162,o),
(275,333,o),
(275,505,cs),
(275,513,o),
(273,516,o),
(267,522,cs),
(253,536,o),
(188,550,o),
(140,550,cs),
(115,550,l),
(115,431,o),
(115,309,o),
(115,190,cs),
(115,142,o),
(115,93,o),
(115,45,cs),
(115,37,o),
(117,34,o),
(123,28,cs),
(149,2,o),
(202,-10,o),
(250,-10,cs),
(275,-10,l)
);
},
{
closed = 1;
nodes = (
(290,660,o),
(290,709,o),
(290,744,cs),
(290,752,o),
(288,755,o),
(282,761,cs),
(260,783,o),
(230,789,o),
(194,789,cs),
(110,789,l),
(110,754,o),
(110,706,o),
(110,670,cs),
(110,662,o),
(112,659,o),
(118,653,cs),
(139,632,o),
(170,625,o),
(206,625,cs),
(290,625,l)
);
},
{
closed = 1;
nodes = (
(30,525,ls),
(30,477,o),
(42,434,o),
(68,408,cs),
(74,402,o),
(77,400,o),
(85,400,cs),
(106,400,o),
(129,400,o),
(150,400,cs),
(160,400,o),
(169,400,o),
(175,400,c),
(175,425,ls),
(175,473,o),
(164,515,o),
(137,542,cs),
(131,548,o),
(128,550,o),
(120,550,cs),
(93,550,o),
(57,550,o),
(30,550,c)
);
}
);
};
layerId = m01;
shapes = (
{
closed = 1;
nodes = (
(125,22,o),
(152,-6,o),
(237,-6,cs),
(258,-6,o),
(275,-4,o),
(295,0,c),
(278,58,o),
(275,85,o),
(275,139,cs),
(275,233,o),
(275,351,o),
(275,450,cs),
(275,519,o),
(217,550,o),
(139,550,cs),
(101,550,o),
(72,546,o),
(40,540,c),
(34,519,o),
(31,491,o),
(31,464,cs),
(31,402,o),
(50,372,o),
(82,372,cs),
(100,372,o),
(110,377,o),
(119,386,c),
(125,386,l),
(125,296,o),
(125,194,o),
(125,116,cs)
);
},
{
closed = 1;
nodes = (
(91,699,ls),
(91,645,o),
(141,611,o),
(211,611,cs),
(243,611,o),
(274,617,o),
(299,628,c),
(299,700,ls),
(299,754,o),
(254,772,o),
(191,772,c),
(156,772,o),
(116,765,o),
(91,755,c)
);
}
);
userData = {
com.arrowtype.glyphMarkStatus = finished;
com.typemytype.robofont.Image.Brightness = 0;
com.typemytype.robofont.Image.Contrast = 1;
com.typemytype.robofont.Image.Saturation = 1;
com.typemytype.robofont.Image.Sharpness = 0.4;
};
width = 350;
},
{
associatedMasterId = m01;
layerId = "5408BA30-8FB2-4814-A580-8240A10C286F";
name = 45degrees;
width = 600;
},
{
associatedMasterId = m01;
layerId = "3B43FC63-F7A4-4247-84FE-3B8E1BFCF2A1";
name = overlap;
shapes = (
{
closed = 1;
nodes = (
(22,531,o),
(20,511,o),
(20,488,cs),
(20,421,o),
(40,396,o),
(63,396,cs),
(86,396,o),
(104,408,o),
(158,408,c),
(158,483,o),
(164,550,o),
(115,550,cs),
(85,550,o),
(55,550,o),
(26,546,c)
);
},
{
closed = 1;
nodes = (
(268,33,o),
(265,67,o),
(265,102,cs),
(265,495,ls),
(265,538,o),
(220,550,o),
(125,550,cs),
(115,550,l),
(115,56,ls),
(115,11,o),
(148,-6,o),
(222,-6,cs),
(241,-6,o),
(258,-4,o),
(275,0,c)
);
},
{
closed = 1;
nodes = (
(278,708,ls),
(278,762,o),
(233,770,o),
(176,770,cs),
(153,770,o),
(123,768,o),
(98,764,c),
(98,681,ls),
(98,627,o),
(143,619,o),
(200,619,cs),
(223,619,o),
(253,621,o),
(278,625,c)
);
}
);
width = 350;
},
{
associatedMasterId = m01;
layerId = "E34FB332-D0EF-41C8-96E9-27364A6E0CA7";
name = proportional;
width = 600;
},
{
associatedMasterId = m01;
layerId = "2D541C17-D062-44AA-99D9-0DB2A7A60D32";
name = "old-sans";
shapes = (
{
closed = 1;
nodes = (
(291,698,ls),
(291,742,o),
(256,781,o),
(172,781,cs),
(149,781,o),
(118,779,o),
(93,775,c),
(93,721,ls),
(93,650,o),
(150,612,o),
(263,612,cs),
(273,612,o),
(285,613,o),
(291,615,c)
);
},
{
closed = 1;
nodes = (
(125,22,o),
(152,-6,o),
(237,-6,cs),
(258,-6,o),
(275,-4,o),
(295,0,c),
(278,58,o),
(275,85,o),
(275,139,cs),
(275,233,o),
(275,351,o),
(275,451,cs),
(275,514,o),
(224,550,o),
(135,550,cs),
(106,550,o),
(74,547,o),
(40,540,c),
(34,517,o),
(31,496,o),
(31,462,cs),
(31,405,o),
(50,372,o),
(80,372,cs),
(98,372,o),
(107,376,o),
(119,387,c),
(125,384,l),
(125,319,o),
(125,194,o),
(125,116,cs)
);
}
);
width = 350;
}
);
unicode = 105;
}
{
glyphname = j;
kernLeft = i_left;
kernRight = i_right;
layers = (
{
anchors = (
{
name = bottom;
pos = (175,-201);
},
{
name = ogonek;
pos = (317,0);
},
{
name = top;
pos = (206,755);
}
);
background = {
shapes = (
{
closed = 1;
nodes = (
(168,-250,o),
(280,-193,o),
(280,-20,cs),
(280,155,o),
(280,330,o),
(280,505,cs),
(280,513,o),
(278,516,o),
(272,522,cs),
(258,536,o),
(193,550,o),
(145,550,cs),
(120,550,l),
(120,440,o),
(120,330,o),
(120,220,cs),
(120,139,o),
(120,60,o),
(120,-20,cs),
(120,-83,o),
(98,-100,o),
(50,-100,cs),
(-10,-100,l),
(-10,-114,ls),
(-10,-194,o),
(22,-250,o),
(58,-250,cs),
(73,-250,ls)
);
},
{
closed = 1;
nodes = (
(290,660,o),
(290,709,o),
(290,744,cs),
(290,752,o),
(288,755,o),
(282,761,cs),
(260,783,o),
(230,789,o),
(194,789,cs),
(110,789,l),
(110,754,o),
(110,706,o),
(110,670,cs),
(110,662,o),
(112,659,o),
(118,653,cs),
(139,632,o),
(170,625,o),
(206,625,cs),
(290,625,l)
);
},
{
closed = 1;
nodes = (
(30,525,ls),
(30,477,o),
(42,434,o),
(68,408,cs),
(74,402,o),
(77,400,o),
(85,400,cs),
(106,400,o),
(129,400,o),
(150,400,cs),
(160,400,o),
(169,400,o),
(175,400,c),
(175,425,ls),
(175,473,o),
(164,515,o),
(137,542,cs),
(131,548,o),
(128,550,o),
(120,550,cs),
(93,550,o),
(57,550,o),
(30,550,c)
);
}
);
};
layerId = m01;
shapes = (
{
closed = 1;
nodes = (
(105,550,o),
(67,548,o),
(36,544,c),
(32,529,o),
(30,509,o),
(30,486,cs),
(30,428,o),
(45,394,o),
(74,394,cs),
(92,394,o),
(107,399,o),
(124,410,c),
(130,406,l),
(130,271,o),
(130,185,o),
(130,50,cs),
(130,13,o),
(130,-20,o),
(126,-47,c),
(118,-49,o),
(110,-50,o),
(98,-50,cs),
(68,-50,o),
(46,-46,o),
(16,-33,c),
(10,-33,l),
(7,-45,o),
(6,-57,o),
(6,-71,cs),
(6,-112,o),
(18,-157,o),
(37,-176,cs),
(56,-195,o),
(77,-200,o),
(110,-200,cs),
(203,-200,o),
(280,-96,o),
(280,-3,cs),
(280,206,o),
(280,319,o),
(280,481,cs),
(280,525,o),
(232,550,o),
(130,550,cs)
);
},
{
closed = 1;
nodes = (
(102,699,ls),
(102,645,o),
(152,611,o),
(222,611,cs),
(254,611,o),
(285,617,o),
(310,628,c),
(310,700,ls),
(310,754,o),
(265,772,o),
(202,772,c),
(167,772,o),
(127,765,o),
(102,755,c)
);
}
);
userData = {
com.arrowtype.glyphMarkStatus = needsFixing;
com.typemytype.robofont.Image.Brightness = 0;
com.typemytype.robofont.Image.Contrast = 1;
com.typemytype.robofont.Image.Saturation = 1;
com.typemytype.robofont.Image.Sharpness = 0.4;
};
width = 350;
},
{
associatedMasterId = m01;
layerId = "25ADA321-4A33-49BB-BDEC-69D891FF7ACF";
name = "old-sans";
shapes = (
{
closed = 1;
nodes = (
(32,529,o),
(30,509,o),
(30,486,cs),
(30,419,o),
(50,394,o),
(73,394,cs),
(98,394,o),
(103,408,o),
(173,408,c),
(173,501,o),
(163,550,o),
(130,550,cs),
(100,550,o),
(64,548,o),
(36,544,c)
);
},
{
closed = 1;
nodes = (
(280,479,ls),
(280,498,o),
(277,505,o),
(264,518,cs),
(243,539,o),
(193,550,o),
(140,550,cs),
(130,550,l),
(130,-20,ls),
(130,-100,o),
(122,-134,o),
(100,-175,c),
(154,-196,o),
(280,-122,o),
(280,-52,cs)
);
},
{
closed = 1;
nodes = (
(64,-100,o),
(44,-96,o),
(14,-83,c),
(10,-83,l),
(7,-94,o),
(6,-104,o),
(6,-116,cs),
(6,-160,o),
(17,-206,o),
(38,-227,cs),
(51,-240,o),
(70,-250,o),
(110,-250,cs),
(199,-250,o),
(280,-153,o),
(280,-52,cs),
(280,7,o),
(258,7,o),
(236,7,c),
(216,-77,o),
(153,-100,o),
(95,-100,cs)
);
},
{
closed = 1;
nodes = (
(290,708,ls),
(290,762,o),
(245,770,o),
(188,770,cs),
(165,770,o),
(135,768,o),
(110,764,c),
(110,681,ls),
(110,627,o),
(155,619,o),
(212,619,cs),
(235,619,o),
(265,621,o),
(290,625,c)
);
}
);
width = 500;
}
);
unicode = 106;
}
{
glyphname = k;
kernLeft = h_left;
kernRight = x_right;
layers = (
{
anchors = (
{
name = bottom;
pos = (322,-1);
}
);
background = {
shapes = (
{
closed = 1;
nodes = (
(50,649,o),
(50,249,o),
(50,100,cs),
(50,38,o),
(87,0,o),
(150,0,cs),
(200,0,l),
(200,150,o),
(200,550,o),
(200,700,cs),
(200,760,o),
(159,800,o),
(100,800,cs),
(50,800,l)
);
},
{
closed = 1;
nodes = (
(525,525,ls),
(505,545,o),
(480,558,o),
(452,558,cs),
(423,558,o),
(396,546,o),
(375,525,cs),
(125,275,ls),
(85,235,o),
(93,182,o),
(125,150,c),
(186,150,o),
(236,186,o),
(275,225,cs),
(550,500,l)
);
},
{
closed = 1;
nodes = (
(325,300,ls),
(291,334,o),
(229,316,o),
(169,256,c),
(400,25,ls),
(421,4,o),
(448,-8,o),
(477,-8,cs),
(505,-8,o),
(530,5,o),
(550,25,cs),
(575,50,l)
);
}
);
};
layerId = m01;
shapes = (
{
closed = 1;
nodes = (
(215,197,o),
(215,378,o),
(215,579,cs),
(215,716,o),
(155,756,o),
(90,756,cs),
(75,756,o),
(60,753,o),
(45,750,c),
(59,726,o),
(65,684,o),
(65,651,cs),
(65,465,o),
(65,352,o),
(65,155,cs),
(65,74,o),
(90,-3,o),
(173,-3,cs),
(188,-3,o),
(197,-3,o),
(215,0,c)
);
},
{
closed = 1;
nodes = (
(523,-10,o),
(562,-3,o),
(587,12,c),
(496,100,o),
(418,208,o),
(359,327,c),
(253,213,l),
(284,213,l),
(294,176,o),
(308,143,o),
(325,110,cs),
(343,76,o),
(365,47,o),
(388,24,cs),
(411,1,o),
(440,-10,o),
(483,-10,cs)
);
},
{
closed = 1;
nodes = (
(173,186,l),
(308,200,o),
(459,301,o),
(528,430,cs),
(546,463,o),
(551,479,o),
(551,497,cs),
(551,531,o),
(496,552,o),
(427,552,cs),
(403,552,l),
(383,487,o),
(354,432,o),
(312,378,cs),
(287,346,o),
(256,317,o),
(220,291,c),
(173,291,l)
);
}
);
userData = {
com.arrowtype.glyphMarkStatus = fromComponents;
com.typemytype.robofont.Image.Brightness = 0;
com.typemytype.robofont.Image.Contrast = 1;
com.typemytype.robofont.Image.Saturation = 1;
com.typemytype.robofont.Image.Sharpness = 0.4;
com.typemytype.robofont.guideline.magnetic.0lxPuAj33H = 10;
com.typemytype.robofont.guideline.magnetic.1WmKLC1szi = 10;
com.typemytype.robofont.guideline.magnetic.2CqPwBc4NH = 10;
com.typemytype.robofont.guideline.magnetic.4K00iCdPcL = 10;
com.typemytype.robofont.guideline.magnetic.4Wo2Ug9N1R = 10;
com.typemytype.robofont.guideline.magnetic.7WBTHpUWRW = 10;
com.typemytype.robofont.guideline.magnetic.ApF60D0ufz = 10;
com.typemytype.robofont.guideline.magnetic.CGYutnQW5f = 10;
com.typemytype.robofont.guideline.magnetic.JU37reDGfI = 10;
com.typemytype.robofont.guideline.magnetic.KcGEPhbpwA = 10;
com.typemytype.robofont.guideline.magnetic.LMooqxImSj = 10;
com.typemytype.robofont.guideline.magnetic.M6K3vSiqvg = 10;
com.typemytype.robofont.guideline.magnetic.NsZQZFS7qn = 10;
com.typemytype.robofont.guideline.magnetic.Ska3k5jOL8 = 10;
com.typemytype.robofont.guideline.magnetic.SkcvIWwycO = 10;
com.typemytype.robofont.guideline.magnetic.UdreIO2FEw = 10;
com.typemytype.robofont.guideline.magnetic.ZstyOOj9WS = 10;
com.typemytype.robofont.guideline.magnetic.d8gzPnQH3K = 10;
com.typemytype.robofont.guideline.magnetic.eLddG3ejya = 10;
com.typemytype.robofont.guideline.magnetic.iimtO1lj14 = 10;
com.typemytype.robofont.guideline.magnetic.lNo4lIbVA3 = 10;
com.typemytype.robofont.guideline.magnetic.m6PntIn6ie = 10;
com.typemytype.robofont.guideline.magnetic.pOjtPNRRxM = 10;
com.typemytype.robofont.guideline.magnetic.pS62l65Cng = 10;
com.typemytype.robofont.guideline.magnetic.r6YotHvNg6 = 10;
com.typemytype.robofont.guideline.magnetic.tj2YGrqY1U = 10;
com.typemytype.robofont.guideline.magnetic.uDLi9rgRRM = 10;
com.typemytype.robofont.guideline.magnetic.vjv7wRvDWf = 10;
com.typemytype.robofont.guideline.magnetic.vnOGU2pZXk = 10;
com.typemytype.robofont.guideline.magnetic.xgwh3Cv7Yv = 10;
com.typemytype.robofont.guideline.magnetic.yDo2imd16h = 10;
com.typemytype.robofont.guideline.magnetic.yXLFvYYoCG = 10;
com.typemytype.robofont.guideline.magnetic.zmFkQHQhVH = 10;
};
width = 600;
}
);
unicode = 107;
}
{
glyphname = l;
kernLeft = l_left;
kernRight = l_right;
layers = (
{
anchors = (
{
name = bottom;
pos = (216,-1);
},
{
name = caronslovak;
pos = (373,711);
},
{
name = dot;
pos = (371,400);
},
{
name = slash;
pos = (141,364);
},
{
name = top;
pos = (162,745);
}
);
background = {
shapes = (
{
closed = 1;
nodes = (
(319,155,l),
(294,144,o),
(274,140,o),
(243,140,cs),
(208,140,o),
(182,146,o),
(142,183,c),
(91,125,o),
(114,53,o),
(128,39,cs),
(161,6,o),
(184,-10,o),
(227,-10,cs),
(235,-10,ls),
(255,-10,o),
(288,-5,o),
(299,6,cs),
(315,22,o),
(328,62,o),
(328,105,cs),
(328,121,o),
(326,138,o),
(323,155,c)
);
},
{
closed = 1;
nodes = (
(240,637,ls),
(240,689,o),
(233,705,o),
(213,725,cs),
(191,747,o),
(141,754,o),
(109,754,cs),
(95,754,o),
(81,753,o),
(67,750,c),
(76,714,o),
(80,683,o),
(80,644,cs),
(80,149,ls),
(80,96,o),
(113,54,o),
(128,39,cs),
(156,12,o),
(194,7,o),
(240,20,c)
);
}
);
};
layerId = m01;
shapes = (
{
closed = 1;
nodes = (
(15,734,o),
(11,709,o),
(11,686,cs),
(11,612,o),
(26,587,o),
(48,587,cs),
(56,587,o),
(71,590,o),
(80,599,c),
(85,597,l),
(85,452,o),
(85,299,o),
(85,155,cs),
(85,81,o),
(118,-10,o),
(229,-10,cs),
(259,-10,o),
(285,-6,o),
(302,11,cs),
(317,26,o),
(329,64,o),
(329,112,c),
(329,134,o),
(328,147,o),
(325,160,c),
(319,160,l),
(307,147,o),
(289,140,o),
(271,140,cs),
(256,140,o),
(248,144,o),
(241,149,c),
(236,168,o),
(235,191,o),
(235,220,cs),
(235,369,o),
(235,512,o),
(235,661,cs),
(235,724,o),
(200,760,o),
(131,760,cs),
(102,760,o),
(60,758,o),
(19,750,c)
);
}
);
userData = {
com.arrowtype.glyphMarkStatus = check;
com.typemytype.robofont.Image.Brightness = 0;
com.typemytype.robofont.Image.Contrast = 1;
com.typemytype.robofont.Image.Saturation = 1;
com.typemytype.robofont.Image.Sharpness = 0.4;
};
width = 350;
},
{
associatedMasterId = m01;
layerId = "A7DF5D53-EB28-42B7-B640-FC883E190772";
name = 45degrees;
width = 600;
},
{
associatedMasterId = m01;
layerId = "60EE2453-0EF4-4BD1-81BB-46FD2886B1A0";
name = overlap;
shapes = (
{
closed = 1;
nodes = (
(-8,735,o),
(-10,715,o),
(-10,694,cs),
(-10,627,o),
(5,602,o),
(23,602,cs),
(42,602,o),
(58,618,o),
(104,618,c),
(104,693,o),
(110,760,o),
(61,760,cs),
(39,760,o),
(16,757,o),
(-4,752,c)
);
},
{
closed = 1;
nodes = (
(174,749,o),
(124,760,o),
(71,760,cs),
(61,760,l),
(61,131,ls),
(61,65,o),
(173,-11,o),
(211,27,c),
(211,69,o),
(211,113,o),
(211,155,cs),
(211,689,ls),
(211,708,o),
(208,715,o),
(195,728,cs)
);
},
{
closed = 1;
nodes = (
(287,152,l),
(265,138,o),
(249,135,o),
(222,135,cs),
(175,135,o),
(145,144,o),
(114,192,c),
(82,184,o),
(61,157,o),
(61,131,cs),
(61,62,o),
(119,-10,o),
(206,-10,cs),
(211,-10,ls),
(240,-10,o),
(252,-6,o),
(265,8,cs),
(282,25,o),
(295,67,o),
(295,114,cs),
(295,126,o),
(294,139,o),
(291,152,c)
);
}
);
width = 300;
},
{
associatedMasterId = m01;
layerId = "F9BEBC07-ADAD-4E36-A1EF-E6F9B3429911";
name = "old-sans";
shapes = (
{
closed = 1;
nodes = (
(15,734,o),
(11,709,o),
(11,686,cs),
(11,612,o),
(26,587,o),
(48,587,cs),
(56,587,o),
(71,590,o),
(80,599,c),
(85,597,l),
(85,452,o),
(85,299,o),
(85,155,cs),
(85,81,o),
(118,-10,o),
(229,-10,cs),
(259,-10,o),
(285,-6,o),
(300,9,cs),
(318,27,o),
(329,59,o),
(329,107,cs),
(329,129,o),
(328,142,o),
(325,155,c),
(319,155,l),
(307,142,o),
(289,135,o),
(271,135,cs),
(256,135,o),
(248,139,o),
(241,144,c),
(237,163,o),
(235,186,o),
(235,215,cs),
(235,364,o),
(235,512,o),
(235,661,cs),
(235,724,o),
(200,760,o),
(131,760,cs),
(102,760,o),
(60,758,o),
(19,750,c)
);
}
);
width = 350;
}
);
unicode = 108;
}
{
glyphname = m;
kernLeft = n_left;
kernRight = n_right;
layers = (
{
anchors = (
{
name = bottom;
pos = (442,0);
},
{
name = top;
pos = (425,551);
}
);
background = {
shapes = (
{
closed = 1;
nodes = (
(225,429,ls),
(225,481,o),
(218,497,o),
(198,517,cs),
(176,539,o),
(126,546,o),
(94,546,cs),
(80,546,o),
(66,545,o),
(52,542,c),
(61,506,o),
(65,475,o),
(65,436,cs),
(65,56,ls),
(65,2,o),
(110,-6,o),
(167,-6,cs),
(190,-6,o),
(210,-4,o),
(225,0,c)
);
},
{
closed = 1;
nodes = (
(331,552,o),
(269,529,o),
(210,468,cs),
(177,434,o),
(171,414,o),
(171,310,c),
(249,369,o),
(283,392,o),
(345,392,cs),
(393,392,o),
(428,380,o),
(455,350,c),
(488,350,o),
(505,375,o),
(505,394,cs),
(505,455,o),
(435,552,o),
(370,552,cs)
);
},
{
closed = 1;
nodes = (
(505,394,ls),
(505,451,o),
(430,475,o),
(345,475,c),
(345,56,ls),
(345,11,o),
(386,-6,o),
(490,-6,cs),
(495,-6,o),
(500,-6,o),
(505,-6,c)
);
},
{
closed = 1;
nodes = (
(608,552,o),
(539,530,o),
(477,468,cs),
(455,446,o),
(451,414,o),
(451,310,c),
(529,369,o),
(563,392,o),
(625,392,cs),
(673,392,o),
(708,380,o),
(735,350,c),
(768,350,o),
(785,375,o),
(785,394,cs),
(785,455,o),
(715,552,o),
(650,552,cs)
);
},
{
closed = 1;
nodes = (
(787,31,o),
(785,65,o),
(785,96,cs),
(785,394,ls),
(785,451,o),
(710,475,o),
(625,475,c),
(625,56,ls),
(625,11,o),
(668,-6,o),
(778,-6,cs),
(783,-6,o),
(788,-6,o),
(793,-6,c)
);
}
);
};
layerId = m01;
shapes = (
{
closed = 1;
nodes = (
(790,59,o),
(785,95,o),
(785,159,c),
(785,232.271,o),
(785,305,o),
(785,378,cs),
(785,454,o),
(742,552,o),
(676,552,cs),
(618,552,o),
(547,487,o),
(510,381,c),
(496,381,l),
(496,209,l),
(539,332,o),
(568,385,o),
(618,385,cs),
(634,385,o),
(643,380,o),
(650,373,c),
(630,278,o),
(619,199.137,o),
(619,129,cs),
(619,26,o),
(654,-6,o),
(748,-6,cs),
(769,-6,o),
(786,-4,o),
(806,0,c)
);
},
{
closed = 1;
nodes = (
(504,129,o),
(504,250,o),
(504,376,c),
(504,429,o),
(464.821,550,o),
(399,550,cs),
(331.795,550,o),
(268,487,o),
(231,381,c),
(213,381,l),
(213,205,l),
(260.306,332.276,o),
(289,385,o),
(336,385,c),
(348,385,o),
(357,381,o),
(367,373,c),
(348,264,o),
(339,199.14,o),
(339,134,cs),
(339,39.423,o),
(367.974,-5,o),
(436,-5,cs),
(466.136,-5,o),
(487,-3,o),
(504,0,c)
);
},
{
closed = 1;
nodes = (
(225,125.359,o),
(225,252,o),
(225,377,c),
(225,492,o),
(161.27,546,o),
(94,546,c),
(80,546,o),
(66,545,o),
(52,542,c),
(61,506,o),
(65,475,o),
(65,436,cs),
(65,329.053,o),
(65,222.947,o),
(65,116,cs),
(65,9.742,o),
(103.804,-6,o),
(167,-6,cs),
(193.441,-6,o),
(207.842,-4.575,o),
(225,0,c)
);
}
);
userData = {
com.arrowtype.glyphMarkStatus = check;
com.typemytype.robofont.Image.Brightness = 0;
com.typemytype.robofont.Image.Contrast = 1;
com.typemytype.robofont.Image.Saturation = 1;
com.typemytype.robofont.Image.Sharpness = 0.4;
};
width = 850;
},
{
associatedMasterId = m01;
layerId = "D4050AA4-FAD9-4218-8B98-EF1D97526751";
name = overlap;
shapes = (
{
closed = 1;
nodes = (
(225,429,ls),
(225,481,o),
(218,497,o),
(198,517,cs),
(176,539,o),
(126,546,o),
(94,546,cs),
(80,546,o),
(66,545,o),
(52,542,c),
(61,506,o),
(65,475,o),
(65,436,cs),
(65,56,ls),
(65,2,o),
(110,-6,o),
(167,-6,cs),
(190,-6,o),
(210,-4,o),
(225,0,c)
);
},
{
closed = 1;
nodes = (
(303,552,o),
(226,454,o),
(200,338,cs),
(181,251,o),
(171,163,o),
(191,106,c),
(228,336,o),
(283,385,o),
(330,385,cs),
(364,385,o),
(388,363,o),
(406,318,c),
(464,318,o),
(505,349,o),
(505,384,cs),
(505,461,o),
(454,552,o),
(396,552,cs)
);
},
{
closed = 1;
nodes = (
(505,384,ls),
(505,411,o),
(476,427,o),
(380,424,c),
(358,319,o),
(339,217,o),
(339,134,cs),
(339,129,ls),
(339,22,o),
(377,-6,o),
(462,-6,cs),
(479,-6,o),
(491,-5,o),
(505,0,c)
);
},
{
closed = 1;
nodes = (
(583,552,o),
(503,457,o),
(477,341,cs),
(458,254,o),
(448,163,o),
(468,106,c),
(505,336,o),
(563,385,o),
(612,385,cs),
(644,385,o),
(668,363,o),
(686,318,c),
(744,318,o),
(785,349,o),
(785,384,cs),
(785,461,o),
(734,552,o),
(676,552,cs)
);
},
{
closed = 1;
nodes = (
(790,59,o),
(785,95,o),
(785,159,cs),
(785,384,ls),
(785,411,o),
(756,427,o),
(660,424,c),
(638,319,o),
(619,217,o),
(619,134,cs),
(619,129,ls),
(619,22,o),
(663,-6,o),
(748,-6,cs),
(769,-6,o),
(786,-4,o),
(806,0,c)
);
}
);
width = 850;
}
);
unicode = 109;
}
{
glyphname = n;
kernLeft = n_left;
kernRight = n_right;
layers = (
{
anchors = (
{
name = bottom;
pos = (303,-1);
},
{
name = caronslovak;
pos = (105,681);
},
{
name = top;
pos = (300,551);
}
);
background = {
shapes = (
{
closed = 1;
nodes = (
(224,362,ls),
(224,442,o),
(207,484,o),
(177,514,cs),
(153,538,o),
(127,546,o),
(94,546,cs),
(81,546,o),
(69,545,o),
(56,542,c),
(65,506,o),
(69,475,o),
(69,436,cs),
(69,56,ls),
(69,2,o),
(109,-6,o),
(166,-6,cs),
(189,-6,o),
(209,-4,o),
(224,0,c)
);
},
{
closed = 1;
nodes = (
(327,552,o),
(238,454,o),
(212,338,cs),
(193,251,o),
(195,163,o),
(215,106,c),
(252,336,o),
(307,385,o),
(363,385,cs),
(388,385,o),
(412,363,o),
(430,318,c),
(488,318,o),
(529,349,o),
(529,384,cs),
(529,461,o),
(478,552,o),
(420,552,cs)
);
},
{
closed = 1;
nodes = (
(534,59,o),
(529,95,o),
(529,159,cs),
(529,384,ls),
(529,411,o),
(500,427,o),
(404,424,c),
(382,319,o),
(363,217,o),
(363,134,cs),
(363,129,ls),
(363,22,o),
(407,-6,o),
(492,-6,cs),
(513,-6,o),
(530,-4,o),
(550,0,c)
);
}
);
};
layerId = m01;
shapes = (
{
closed = 1;
nodes = (
(534,59,o),
(529,95,o),
(529,159,c),
(529,234,o),
(529,309,o),
(529,384,c),
(529,461,o),
(478,552,o),
(420,552,cs),
(337,552,o),
(258,478,o),
(222,381,c),
(194,381,l),
(194,136,l),
(247,333,o),
(305,385,o),
(363,385,cs),
(374,385,o),
(384,381,o),
(394,373,c),
(376,286,o),
(363,203,o),
(363,129,cs),
(363,22,o),
(407,-6,o),
(492,-6,cs),
(513,-6,o),
(530,-4,o),
(550,0,c)
);
},
{
closed = 1;
nodes = (
(216,104,o),
(216,241,o),
(216,369,cs),
(216,506,o),
(163,546,o),
(91,546,cs),
(76,546,o),
(61,543,o),
(46,540,c),
(60,516,o),
(66,474,o),
(66,441,cs),
(66,330,o),
(66,222,o),
(66,89,cs),
(66,34,o),
(90,-3,o),
(172,-3,cs),
(187,-3,o),
(198,-3,o),
(216,0,c)
);
}
);
userData = {
com.arrowtype.glyphMarkStatus = fromComponents;
com.typemytype.robofont.Image.Brightness = 0;
com.typemytype.robofont.Image.Contrast = 1;
com.typemytype.robofont.Image.Saturation = 1;
com.typemytype.robofont.Image.Sharpness = 0.4;
};
width = 600;
}
);
unicode = 110;
}
{
glyphname = o;
kernLeft = o_left;
kernRight = o_right;
layers = (
{
anchors = (
{
name = bottom;
pos = (300,-1);
},
{
name = hook;
pos = (301,584);
},
{
name = horn;
pos = (423,520);
},
{
name = ogonek;
pos = (486,67);
},
{
name = tildeviet;
pos = (266,551);
},
{
name = top;
pos = (300,551);
}
);
layerId = m01;
shapes = (
{
closed = 1;
nodes = (
(150.028,552,o),
(45,433,o),
(45,258,cs),
(45,244,ls),
(45,68,o),
(160.306,-12,o),
(295,-12,cs),
(448.961,-12,o),
(555,91,o),
(555,242,cs),
(555,256,ls),
(555,460,o),
(436.642,552,o),
(304,552,cs)
);
},
{
closed = 1;
nodes = (
(356.348,412,o),
(376.899,410.413,o),
(394,404,c),
(405,363,o),
(410,317,o),
(410,261,cs),
(410,254,ls),
(410,163,o),
(366.421,128,o),
(272,128,cs),
(239.727,128,o),
(220.695,129.311,o),
(201,134,c),
(194,163,o),
(190,197,o),
(190,239,cs),
(190,246,ls),
(190,365,o),
(233.641,412,o),
(323,412,cs)
);
}
);
userData = {
com.arrowtype.glyphMarkStatus = fromComponents;
};
width = 600;
}
);
unicode = 111;
}
{
glyphname = p;
kernLeft = n_left;
kernRight = o_right;
layers = (
{
anchors = (
{
name = bottom;
pos = (300,-201);
},
{
name = top;
pos = (300,551);
}
);
layerId = m01;
shapes = (
{
closed = 1;
nodes = (
(59,516,o),
(65,474,o),
(65,441,cs),
(65,262.5,o),
(65,147,o),
(65,-42,cs),
(65,-123,o),
(90,-200,o),
(173,-200,cs),
(188,-200,o),
(197,-200,o),
(215,-197,c),
(215,-7,o),
(215,174.943,o),
(215,369,cs),
(215,506,o),
(155,546,o),
(90,546,cs),
(75,546,o),
(60,543,o),
(45,540,c)
);
},
{
closed = 1;
nodes = (
(329,552,o),
(253,478,o),
(221,392,c),
(204,392,l),
(204,206,l),
(245,343,o),
(305,391,o),
(386,391,cs),
(389,391,o),
(393,391,o),
(397,390,c),
(403,375,o),
(405,352,o),
(405,310,cs),
(405,299,ls),
(405,191,o),
(369,132,o),
(295,132,cs),
(252,132,o),
(222,146,o),
(198,172,c),
(198,68,l),
(220,68,l),
(240,27,o),
(289,-12,o),
(350,-12,cs),
(449,-12,o),
(560,85,o),
(560,322,cs),
(560,344,ls),
(560,456,o),
(483,552,o),
(405,552,cs)
);
}
);
userData = {
com.arrowtype.glyphMarkStatus = fromComponents;
};
width = 600;
}
);
unicode = 112;
}
{
glyphname = q;
kernLeft = o_left;
layers = (
{
anchors = (
{
name = bottom;
pos = (457,-201);
},
{
name = top;
pos = (300,551);
}
);
background = {
shapes = (
{
closed = 1;
nodes = (
(261,-10,o),
(342,57,o),
(395,120,cs),
(424,155,o),
(429,167,o),
(429,232,c),
(344,168,o),
(285,150,o),
(215,150,cs),
(167,150,o),
(143,179,o),
(105,222,c),
(72,222,o),
(50,191,o),
(50,168,cs),
(50,81,o),
(138,-10,o),
(205,-10,cs)
);
}
);
};
layerId = m01;
shapes = (
{
closed = 1;
nodes = (
(388,506,o),
(385,475,o),
(385,433,c),
(385,278,o),
(385,113,o),
(385,-42,c),
(385,-123,o),
(410,-200,o),
(493,-200,cs),
(508,-200,o),
(517,-200,o),
(535,-197,c),
(535,-160,o),
(535,-124,o),
(535,-89,cs),
(535,68,o),
(535,227,o),
(535,391,cs),
(535,510,o),
(495,546,o),
(444,546,cs),
(427,546,o),
(414,545,o),
(398,543,c)
);
},
{
closed = 1;
nodes = (
(402,336,l),
(360,197,o),
(297.67,149,o),
(214,149,cs),
(210,149,o),
(206,149,o),
(201,150,c),
(197,170,o),
(195,192,o),
(195,230,cs),
(195,241,ls),
(195,349,o),
(231,408,o),
(305,408,cs),
(348,408,o),
(378,394,o),
(402,368,c),
(402,472,l),
(380,472,l),
(360,513,o),
(311,552,o),
(250,552,cs),
(151,552,o),
(40,455,o),
(40,218,cs),
(40,196,ls),
(40,84,o),
(117,-12,o),
(195,-12,cs),
(271,-12,o),
(347,62,o),
(379,148,c),
(402,148,l)
);
}
);
userData = {
com.arrowtype.glyphMarkStatus = fromComponents;
};
width = 600;
}
);
unicode = 113;
}
{
glyphname = r;
kernLeft = n_left;
kernRight = r_right;
layers = (
{
anchors = (
{
name = bottom;
pos = (150,-1);
},
{
name = top;
pos = (240,551);
}
);
background = {
shapes = (
{
closed = 1;
nodes = (
(213,191,l),
(252,323,o),
(291,377,o),
(351,377,cs),
(375,377,o),
(389,371,o),
(408,359,c),
(414,359,l),
(423,383,o),
(425,411,o),
(425,440,cs),
(425,498,o),
(415,528,o),
(398,545,cs),
(386,557,o),
(375,560,o),
(359,560,cs),
(299,560,o),
(255,496,o),
(225,377,c),
(213,377,l)
);
},
{
closed = 1;
nodes = (
(219,104,o),
(219,241,o),
(219,369,cs),
(219,506,o),
(166,546,o),
(94,546,cs),
(79,546,o),
(64,543,o),
(49,540,c),
(63,516,o),
(69,474,o),
(69,441,cs),
(69,330,o),
(69,222,o),
(69,89,cs),
(69,34,o),
(93,-4,o),
(175,-4,cs),
(190,-4,o),
(201,-3,o),
(219,0,c)
);
}
);
};
layerId = m01;
shapes = (
{
closed = 1;
nodes = (
(213,191,l),
(251.526,322.338,o),
(285.348,377,o),
(341,377,c),
(365,377,o),
(379,371,o),
(398,359,c),
(404,359,l),
(413,383,o),
(415,411,o),
(415,440,cs),
(415,498,o),
(405,528,o),
(388,545,cs),
(376,557,o),
(365,560,o),
(349,560,cs),
(293.478,560,o),
(254.653,495.611,o),
(225,377,c),
(213,377,l)
);
},
{
closed = 1;
nodes = (
(219,104,o),
(219,241,o),
(219,369,cs),
(219,506,o),
(166,546,o),
(94,546,cs),
(79,546,o),
(64,543,o),
(49,540,c),
(63,516,o),
(69,474,o),
(69,441,cs),
(69,330,o),
(69,222,o),
(69,89,cs),
(69,34,o),
(93,-4,o),
(175,-4,cs),
(190,-4,o),
(201,-3,o),
(219,0,c)
);
}
);
userData = {
com.arrowtype.glyphMarkStatus = check;
com.typemytype.robofont.Image.Brightness = 0;
com.typemytype.robofont.Image.Contrast = 1;
com.typemytype.robofont.Image.Saturation = 1;
com.typemytype.robofont.Image.Sharpness = 0.4;
};
width = 450;
},
{
associatedMasterId = m01;
layerId = "80B8B6EF-2082-4A15-8F9B-7AC35E0350D3";
name = 45degrees;
shapes = (
{
closed = 1;
nodes = (
(12,531,o),
(10,511,o),
(10,488,cs),
(10,421,o),
(30,396,o),
(53,396,cs),
(73,396,o),
(89,408,o),
(135,408,c),
(135,514,o),
(130,550,o),
(102,550,cs),
(76,550,o),
(41,549,o),
(16,546,c)
);
},
{
closed = 1;
nodes = (
(245,27,o),
(242,61,o),
(242,96,cs),
(242,373,ls),
(242,489,o),
(152,550,o),
(102,550,cs),
(99,550,o),
(95,549,o),
(92,547,c),
(92,56,ls),
(92,11,o),
(125,-6,o),
(235,-6,cs),
(241,-6,o),
(246,-6,o),
(252,-6,c)
);
},
{
closed = 1;
nodes = (
(270,349,o),
(289,384,o),
(357,384,cs),
(377,384,o),
(389,380,o),
(408,367,c),
(412,367,l),
(421,394,o),
(425,413,o),
(425,450,cs),
(425,522,o),
(403,560,o),
(361,560,cs),
(359,560,ls),
(292,560,o),
(248,481,o),
(218,306,cs),
(213,280,o),
(210,252,o),
(239,193,c)
);
}
);
width = 600;
},
{
associatedMasterId = m01;
layerId = "5F0E2CBC-7D5E-40A1-B2AB-88A35F460359";
name = overlap;
shapes = (
{
closed = 1;
nodes = (
(229,444,ls),
(229,481,o),
(222,497,o),
(208,511,cs),
(184,535,o),
(146,546,o),
(98,546,cs),
(84,546,o),
(70,545,o),
(56,542,c),
(65,506,o),
(69,475,o),
(69,436,cs),
(69,56,ls),
(69,2,o),
(114,-6,o),
(171,-6,cs),
(194,-6,o),
(214,-4,o),
(229,0,c)
);
},
{
closed = 1;
nodes = (
(259,327,o),
(295,376,o),
(357,376,cs),
(377,376,o),
(390,372,o),
(410,359,c),
(414,359,l),
(422,386,o),
(425,405,o),
(425,442,cs),
(425,514,o),
(401,560,o),
(359,560,cs),
(357,560,ls),
(290,560,o),
(236,464,o),
(206,289,cs),
(201,263,o),
(197,235,o),
(226,176,c)
);
}
);
width = 450;
},
{
associatedMasterId = m01;
layerId = "19EA1504-85DF-4B0C-B8BE-F23A30203FCE";
name = "old-sans";
shapes = (
{
closed = 1;
nodes = (
(213,191,l),
(251.741,323.071,o),
(291.409,377,o),
(351,377,cs),
(375.35,377,o),
(388.852,371.447,o),
(408,359,c),
(414,359,l),
(422.785,382.72,o),
(425,410.626,o),
(425,440,cs),
(425,497.532,o),
(413.927,526.073,o),
(396,544,cs),
(382.716,557.284,o),
(375.338,560,o),
(359,560,cs),
(299.128,560,o),
(254.779,496.115,o),
(225,377,c),
(213,377,l)
);
},
{
closed = 1;
nodes = (
(219,104,o),
(219,241,o),
(219,369,cs),
(219,506,o),
(166,546,o),
(94,546,cs),
(79,546,o),
(64,543,o),
(49,540,c),
(63,516,o),
(69,474,o),
(69,441,cs),
(69,330,o),
(69,222,o),
(69,89,cs),
(69,34,o),
(93,-3,o),
(175,-3,cs),
(190,-3,o),
(201,-3,o),
(219,0,c)
);
}
);
width = 450;
}
);
unicode = 114;
}
{
glyphname = s;
kernLeft = s_left;
kernRight = s_right;
layers = (
{
anchors = (
{
name = bottom;
pos = (278,-1);
},
{
name = dot;
pos = (345,551);
},
{
name = top;
pos = (278,551);
}
);
background = {
shapes = (
{
closed = 1;
nodes = (
(343,552,ls),
(208,552,o),
(75,481,o),
(75,374,cs),
(75,330,o),
(144,300,o),
(240,300,c),
(227,330,o),
(225,348,o),
(225,369,cs),
(225,388,o),
(259,402,o),
(346,402,cs),
(401,402,o),
(433,394,o),
(466,379,c),
(470,379,l),
(473,392,o),
(475,405,o),
(475,418,cs),
(475,476,o),
(463,512,o),
(439,536,cs),
(431,544,o),
(396,552,o),
(355,552,cs)
);
},
{
closed = 1;
nodes = (
(291,335,ls),
(238,346,o),
(225,352,o),
(225,369,cs),
(225,385,o),
(228,409,o),
(242,440,c),
(142,429,o),
(75,407,o),
(75,374,cs),
(75,293,o),
(118,255,o),
(234,227,cs),
(314,208,ls),
(385,191,o),
(414,164,o),
(414,109,cs),
(414,100,o),
(413,89,o),
(410,70,c),
(472,80,o),
(505,140,o),
(505,164,cs),
(505,258,o),
(460,300,o),
(349,323,cs)
);
},
{
closed = 1;
nodes = (
(165,138,o),
(129,154,o),
(59,193,c),
(55,193,l),
(52,178,o),
(50,162,o),
(50,139,cs),
(50,73,o),
(69,44,o),
(84,29,cs),
(94,19,o),
(160,-12,o),
(256,-12,cs),
(275,-12,ls),
(436,-12,o),
(505,42,o),
(505,164,cs),
(505,221,o),
(466,217,o),
(409,230,c),
(414,210,o),
(414,200,o),
(414,190,cs),
(414,162,o),
(367,138,o),
(287,138,cs)
);
}
);
};
layerId = m01;
shapes = (
{
closed = 1;
nodes = (
(171,138,o),
(134,152,o),
(61,193,c),
(55,193,l),
(52,178,o),
(50,162,o),
(50,139,cs),
(50,78,o),
(65,48,o),
(84,29,cs),
(112,1,o),
(175,-12,o),
(288,-12,cs),
(435,-12,o),
(506,45,o),
(506,164,cs),
(506,241,o),
(465,295,o),
(356,321,cs),
(306,333,ls),
(240,349,o),
(225,351,o),
(225,369,cs),
(225,388,o),
(256,402,o),
(336,402,cs),
(399,402,o),
(430,390,o),
(470,372,c),
(476,372,l),
(479,385,o),
(481,398,o),
(481,411,c),
(481,469,o),
(469,505,o),
(448,526,cs),
(431,543,o),
(394,552,o),
(333,552,cs),
(182,552,o),
(75,487,o),
(75,374,cs),
(75,292,o),
(118,252,o),
(234,225,cs),
(306,208,ls),
(359,195,o),
(370,175,o),
(362,144,c),
(344,140,o),
(324,138,o),
(300,138,cs)
);
}
);
userData = {
com.arrowtype.glyphMarkStatus = check;
com.typemytype.robofont.Image.Brightness = 0;
com.typemytype.robofont.Image.Contrast = 1;
com.typemytype.robofont.Image.Saturation = 1;
com.typemytype.robofont.Image.Sharpness = 0.4;
};
width = 550;
},
{
associatedMasterId = m01;
layerId = "5557A21B-3E32-4AFC-95B3-963A6B77D1FB";
name = "old-sans";
shapes = (
{
closed = 1;
nodes = (
(333,552,ls),
(182,552,o),
(75,487,o),
(75,374,cs),
(75,330,o),
(144,300,o),
(240,300,c),
(227,330,o),
(225,348,o),
(225,369,cs),
(225,388,o),
(256.489,402,o),
(336,402,cs),
(398.868,402,o),
(432.202,390.004,o),
(472,372,c),
(476,372,l),
(479,385,o),
(481,398,o),
(481,411,cs),
(481,469,o),
(469,505,o),
(448,526,cs),
(431,543,o),
(393.571,552,o),
(345,552,cs)
);
},
{
closed = 1;
nodes = (
(306,333,ls),
(239.723,348.906,o),
(225,351,o),
(225,369,cs),
(225,385,o),
(228,409,o),
(242,440,c),
(142,429,o),
(75,407,o),
(75,374,cs),
(75,291.898,o),
(118.004,252.388,o),
(234,225,cs),
(306,208,ls),
(348.883,197.875,o),
(364,181.368,o),
(364,162,cs),
(364,141,o),
(356,127,o),
(343,113,c),
(461,113,o),
(506,132,o),
(506,164,cs),
(506,240.94,o),
(464.892,294.866,o),
(356,321,cs)
);
},
{
closed = 1;
nodes = (
(171,138,o),
(132,152,o),
(59,193,c),
(55,193,l),
(52,178,o),
(50,162,o),
(50,139,cs),
(50,78,o),
(65,48,o),
(84,29,cs),
(112,1,o),
(175,-12,o),
(269,-12,cs),
(288,-12,ls),
(435,-12,o),
(506,45,o),
(506,164,cs),
(506,221,o),
(471,218,o),
(419,230,c),
(424,210,o),
(424,200,o),
(424,190,cs),
(424,162,o),
(377.5,138,o),
(300,138,cs)
);
}
);
width = 500;
}
);
unicode = 115;
}
{
glyphname = t;
kernLeft = t_left;
kernRight = t_right;
layers = (
{
anchors = (
{
name = bottom;
pos = (278,-1);
},
{
name = caronslovak;
pos = (373,711);
},
{
name = top;
pos = (186,665);
}
);
background = {
shapes = (
{
closed = 1;
nodes = (
(125,163,ls),
(125,115,o),
(132,88,o),
(179,41,cs),
(214,6,o),
(268,8,o),
(311,34,c),
(285,75,o),
(275,125,o),
(275,175,cs),
(275,644,ls),
(275,698,o),
(234,706,o),
(183,706,cs),
(160,706,o),
(140,704,o),
(125,700,c)
);
},
{
closed = 1;
nodes = (
(442,165,l),
(387,143,o),
(356,138,o),
(305,138,cs),
(261,138,o),
(216,152,o),
(179,176,c),
(162,159,o),
(156,136,o),
(156,113,cs),
(156,83,o),
(167,53,o),
(179,41,cs),
(219,1,o),
(254,-12,o),
(300,-12,cs),
(310,-12,ls),
(385,-12,o),
(408,6,o),
(418,16,cs),
(436,34,o),
(450,78,o),
(450,127,cs),
(450,139,o),
(449,152,o),
(446,165,c)
);
},
{
closed = 1;
nodes = (
(36,534,o),
(36,528,o),
(36,521,cs),
(36,470,o),
(45,440,o),
(63,422,cs),
(88,397,o),
(121,390,o),
(212,390,cs),
(443,390,l),
(447,407,o),
(450,430,o),
(450,453,cs),
(450,519,o),
(433,540,o),
(377,540,cs),
(36,540,l)
);
}
);
};
layerId = m01;
shapes = (
{
closed = 1;
nodes = (
(22,533,o),
(21,523,o),
(21,513,cs),
(21,426,o),
(58,390,o),
(197,390,cs),
(445,390,l),
(449,407,o),
(452,430,o),
(452,453,cs),
(452,519,o),
(435,540,o),
(379,540,c),
(24,540,l)
);
},
{
closed = 1;
nodes = (
(440,167,l),
(404,147,o),
(362,138,o),
(325,138,cs),
(304,138,o),
(293,140,o),
(279,144,c),
(276,154,o),
(275,165,o),
(275,176,cs),
(275,320,o),
(275,464,o),
(275,608,cs),
(275,678,o),
(233,710,o),
(182,710,cs),
(159,710,o),
(136,706,o),
(112,700,c),
(122,669,o),
(125,639,o),
(125,608,cs),
(125,460,o),
(125,311,o),
(125,163,cs),
(125,59,o),
(206,-12,o),
(308,-12,cs),
(369,-12,o),
(403,-3,o),
(422,22,cs),
(439,45,o),
(450,80,o),
(450,129,cs),
(450,141,o),
(449,154,o),
(446,167,c)
);
}
);
userData = {
com.arrowtype.glyphMarkStatus = check;
com.typemytype.robofont.Image.Brightness = 0;
com.typemytype.robofont.Image.Contrast = 1;
com.typemytype.robofont.Image.Saturation = 1;
com.typemytype.robofont.Image.Sharpness = 0.4;
};
width = 500;
},
{
associatedMasterId = m01;
layerId = "DAD8602C-4ECC-4317-9BB6-6C9D8D08CE40";
name = overlap;
shapes = (
{
closed = 1;
nodes = (
(125,153,ls),
(125,93,o),
(218,9,o),
(311,34,c),
(285,75,o),
(275,125,o),
(275,175,cs),
(275,644,ls),
(275,698,o),
(234,706,o),
(183,706,cs),
(160,706,o),
(140,704,o),
(125,700,c)
);
},
{
closed = 1;
nodes = (
(442,165,l),
(387,143,o),
(356,138,o),
(305,138,cs),
(261,138,o),
(216,152,o),
(166,195,c),
(140,192,o),
(125,175,o),
(125,153,cs),
(125,67,o),
(213,-12,o),
(300,-12,cs),
(310,-12,ls),
(385,-12,o),
(408,6,o),
(418,16,cs),
(436,34,o),
(450,78,o),
(450,127,cs),
(450,139,o),
(449,152,o),
(446,165,c)
);
},
{
closed = 1;
nodes = (
(36,534,o),
(36,528,o),
(36,521,cs),
(36,470,o),
(45,440,o),
(63,422,cs),
(88,397,o),
(121,390,o),
(212,390,cs),
(443,390,l),
(447,407,o),
(450,430,o),
(450,453,cs),
(450,519,o),
(433,540,o),
(377,540,cs),
(36,540,l)
);
}
);
width = 500;
}
);
unicode = 116;
}
{
glyphname = u;
kernLeft = u_left;
kernRight = i_right;
layers = (
{
anchors = (
{
name = bottom;
pos = (303,-1);
},
{
name = hook;
pos = (300,584);
},
{
name = horn;
pos = (453,540);
},
{
name = ogonek;
pos = (551,0);
},
{
name = tildeviet;
pos = (266,551);
},
{
name = top;
pos = (300,551);
}
);
background = {
shapes = (
{
closed = 1;
nodes = (
(382,179,ls),
(382,99,o),
(399,57,o),
(429,27,cs),
(453,3,o),
(479,-5,o),
(512,-5,cs),
(525,-5,o),
(537,-3,o),
(550,0,c),
(541,36,o),
(537,66,o),
(537,105,cs),
(537,485,ls),
(537,539,o),
(492,547,o),
(435,547,cs),
(412,547,o),
(397,545,o),
(382,541,c)
);
},
{
closed = 1;
nodes = (
(279,-11,o),
(368,87,o),
(394,203,cs),
(413,290,o),
(411,378,o),
(391,435,c),
(354,205,o),
(299,156,o),
(243,156,cs),
(218,156,o),
(194,178,o),
(176,223,c),
(118,223,o),
(77,192,o),
(77,157,cs),
(77,80,o),
(128,-11,o),
(186,-11,cs)
);
},
{
closed = 1;
nodes = (
(72,482,o),
(77,446,o),
(77,382,cs),
(77,157,ls),
(77,130,o),
(106,114,o),
(202,117,c),
(224,222,o),
(243,324,o),
(243,407,cs),
(243,412,ls),
(243,519,o),
(199,547,o),
(114,547,cs),
(93,547,o),
(76,545,o),
(56,541,c)
);
}
);
};
layerId = m01;
shapes = (
{
closed = 1;
nodes = (
(83,548,o),
(66,546,o),
(46,542,c),
(62,483,o),
(67,447,o),
(67,383,cs),
(67,308,o),
(67,233,o),
(67,158,cs),
(67,81,o),
(118,-10,o),
(176,-10,cs),
(259,-10,o),
(339,64,o),
(376,161,c),
(391,161,l),
(391,446,l),
(354,209,o),
(291,157,o),
(233,157,cs),
(222,157,o),
(212,161,o),
(202,169,c),
(220,256,o),
(233,339,o),
(233,413,cs),
(233,520,o),
(189,548,o),
(104,548,cs)
);
},
{
closed = 1;
nodes = (
(409,545,o),
(400,545,o),
(382,542,c),
(382,438,o),
(382,301,o),
(382,173,cs),
(382,36,o),
(433,-5,o),
(505,-5,cs),
(520,-5,o),
(535,-3,o),
(550,0,c),
(536,24,o),
(530,68,o),
(530,101,cs),
(530,212,o),
(530,320,o),
(530,453,cs),
(530,508,o),
(506,545,o),
(424,545,cs)
);
}
);
userData = {
com.arrowtype.glyphMarkStatus = fromComponents;
};
width = 600;
}
);
unicode = 117;
}
{
glyphname = v;
kernLeft = v_left;
kernRight = v_right;
layers = (
{
anchors = (
{
name = bottom;
pos = (300,-1);
},
{
name = top;
pos = (300,551);
}
);
layerId = m01;
shapes = (
{
closed = 1;
nodes = (
(82,549,o),
(55,546,o),
(38,540,c),
(62.015,296.853,o),
(117.154,131.846,o),
(212,37,cs),
(254,-5,o),
(268,-10,o),
(303,-10,cs),
(323,-10,o),
(343,-8,o),
(357,-5,c),
(461.289,79.67,o),
(534.991,242.905,o),
(554,449,cs),
(560,514,o),
(533,549,o),
(468,549,c),
(446,549,o),
(423,547,o),
(401,540,c),
(408.833,355.923,o),
(365.194,225.24,o),
(297,121,c),
(289,121,l),
(251.375,196.25,o),
(224,302,o),
(207,484,cs),
(202,535,o),
(162,549,o),
(99,549,cs)
);
}
);
userData = {
com.arrowtype.glyphMarkStatus = fromComponents;
};
width = 600;
}
);
unicode = 118;
}
{
glyphname = w;
kernLeft = w_left;
kernRight = w_right;
layers = (
{
anchors = (
{
name = bottom;
pos = (400,-1);
},
{
name = top;
pos = (397,548);
}
);
layerId = m01;
shapes = (
{
closed = 1;
nodes = (
(327,347,o),
(299,264,o),
(246,160,c),
(239,160,l),
(222,220,o),
(196,302,o),
(196,475,cs),
(196,522,o),
(159,546,o),
(81,546,cs),
(66,546,o),
(55,546,o),
(44,543,c),
(44,237,o),
(91,111,o),
(190,12,cs),
(204,-2,o),
(223,-10,o),
(242,-10,cs),
(259,-10,o),
(270,-9,o),
(280,-4,c),
(333,82,o),
(371,141,o),
(394,250,c),
(400,250,l),
(427,131,o),
(469,61,o),
(514,8,cs),
(524,-4,o),
(538,-10,o),
(559,-10,cs),
(570,-10,o),
(583,-10,o),
(595,-7,c),
(690,100,o),
(757,235,o),
(757,472,cs),
(757,522,o),
(709,546,o),
(636,546,cs),
(624,546,o),
(616,545,o),
(608,543,c),
(608,311,o),
(585,235,o),
(552,162,c),
(546,162,l),
(507,242,o),
(478,331,o),
(478,460,cs),
(478,519,o),
(453,540,o),
(344,540,c),
(327,540,l)
);
}
);
userData = {
com.arrowtype.glyphMarkStatus = check;
com.typemytype.robofont.Image.Brightness = 0;
com.typemytype.robofont.Image.Contrast = 1;
com.typemytype.robofont.Image.Saturation = 1;
com.typemytype.robofont.Image.Sharpness = 0.4;
com.typemytype.robofont.guideline.magnetic.0CELcCWiqH = 0;
com.typemytype.robofont.guideline.magnetic.0MyY4PZAxn = 10;
com.typemytype.robofont.guideline.magnetic.0UkgWKV2ui = 0;
com.typemytype.robofont.guideline.magnetic.0dp3LNnHeW = 10;
com.typemytype.robofont.guideline.magnetic.1GeDNMPKcG = 0;
com.typemytype.robofont.guideline.magnetic.1Nk6mnVCuo = 0;
com.typemytype.robofont.guideline.magnetic.1RntSddkIs = 10;
com.typemytype.robofont.guideline.magnetic.1T9x3ib8vE = 10;
com.typemytype.robofont.guideline.magnetic.1aPkoMGHuj = 0;
com.typemytype.robofont.guideline.magnetic.1vDXc9Y1Py = 0;
com.typemytype.robofont.guideline.magnetic.24t0RPetrb = 0;
com.typemytype.robofont.guideline.magnetic.27xnkUawBC = 0;
com.typemytype.robofont.guideline.magnetic.2SBi5IHQQJ = 0;
com.typemytype.robofont.guideline.magnetic.2tMmCpv7BM = 0;
com.typemytype.robofont.guideline.magnetic.381EyBkZ2u = 0;
com.typemytype.robofont.guideline.magnetic.3gzHTykbxG = 10;
com.typemytype.robofont.guideline.magnetic.6G11CNnEgZ = 10;
com.typemytype.robofont.guideline.magnetic.6TEheYUBFv = 10;
com.typemytype.robofont.guideline.magnetic.7R6GJ8OcGb = 10;
com.typemytype.robofont.guideline.magnetic.7nxtuKxV0k = 10;
com.typemytype.robofont.guideline.magnetic.8Y9YICi7AX = 0;
com.typemytype.robofont.guideline.magnetic.8YYXE5ezAG = 0;
com.typemytype.robofont.guideline.magnetic.8ajk5d9iks = 10;
com.typemytype.robofont.guideline.magnetic.91yVrwtBis = 10;
com.typemytype.robofont.guideline.magnetic.9FcraWWLId = 0;
com.typemytype.robofont.guideline.magnetic.AHRry7UZYy = 10;
com.typemytype.robofont.guideline.magnetic.AedkVa4sy9 = 0;
com.typemytype.robofont.guideline.magnetic.B5jQTM684c = 0;
com.typemytype.robofont.guideline.magnetic.CJl5988vwx = 10;
com.typemytype.robofont.guideline.magnetic.CNajKOKaFR = 0;
com.typemytype.robofont.guideline.magnetic.Cd4sKsRrdF = 10;
com.typemytype.robofont.guideline.magnetic.CoX8SKnkbq = 0;
com.typemytype.robofont.guideline.magnetic.DVt5Irnj4Q = 10;
com.typemytype.robofont.guideline.magnetic.EWYVRJHOGU = 10;
com.typemytype.robofont.guideline.magnetic.EgFipeol3T = 10;
com.typemytype.robofont.guideline.magnetic.F9ZfWabQiu = 10;
com.typemytype.robofont.guideline.magnetic.FCjBZY6d6a = 0;
com.typemytype.robofont.guideline.magnetic.FR8YefJodo = 0;
com.typemytype.robofont.guideline.magnetic.FccODKA627 = 10;
com.typemytype.robofont.guideline.magnetic.GjuW9FikZr = 10;
com.typemytype.robofont.guideline.magnetic.GkdZK879Pj = 0;
com.typemytype.robofont.guideline.magnetic.Gnji2Jkq95 = 10;
com.typemytype.robofont.guideline.magnetic.Gx8O0iOMdD = 10;
com.typemytype.robofont.guideline.magnetic.H67uZUWozQ = 0;
com.typemytype.robofont.guideline.magnetic.HrU7PA5VP6 = 10;
com.typemytype.robofont.guideline.magnetic.HxwGFm8iti = 0;
com.typemytype.robofont.guideline.magnetic.I8YiQ7uxU7 = 0;
com.typemytype.robofont.guideline.magnetic.IJuNXUQE0u = 0;
com.typemytype.robofont.guideline.magnetic.JH8BGTmnCp = 10;
com.typemytype.robofont.guideline.magnetic.Jot2rw6940 = 10;
com.typemytype.robofont.guideline.magnetic.JqVkO2TBw6 = 0;
com.typemytype.robofont.guideline.magnetic.JtFJlQFOCl = 0;
com.typemytype.robofont.guideline.magnetic.K6LhgX4iD6 = 0;
com.typemytype.robofont.guideline.magnetic.KK8aFhDiqL = 0;
com.typemytype.robofont.guideline.magnetic.KcNgMtAqAd = 0;
com.typemytype.robofont.guideline.magnetic.LDcBOGERWA = 10;
com.typemytype.robofont.guideline.magnetic.LL6po2KQpw = 0;
com.typemytype.robofont.guideline.magnetic.LNTLARbaTE = 10;
com.typemytype.robofont.guideline.magnetic.MPn492ALn9 = 0;
com.typemytype.robofont.guideline.magnetic.MS8iUEx6fD = 0;
com.typemytype.robofont.guideline.magnetic.MkehU4eJC4 = 0;
com.typemytype.robofont.guideline.magnetic.Mrd0caeKyK = 10;
com.typemytype.robofont.guideline.magnetic.NavRWI8SOu = 10;
com.typemytype.robofont.guideline.magnetic.NemcL1mwsM = 10;
com.typemytype.robofont.guideline.magnetic.NovLbEwbwm = 0;
com.typemytype.robofont.guideline.magnetic.O3LRdXQ5NO = 10;
com.typemytype.robofont.guideline.magnetic.OMcU17Qj1f = 0;
com.typemytype.robofont.guideline.magnetic.Ox1gaC1N6D = 10;
com.typemytype.robofont.guideline.magnetic.Oxer8AHsh2 = 0;
com.typemytype.robofont.guideline.magnetic.Pd6s6gB1y8 = 0;
com.typemytype.robofont.guideline.magnetic.Q2uJ4yAZZQ = 0;
com.typemytype.robofont.guideline.magnetic.QAv4W8ut6a = 10;
com.typemytype.robofont.guideline.magnetic.QQhmGcQQCh = 0;
com.typemytype.robofont.guideline.magnetic.QkKGie4p6h = 10;
com.typemytype.robofont.guideline.magnetic.RfZ7qufwbA = 10;
com.typemytype.robofont.guideline.magnetic.S6Jn40st8o = 10;
com.typemytype.robofont.guideline.magnetic.Spw8HSNr0W = 10;
com.typemytype.robofont.guideline.magnetic.Uykv3I34y9 = 10;
com.typemytype.robofont.guideline.magnetic.VfIE6h3XtV = 0;
com.typemytype.robofont.guideline.magnetic.VznwS20aLQ = 0;
com.typemytype.robofont.guideline.magnetic.W77du4Wzr4 = 0;
com.typemytype.robofont.guideline.magnetic.WssLbXn6ID = 10;
com.typemytype.robofont.guideline.magnetic.XLOPXTZGpA = 0;
com.typemytype.robofont.guideline.magnetic.XVx3nL3U33 = 10;
com.typemytype.robofont.guideline.magnetic.Z1wL4D2ntX = 10;
com.typemytype.robofont.guideline.magnetic.ZXasVtnXAB = 10;
com.typemytype.robofont.guideline.magnetic.ZuP36E1ciM = 0;
com.typemytype.robofont.guideline.magnetic.a782JoV7YO = 0;
com.typemytype.robofont.guideline.magnetic.aBHXFp7vGN = 10;
com.typemytype.robofont.guideline.magnetic.aHAISe8WDJ = 0;
com.typemytype.robofont.guideline.magnetic.aITEaegYm6 = 0;
com.typemytype.robofont.guideline.magnetic.azYgrk7zYn = 10;
com.typemytype.robofont.guideline.magnetic.bMKZ2XDv1d = 0;
com.typemytype.robofont.guideline.magnetic.bqdKVQYtM0 = 0;
com.typemytype.robofont.guideline.magnetic.c7is8NTGX0 = 10;
com.typemytype.robofont.guideline.magnetic.d4R2ODRsVf = 0;
com.typemytype.robofont.guideline.magnetic.d4eYysTQsE = 0;
com.typemytype.robofont.guideline.magnetic.dejeL8ZsPU = 0;
com.typemytype.robofont.guideline.magnetic.e8gTEqO1oq = 10;
com.typemytype.robofont.guideline.magnetic.fDxrjXoynx = 10;
com.typemytype.robofont.guideline.magnetic.fFMgIB7j8E = 10;
com.typemytype.robofont.guideline.magnetic.gQkPF8qwN0 = 10;
com.typemytype.robofont.guideline.magnetic.gcsByambCi = 0;
com.typemytype.robofont.guideline.magnetic.gdwXUGdu4q = 0;
com.typemytype.robofont.guideline.magnetic.gyhbV6xukd = 10;
com.typemytype.robofont.guideline.magnetic.i4aqmW3r8W = 10;
com.typemytype.robofont.guideline.magnetic.iSJpPVGmuL = 10;
com.typemytype.robofont.guideline.magnetic.ihOdBRgdHQ = 10;
com.typemytype.robofont.guideline.magnetic.ikk2yP3dme = 0;
com.typemytype.robofont.guideline.magnetic.j6dZqtu0vG = 10;
com.typemytype.robofont.guideline.magnetic.jDY0LW4zbD = 10;
com.typemytype.robofont.guideline.magnetic.kc59KAPPIc = 0;
com.typemytype.robofont.guideline.magnetic.li2bI0EVUP = 0;
com.typemytype.robofont.guideline.magnetic.n7S1z4xwZH = 0;
com.typemytype.robofont.guideline.magnetic.orzBaWRedR = 10;
com.typemytype.robofont.guideline.magnetic.p2Nndqc8px = 10;
com.typemytype.robofont.guideline.magnetic.p4Lswwf5Iz = 10;
com.typemytype.robofont.guideline.magnetic.p4ePDKlNmO = 10;
com.typemytype.robofont.guideline.magnetic.pLkbwkYVId = 10;
com.typemytype.robofont.guideline.magnetic.pTORTOOG4g = 10;
com.typemytype.robofont.guideline.magnetic.pUVR9RcKGh = 0;
com.typemytype.robofont.guideline.magnetic.pYz3vMG3xE = 0;
com.typemytype.robofont.guideline.magnetic.pjXwHTjVz0 = 10;
com.typemytype.robofont.guideline.magnetic.rk7dRfDKTU = 10;
com.typemytype.robofont.guideline.magnetic.s1hb4Vj2uO = 10;
com.typemytype.robofont.guideline.magnetic.s9xcWfX9Th = 0;
com.typemytype.robofont.guideline.magnetic.sB3jYpVDbo = 10;
com.typemytype.robofont.guideline.magnetic.sMMq79JQBJ = 0;
com.typemytype.robofont.guideline.magnetic.siYV9u9Jy7 = 0;
com.typemytype.robofont.guideline.magnetic.stIjj0P2tc = 10;
com.typemytype.robofont.guideline.magnetic.suDAod5X8X = 0;
com.typemytype.robofont.guideline.magnetic.t9ogMIpZcb = 10;
com.typemytype.robofont.guideline.magnetic.tKEEtyflGc = 10;
com.typemytype.robofont.guideline.magnetic.tsLMrirXVo = 10;
com.typemytype.robofont.guideline.magnetic.txEgJOo9To = 10;
com.typemytype.robofont.guideline.magnetic.u1EDVvteCD = 0;
com.typemytype.robofont.guideline.magnetic.uTppRP1b3p = 10;
com.typemytype.robofont.guideline.magnetic.uWWIOY8WTP = 0;
com.typemytype.robofont.guideline.magnetic.vIZ1Ppfi3u = 0;
com.typemytype.robofont.guideline.magnetic.vPtQvstniU = 0;
com.typemytype.robofont.guideline.magnetic.wF5O0ERkVX = 10;
com.typemytype.robofont.guideline.magnetic.wMdXmKBzVu = 10;
com.typemytype.robofont.guideline.magnetic.wNRvCRbT7R = 0;
com.typemytype.robofont.guideline.magnetic.wOLydlV7Ij = 0;
com.typemytype.robofont.guideline.magnetic.wis6VDa4yB = 0;
com.typemytype.robofont.guideline.magnetic.wwNYv8phJP = 10;
com.typemytype.robofont.guideline.magnetic.xgTTBuhuf7 = 0;
com.typemytype.robofont.guideline.magnetic.xm9CnXSHI0 = 10;
com.typemytype.robofont.guideline.magnetic.yihLUp7GzS = 0;
com.typemytype.robofont.guideline.magnetic.yzwmIu9FbA = 10;
com.typemytype.robofont.guideline.magnetic.zQwdpi2uGU = 10;
};
width = 800;
},
{
associatedMasterId = m01;
layerId = "FEA6709C-D74F-450C-9FCF-950387220F45";
name = overlap;
shapes = (
{
closed = 1;
nodes = (
(61,210,o),
(95,101,o),
(167,29,cs),
(199,-3,o),
(220,-10,o),
(247,-10,cs),
(269,-10,ls),
(285,-10,o),
(312,28,o),
(312,70,c),
(253,105,o),
(222,195,o),
(209,493,cs),
(208,507,o),
(203,516,o),
(195,524,cs),
(178,541,o),
(135,550,o),
(87,550,cs),
(73,550,o),
(56,548,o),
(45,545,c)
);
},
{
closed = 1;
nodes = (
(320,262,o),
(276,146,o),
(228,98,cs),
(209,79,o),
(245,-10,o),
(263,-10,cs),
(289,-10,l),
(356,56,o),
(419,251,o),
(438,456,cs),
(442,494,o),
(408,545,o),
(371,545,cs),
(358,545,o),
(343,544,o),
(330,540,c)
);
},
{
closed = 1;
nodes = (
(368,322,o),
(423,95,o),
(497,21,cs),
(523,-5,o),
(550,-10,o),
(571,-10,cs),
(594,-10,ls),
(602,-10,o),
(604,29,o),
(604,70,c),
(522,118,o),
(493,263,o),
(484,495,cs),
(482,535,o),
(425,545,o),
(371,545,cs),
(360,545,o),
(353,544,o),
(349,539,c)
);
},
{
closed = 1;
nodes = (
(589,215,o),
(567,154,o),
(518,114,cs),
(490,91,o),
(541,-10,o),
(584,-10,cs),
(601,-10,l),
(703,76,o),
(741,236,o),
(763,468,cs),
(765,486,o),
(762,501,o),
(750,513,cs),
(728,535,o),
(700,550,o),
(652,550,cs),
(638,550,o),
(622,548,o),
(610,544,c)
);
}
);
width = 800;
},
{
associatedMasterId = m01;
layerId = "1BBCDDB1-32FD-4C3F-88BA-EB997B3DCA7C";
name = support.w.middle;
shapes = (
{
closed = 1;
nodes = (
(341,338,o),
(303,195,o),
(242,84,c),
(235,84,l),
(187,167,o),
(160,277,o),
(150,494,cs),
(149,524,o),
(129,540,o),
(82,540,cs),
(72,540,o),
(64,539,o),
(58,538,c),
(67,223,o),
(119,89,o),
(200,5,cs),
(210,-5,o),
(222,-10,o),
(238,-10,cs),
(252,-10,o),
(262,-8,o),
(271,-3,c),
(335,95,o),
(378,208,o),
(395,328,c),
(402,328,l),
(422,203,o),
(473,74,o),
(523,6,cs),
(532,-6,o),
(544,-10,o),
(561,-10,cs),
(574,-10,o),
(582,-8,o),
(593,-5,c),
(677,91,o),
(734,255,o),
(744,491,cs),
(745,525,o),
(715,540,o),
(674,540,cs),
(665,540,o),
(659,539,o),
(654,538,c),
(646,292,o),
(614,176,o),
(560,85,c),
(554,85,l),
(500,185,o),
(459,331,o),
(449,483,cs),
(448,519,o),
(432,534,o),
(367,534,cs),
(356,534,l)
);
}
);
width = 800;
}
);
unicode = 119;
}
{
glyphname = x;
kernLeft = x_left;
kernRight = x_right;
layers = (
{
anchors = (
{
name = bottom;
pos = (300,-1);
},
{
name = top;
pos = (300,551);
}
);
layerId = m01;
shapes = (
{
closed = 1;
nodes = (
(93,422,o),
(161,309,o),
(238,203,cs),
(284,143,l),
(312,109,o),
(342,74,o),
(371,41,cs),
(404,3,o),
(429,-12,o),
(490,-12,cs),
(533,-12,o),
(563,-2,o),
(587,18,c),
(512,86,o),
(440,168,o),
(378,258,cs),
(336,324,l),
(302,379,o),
(273,439,o),
(246,498,cs),
(227,538,o),
(186,550,o),
(103,550,cs),
(78,550,o),
(52,547,o),
(34,542,c)
);
},
{
closed = 1;
nodes = (
(201,207,o),
(143,156,o),
(67,101,cs),
(40,81,o),
(32,71,o),
(32,52,cs),
(32,11,o),
(68,-10,o),
(174,-10,c),
(187,-10,l),
(230,35,o),
(261,78,o),
(291,129,c),
(338,129,l),
(249,263,l)
);
},
{
closed = 1;
nodes = (
(421,552,l),
(396.733,474.145,o),
(368,412,o),
(327,347,c),
(296,347,l),
(379,212,l),
(468,296,o),
(524.543,369.242,o),
(562,455,cs),
(567,467,o),
(569,477,o),
(569,486,cs),
(569,533.3,o),
(514.815,552,o),
(445,552,cs)
);
}
);
userData = {
com.arrowtype.glyphMarkStatus = fromComponents;
com.typemytype.robofont.Image.Brightness = 0;
com.typemytype.robofont.Image.Contrast = 1;
com.typemytype.robofont.Image.Saturation = 1;
com.typemytype.robofont.Image.Sharpness = 0.4;
com.typemytype.robofont.guideline.magnetic.0wDoOunpW3 = 10;
com.typemytype.robofont.guideline.magnetic.2qxYSZ17xk = 10;
com.typemytype.robofont.guideline.magnetic.2zypz9J7X3 = 10;
com.typemytype.robofont.guideline.magnetic.4YF0dFXZAc = 10;
com.typemytype.robofont.guideline.magnetic.5CLxfA5iFU = 10;
com.typemytype.robofont.guideline.magnetic.5TTh0GfSf0 = 10;
com.typemytype.robofont.guideline.magnetic.5m4fivC7JF = 10;
com.typemytype.robofont.guideline.magnetic.68PSswSzgD = 10;
com.typemytype.robofont.guideline.magnetic.6YHPS5S2kc = 10;
com.typemytype.robofont.guideline.magnetic.71xN0wEkHZ = 10;
com.typemytype.robofont.guideline.magnetic.8zpSFv7qPW = 10;
com.typemytype.robofont.guideline.magnetic.9hIfZ9gKj5 = 10;
com.typemytype.robofont.guideline.magnetic.AbgtdeJvMY = 10;
com.typemytype.robofont.guideline.magnetic.BZquxmGYrr = 10;
com.typemytype.robofont.guideline.magnetic.EenEudRqpr = 10;
com.typemytype.robofont.guideline.magnetic.GmOzrl5i2O = 10;
com.typemytype.robofont.guideline.magnetic.IDYYFAslxM = 10;
com.typemytype.robofont.guideline.magnetic.LG1CV3jDHJ = 10;
com.typemytype.robofont.guideline.magnetic.LTSHqvrOwG = 10;
com.typemytype.robofont.guideline.magnetic.Uyi83X2qK2 = 10;
com.typemytype.robofont.guideline.magnetic.Vam26KeOCz = 10;
com.typemytype.robofont.guideline.magnetic.XfQ6z891aD = 10;
com.typemytype.robofont.guideline.magnetic.ZDKLs1DNAV = 10;
com.typemytype.robofont.guideline.magnetic.fgzfy8E5DV = 10;
com.typemytype.robofont.guideline.magnetic.gGVsOmhC1b = 10;
com.typemytype.robofont.guideline.magnetic.jpS8F5QsNP = 10;
com.typemytype.robofont.guideline.magnetic.kcVXVCB7KM = 10;
com.typemytype.robofont.guideline.magnetic.mY2vZdcyQr = 10;
com.typemytype.robofont.guideline.magnetic.mj1E4bJ4fN = 10;
com.typemytype.robofont.guideline.magnetic.tD0puWSaF1 = 10;
com.typemytype.robofont.guideline.magnetic.uXMu0yaJI7 = 10;
com.typemytype.robofont.guideline.magnetic.y0kCXBeEOX = 10;
com.typemytype.robofont.guideline.magnetic.ywWlpUeVM0 = 10;
};
width = 600;
}
);
unicode = 120;
}
{
glyphname = y;
kernLeft = v_left;
kernRight = v_right;
layers = (
{
anchors = (
{
name = bottom;
pos = (300,-201);
},
{
name = dot;
pos = (545,-161);
},
{
name = hook;
pos = (301,584);
},
{
name = top;
pos = (300,551);
}
);
layerId = m01;
shapes = (
{
closed = 1;
nodes = (
(432,548,o),
(414,546,o),
(388,540,c),
(394,249,o),
(340,72,o),
(284,16,cs),
(234,-34,o),
(173,-51,o),
(116,-51,cs),
(109,-51,o),
(104,-51,o),
(97,-51,c),
(91,-51,l),
(91,-55,l),
(91,-109,o),
(104,-154,o),
(124,-174,cs),
(143,-193,o),
(162,-200,o),
(189,-200,cs),
(246,-200,o),
(302,-167,o),
(358,-111,cs),
(456,-13,o),
(534,177,o),
(555,460,cs),
(561,527,o),
(516,548,o),
(449,548,cs)
);
},
{
closed = 1;
nodes = (
(78,547,o),
(61,545,o),
(38,540,c),
(59,278,o),
(121,158,o),
(183,85,cs),
(219,43,o),
(258,30,o),
(329,30,cs),
(336,30,l),
(367,117,l),
(333,117,l),
(271,185,o),
(227,300,o),
(213,479,cs),
(209,528,o),
(171,547,o),
(100,547,cs)
);
}
);
userData = {
com.arrowtype.glyphMarkStatus = fromComponents;
};
width = 600;
}
);
unicode = 121;
}
{
glyphname = z;
kernLeft = z_left;
kernRight = z_right;
layers = (
{
anchors = (
{
name = bottom;
pos = (281,0);
},
{
name = top;
pos = (275,551);
}
);
layerId = m01;
shapes = (
{
closed = 1;
nodes = (
(41,528,o),
(40,515,o),
(40,500,cs),
(40,430,o),
(59,390,o),
(112,390,cs),
(182,390,ls),
(229,390,o),
(270,393,o),
(325,403,c),
(325,396,l),
(312,370,o),
(290,347,o),
(273,328,cs),
(202,251,o),
(123,191,o),
(40,140,c),
(40,125,ls),
(40,60,o),
(55,0,o),
(105,0,cs),
(503,0,l),
(507,17,o),
(510,40,o),
(510,63,cs),
(510,129,o),
(493,150,o),
(435,150,cs),
(366,150,ls),
(318,150,o),
(270,147,o),
(228,140,c),
(228,147,l),
(255,161,o),
(282,179,o),
(309,198,cs),
(413,272,o),
(510,372,o),
(510,407,cs),
(510,415,ls),
(510,466,o),
(471,540,o),
(412,540,cs),
(45,540,l)
);
}
);
userData = {
com.arrowtype.glyphMarkStatus = check;
};
width = 550;
},
{
associatedMasterId = m01;
layerId = "8773B833-6FE3-4DD3-A06D-ED99A5631EC2";
name = "old-sans";
shapes = (
{
closed = 1;
nodes = (
(41,528,o),
(40,515,o),
(40,500,cs),
(40,459,o),
(52,424,o),
(69,407,cs),
(81,395,o),
(90,390,o),
(112,390,cs),
(190,390,ls),
(287,390,o),
(416,393,o),
(510,407,c),
(510,415,ls),
(510,457,o),
(489,495,o),
(461,523,cs),
(448,536,o),
(436,540,o),
(412,540,cs),
(45,540,l)
);
},
{
closed = 1;
nodes = (
(294,339,o),
(192,229,o),
(40,140,c),
(40,99,o),
(111,85,o),
(165,107,cs),
(305,166,o),
(510,355,o),
(510,407,cs),
(510,449,o),
(465,467,o),
(387,467,c)
);
},
{
closed = 1;
nodes = (
(507,17,o),
(510,40,o),
(510,63,cs),
(510,129,o),
(493,150,o),
(435,150,cs),
(360,150,ls),
(247,150,o),
(142,146,o),
(40,140,c),
(40,125,ls),
(40,77,o),
(52,34,o),
(75,11,cs),
(83,3,o),
(92,0,o),
(105,0,cs),
(503,0,l)
);
}
);
width = 500;
}
);
unicode = 122;
}
{
glyphname = bar;
layers = (
{
layerId = m01;
shapes = (
{
closed = 1;
nodes = (
(67,722,o),
(71,685,o),
(71,645,cs),
(71,398,o),
(71,150,o),
(71,-97,cs),
(71,-142,o),
(112,-164,o),
(194,-164,cs),
(211,-164,o),
(223,-163,o),
(231,-161,c),
(231,114,o),
(231,389,o),
(231,664,cs),
(231,724,o),
(201,765,o),
(125,765,cs),
(100,765,o),
(81,763,o),
(58,758,c)
);
}
);
userData = {
com.typemytype.robofont.Image.Brightness = 0;
com.typemytype.robofont.Image.Contrast = 1;
com.typemytype.robofont.Image.Saturation = 1;
com.typemytype.robofont.Image.Sharpness = 0.4;
};
width = 300;
}
);
unicode = 124;
}
{
glyphname = gravecomb;
layers = (
{
anchors = (
{
name = _top;
pos = (301,549);
}
);
layerId = m01;
shapes = (
{
closed = 1;
nodes = (
(214,813,o),
(174,807,o),
(149,794,cs),
(130,784,o),
(125,765,o),
(130,745,cs),
(143,693,o),
(175,655,o),
(210,633,cs),
(235,617,o),
(260,611,o),
(296,611,cs),
(325,611,o),
(349,617,o),
(372,630,c),
(310,687,o),
(281,733,o),
(260,812,c)
);
}
);
userData = {
com.arrowtype.glyphMarkStatus = fromComponents;
};
width = 500;
}
);
metricRight = "=|";
metricWidth = "=500";
unicode = 768;
}
{
glyphname = ringcomb;
layers = (
{
anchors = (
{
name = _top;
pos = (250,549);
},
{
name = top;
pos = (250,852);
}
);
layerId = m01;
shapes = (
{
closed = 1;
nodes = (
(171,868,o),
(111,812,o),
(111,731,cs),
(111,724,ls),
(111,644,o),
(169,592,o),
(247,592,cs),
(329,592,o),
(389,649,o),
(389,730,cs),
(389,737,ls),
(389,816,o),
(331,868,o),
(253,868,cs)
);
},
{
closed = 1;
nodes = (
(269,785,o),
(280,781,o),
(291,770,c),
(296,762,o),
(298,753,o),
(298,742,cs),
(298,735,ls),
(298,709,o),
(278,690,o),
(250,690,cs),
(232,690,o),
(218,693,o),
(205,705,c),
(203,712,o),
(202,721,o),
(202,729,cs),
(202,736,ls),
(202,767,o),
(221,785,o),
(253,785,cs)
);
}
);
userData = {
com.arrowtype.glyphMarkStatus = fromComponents;
};
width = 500;
}
);
metricRight = "=|";
metricWidth = "=500";
unicode = 778;
}
{
glyphname = dotbelowcomb;
layers = (
{
anchors = (
{
name = _bottom;
pos = (250,-11);
},
{
name = _dot;
pos = (250,-146);
}
);
layerId = m01;
shapes = (
{
closed = 1;
nodes = (
(156,-159,ls),
(156,-213,o),
(205,-221,o),
(266,-221,cs),
(289,-221,o),
(319,-219,o),
(344,-215,c),
(344,-132,ls),
(344,-78,o),
(295,-70,o),
(234,-70,cs),
(211,-70,o),
(181,-72,o),
(156,-76,c)
);
}
);
userData = {
com.arrowtype.glyphMarkStatus = fromComponents;
};
width = 500;
}
);
metricRight = "=|";
metricWidth = "=500";
unicode = 803;
}
{
glyphname = Abreveacute;
layers = (
{
layerId = m01;
shapes = (
{
closed = 1;
nodes = (
(412,901,o),
(382,883,o),
(335,879,c),
(288,883,o),
(258,901,o),
(236,938,c),
(200,938,o),
(177,934,o),
(155,922,cs),
(141,914,o),
(139,901,o),
(142,889,cs),
(162,813,o),
(226,765,o),
(331,765,cs),
(339,765,ls),
(444,765,o),
(508,813,o),
(528,889,cs),
(531,901,o),
(529,914,o),
(515,922,cs),
(493,934,o),
(470,938,o),
(434,938,c)
);
},
{
closed = 1;
nodes = (
(342,1060,o),
(309,1006,o),
(265,966,c),
(297,954,o),
(319,950,o),
(346,950,cs),
(373,950,o),
(394,956,o),
(416,975,cs),
(440,995,o),
(457,1016,o),
(472,1053,cs),
(487,1090,o),
(479,1110,o),
(451,1117,cs),
(426,1123,o),
(400,1126,o),
(361,1126,c)
);
},
{
ref = A;
}
);
width = 650;
}
);
metricWidth = A;
unicode = 7854;
}
{
glyphname = .notdef;
layers = (
{
background = {
shapes = (
{
closed = 1;
nodes = (
(50,442,o),
(50,262,o),
(50,80,cs),
(50,14,o),
(67,-7,o),
(123,-7,cs),
(550,-7,l),
(550,26,o),
(550,61,o),
(550,96,cs),
(550,269,o),
(550,458,o),
(550,623,cs),
(550,689,o),
(533,710,o),
(477,710,cs),
(50,710,l),
(50,682,o),
(50,652,o),
(50,623,cs)
);
},
{
closed = 1;
nodes = (
(187,570,l),
(413,570,l),
(390,585,l),
(390,430,o),
(390,275,o),
(390,118,c),
(413,133,l),
(187,133,l),
(210,118,l),
(210,273,o),
(210,430,o),
(210,585,c)
);
},
{
closed = 1;
nodes = (
(273,154,o),
(316,243,o),
(349,323,cs),
(367,366,o),
(381,433,o),
(384,485,c),
(361,475,l),
(449,475,l),
(449,607,l),
(353,607,l),
(321,533,o),
(291,462,o),
(274,416,cs),
(229,300,o),
(216,252,o),
(215,193,c),
(233,219,l),
(168,219,l),
(168,82,l),
(233,82,l)
);
}
);
};
layerId = m01;
shapes = (
{
closed = 1;
nodes = (
(0,820,l),
(600,820,l),
(600,-250,l),
(0,-250,l)
);
},
{
closed = 1;
nodes = (
(550,689,o),
(533,710,o),
(477,710,cs),
(50,710,l),
(50,80,ls),
(50,14,o),
(67,-7,o),
(123,-7,cs),
(550,-7,l),
(550,623,ls)
);
},
{
closed = 1;
nodes = (
(236,317,o),
(221,268,o),
(216,219,c),
(210,219,l),
(210,570,l),
(327,570,l),
(337,570,l),
(312,510,o),
(288,454,o),
(274,416,cs)
);
},
{
closed = 1;
nodes = (
(366,363,o),
(379,425,o),
(383,475,c),
(390,475,l),
(390,133,l),
(270,133,l),
(260,133,l),
(292,194,o),
(323,261,o),
(349,323,cs)
);
}
);
width = 600;
}
);
}
{
export = 0;
glyphname = exclam.001;
layers = (
{
layerId = m01;
shapes = (
{
closed = 1;
nodes = (
(251,355,o),
(265,463,o),
(265,529,c),
(265,641,ls),
(265,689,o),
(209,710,o),
(139,710,cs),
(114,710,o),
(95,709,o),
(72,703,c),
(81,667,o),
(85,630,o),
(85,590,cs),
(85,535,ls),
(85,456,o),
(98,343,o),
(120,321,cs),
(139,302,o),
(172,290,o),
(220,290,c),
(235,290,l)
);
},
{
ref = period;
}
);
userData = {
com.arrowtype.glyphMarkStatus = needsFixing;
com.typemytype.robofont.guideline.magnetic.0HIXpdxyWk = 10;
com.typemytype.robofont.guideline.magnetic.3Lc2waOiu3 = 10;
com.typemytype.robofont.guideline.magnetic.3dsrirYOvp = 10;
com.typemytype.robofont.guideline.magnetic.4s2XOj5axK = 10;
com.typemytype.robofont.guideline.magnetic.85yiFnkgUq = 10;
com.typemytype.robofont.guideline.magnetic.B8I2y3dbbC = 10;
com.typemytype.robofont.guideline.magnetic.G1pPRPEdq0 = 10;
com.typemytype.robofont.guideline.magnetic.MoVHlbBAQQ = 10;
com.typemytype.robofont.guideline.magnetic.PkahEy7DVO = 10;
com.typemytype.robofont.guideline.magnetic.TMEIVverWe = 10;
com.typemytype.robofont.guideline.magnetic.ZArF92iAOQ = 10;
com.typemytype.robofont.guideline.magnetic.ZnCHYXeDpG = 10;
com.typemytype.robofont.guideline.magnetic.djqDXfrITQ = 10;
com.typemytype.robofont.guideline.magnetic.eY1ExmHe0j = 10;
com.typemytype.robofont.guideline.magnetic.giKhDLJVid = 10;
com.typemytype.robofont.guideline.magnetic.gsQvqslc3Y = 10;
com.typemytype.robofont.guideline.magnetic.j6ZPWGyOMM = 10;
com.typemytype.robofont.guideline.magnetic.mc7XPIDZWF = 10;
com.typemytype.robofont.guideline.magnetic.msGkUupIdP = 10;
com.typemytype.robofont.guideline.magnetic.nS0xeD2nH3 = 10;
com.typemytype.robofont.guideline.magnetic.napQmEmOuQ = 10;
com.typemytype.robofont.guideline.magnetic.nj6FkiqCgK = 10;
com.typemytype.robofont.guideline.magnetic.oG523TMpIB = 10;
com.typemytype.robofont.guideline.magnetic.tT2NCb1SBd = 10;
com.typemytype.robofont.guideline.magnetic.ufXmhClChE = 10;
com.typemytype.robofont.guideline.magnetic.vObIPyhbkB = 10;
com.typemytype.robofont.guideline.magnetic.xzpNoqRtHG = 10;
};
width = 350;
}
);
}
{
export = 0;
glyphname = question.001;
layers = (
{
layerId = m01;
shapes = (
{
closed = 1;
nodes = (
(384,114,ls),
(384,177,o),
(315,186,o),
(254,186,cs),
(231,186,o),
(201,184,o),
(176,180,c),
(176,61,ls),
(176,-2,o),
(245,-11,o),
(306,-11,cs),
(329,-11,o),
(359,-9,o),
(384,-5,c)
);
},
{
closed = 1;
nodes = (
(219,720,o),
(146,700,o),
(113,667,cs),
(92,646,o),
(81,610,o),
(81,569,cs),
(81,542,o),
(84,524,o),
(92,504,c),
(98,504,l),
(161,549,o),
(227,570,o),
(312,570,cs),
(343,570,o),
(366,567,o),
(383,562,c),
(384,556,o),
(384,549,o),
(384,541,cs),
(384,512,o),
(378,486,o),
(322,447,cs),
(299,431,ls),
(227,381,o),
(213,356,o),
(213,330,cs),
(213,326,ls),
(213,291,o),
(255,252,o),
(336,252,cs),
(344,252,l),
(344,255,ls),
(344,282,o),
(355,305,o),
(391,327,cs),
(421,345,ls),
(504,395,o),
(535,461,o),
(535,524,cs),
(535,527,ls),
(535,629,o),
(461,720,o),
(305,720,cs)
);
}
);
userData = {
com.arrowtype.glyphMarkStatus = fromComponents;
com.typemytype.robofont.Image.Brightness = 0;
com.typemytype.robofont.Image.Contrast = 1;
com.typemytype.robofont.Image.Saturation = 1;
com.typemytype.robofont.Image.Sharpness = 0.4;
com.typemytype.robofont.guideline.magnetic.0tpcWRobrU = 0;
com.typemytype.robofont.guideline.magnetic.1HKcmIgvly = 0;
com.typemytype.robofont.guideline.magnetic.2qhUn3cONS = 0;
com.typemytype.robofont.guideline.magnetic.39293df7AS = 0;
com.typemytype.robofont.guideline.magnetic.5Q7NXTGZdQ = 0;
com.typemytype.robofont.guideline.magnetic.6JaTKKfSn2 = 0;
com.typemytype.robofont.guideline.magnetic.7q2HOVkRzd = 0;
com.typemytype.robofont.guideline.magnetic.8iJUtyIu2p = 0;
com.typemytype.robofont.guideline.magnetic.AgPQp2C7od = 0;
com.typemytype.robofont.guideline.magnetic.BzP9fZtoCl = 0;
com.typemytype.robofont.guideline.magnetic.DdLLm33Bgu = 0;
com.typemytype.robofont.guideline.magnetic.EHYmLn3KoN = 0;
com.typemytype.robofont.guideline.magnetic.NJzStYZvzX = 0;
com.typemytype.robofont.guideline.magnetic.OKNNHqF4XR = 0;
com.typemytype.robofont.guideline.magnetic.QYQEn0T27a = 0;
com.typemytype.robofont.guideline.magnetic.RFrB2Z8Aco = 0;
com.typemytype.robofont.guideline.magnetic.SKugKqqKoC = 0;
com.typemytype.robofont.guideline.magnetic.U4K9f0dV4f = 0;
com.typemytype.robofont.guideline.magnetic.XJcN4Kk8We = 0;
com.typemytype.robofont.guideline.magnetic.b3Vda2wuxZ = 0;
com.typemytype.robofont.guideline.magnetic.de5POlemJP = 0;
com.typemytype.robofont.guideline.magnetic.elGuQuvwFC = 0;
com.typemytype.robofont.guideline.magnetic.j1uVRQumBj = 0;
com.typemytype.robofont.guideline.magnetic.jA2jjvmRGN = 0;
com.typemytype.robofont.guideline.magnetic.lyOosaJV0t = 0;
com.typemytype.robofont.guideline.magnetic.mZCeDQmBZx = 0;
com.typemytype.robofont.guideline.magnetic.p9TAftYCNn = 0;
com.typemytype.robofont.guideline.magnetic.pS7a7j8exb = 0;
com.typemytype.robofont.guideline.magnetic.pzeHU5JCcI = 0;
com.typemytype.robofont.guideline.magnetic.skvQQpHcWe = 0;
com.typemytype.robofont.guideline.magnetic.w3a4sFusB6 = 0;
com.typemytype.robofont.guideline.magnetic.xddIAdCtQx = 0;
com.typemytype.robofont.guideline.magnetic.yYUnGKIJZx = 0;
};
width = 600;
},
{
associatedMasterId = m01;
layerId = "54267E6D-E4C2-454C-9C31-66123AED227B";
name = 45degrees;
shapes = (
{
closed = 1;
nodes = (
(219,720,o),
(146,700,o),
(113,667,cs),
(92,646,o),
(81,610,o),
(81,569,cs),
(81,542,o),
(84,524,o),
(92,504,c),
(96,504,l),
(159,549,o),
(227,570,o),
(312,570,cs),
(382,570,o),
(427,551,o),
(464,506,c),
(502,560,o),
(521,620,o),
(481,659,cs),
(443,696,o),
(378,720,o),
(305,720,cs)
);
},
{
closed = 1;
nodes = (
(455,685,o),
(375,672,o),
(332,634,c),
(375,595,o),
(384,577,o),
(384,541,cs),
(384,512,o),
(378,486,o),
(322,447,cs),
(299,431,ls),
(227,381,o),
(213,356,o),
(213,330,cs),
(213,326,ls),
(213,291,o),
(255,252,o),
(336,252,cs),
(344,252,l),
(344,255,ls),
(344,282,o),
(355,305,o),
(391,327,cs),
(421,345,ls),
(504,395,o),
(535,461,o),
(535,524,cs),
(535,527,ls),
(535,583,o),
(519,621,o),
(481,659,cs)
);
},
{
closed = 1;
nodes = (
(384,114,ls),
(384,177,o),
(315,186,o),
(254,186,cs),
(231,186,o),
(201,184,o),
(176,180,c),
(176,61,ls),
(176,-2,o),
(245,-11,o),
(306,-11,cs),
(329,-11,o),
(359,-9,o),
(384,-5,c)
);
}
);
width = 600;
}
);
}
{
glyphname = question.t1400;
layers = (
{
background = {
shapes = (
{
closed = 1;
nodes = (
(211,93,o),
(202,94,o),
(196,99,cs),
(186,105,o),
(184,115,o),
(190,123,cs),
(199,136,o),
(210,137,o),
(224,150,c),
(224,150,o),
(224,151,o),
(223,152,c),
(198,155,o),
(192,151,o),
(174,155,c),
(170,160,o),
(168,169,o),
(171,176,c),
(174,188,o),
(182,193,o),
(192,189,cs),
(207,185,o),
(211,174,o),
(227,165,c),
(228,166,o),
(229,166,o),
(230,166,c),
(224,192,o),
(219,196,o),
(217,214,c),
(220,219,o),
(229,224,o),
(236,224,cs),
(248,224,o),
(255,218,o),
(255,208,cs),
(255,192,o),
(248,186,o),
(244,167,c),
(244,166,o),
(245,166,o),
(246,165,c),
(268,178,o),
(271,185,o),
(287,191,c),
(293,190,o),
(300,184,o),
(302,176,cs),
(306,165,o),
(302,156,o),
(293,153,cs),
(278,148,o),
(269,154,o),
(250,152,c),
(250,151,o),
(250,150,o),
(249,149,c),
(268,132,o),
(275,132,o),
(287,118,c),
(287,112,o),
(284,103,o),
(277,99,cs),
(268,92,o),
(258,93,o),
(252,101,cs),
(243,113,o),
(245,124,o),
(238,141,c),
(238,141,o),
(237,141,o),
(237,141,cs),
(236,141,o),
(235,141,o),
(235,141,c),
(225,118,o),
(227,111,o),
(217,95,c)
);
}
);
};
layerId = m01;
shapes = (
{
closed = 1;
nodes = (
(541,1050,l),
(366,700,l),
(366,0,l),
(541,-350,l)
);
},
{
ref = exclam;
},
{
closed = 1;
nodes = (
(227,267,o),
(219,275,o),
(219,293,cs),
(219,327,o),
(219,361,o),
(219,395,c),
(213,395,ls),
(184,395,o),
(175,404,o),
(175,420,cs),
(175,424,o),
(175,426,o),
(176,430,c),
(282,430,ls),
(294,430,o),
(298,420,o),
(298,409,cs),
(298,403,o),
(298,399,o),
(297,395,c),
(247,395,l),
(247,394,l),
(253,390,o),
(256,383,o),
(256,373,cs),
(256,346,o),
(256,319,o),
(256,291,cs),
(256,284,o),
(256,276,o),
(258,269,c),
(254,268,o),
(251,267,o),
(246,267,cs)
);
},
{
closed = 1;
nodes = (
(401,267,o),
(394,273,o),
(394,296,cs),
(394,307,o),
(394,316,o),
(394,327,c),
(384,328,o),
(382,339,o),
(382,355,cs),
(382,361,l),
(394,361,l),
(394,375,o),
(394,390,o),
(394,405,cs),
(394,414,o),
(393,422,o),
(391,430,c),
(396,431,o),
(400,432,o),
(406,432,cs),
(423,432,o),
(430,422,o),
(430,408,cs),
(430,393,o),
(430,377,o),
(430,361,c),
(450,361,ls),
(460,361,o),
(467,359,o),
(473,354,c),
(474,355,l),
(474,379,o),
(474,404,o),
(474,430,c),
(479,431,o),
(483,432,o),
(488,432,cs),
(503,432,o),
(511,427,o),
(511,408,cs),
(511,376,o),
(511,335,o),
(511,295,cs),
(511,286,o),
(511,277,o),
(513,269,c),
(508,268,o),
(503,267,o),
(497,267,cs),
(483,267,o),
(474,276,o),
(474,294,cs),
(474,305,o),
(474,316,o),
(474,326,c),
(430,326,l),
(430,307,o),
(430,288,o),
(430,269,c),
(425,268,o),
(421,267,o),
(415,267,cs)
);
},
{
closed = 1;
nodes = (
(636,267,o),
(632,269,o),
(629,271,cs),
(612,288,o),
(604,319,o),
(604,401,cs),
(604,412,o),
(603,423,o),
(601,430,c),
(607,431,o),
(612,432,o),
(616,432,cs),
(633,432,o),
(640,424,o),
(640,405,cs),
(640,363,o),
(640,328,o),
(643,305,c),
(645,305,l),
(654,328,o),
(657,348,o),
(657,389,c),
(663,389,ls),
(674,389,o),
(677,386,o),
(678,374,cs),
(680,344,o),
(681,329,o),
(690,305,c),
(692,305,l),
(697,339,o),
(698,380,o),
(694,430,c),
(699,431,o),
(703,432,o),
(708,432,cs),
(725,432,o),
(731,427,o),
(731,392,cs),
(731,330,o),
(720,297,o),
(704,268,c),
(703,267,o),
(702,267,o),
(700,267,cs),
(694,267,o),
(692,268,o),
(687,273,cs),
(680,281,o),
(673,296,o),
(669,319,c),
(667,319,l),
(661,296,o),
(654,281,o),
(646,268,c),
(645,267,o),
(642,267,o),
(640,267,cs)
);
},
{
closed = 1;
nodes = (
(756,1050,l),
(581,700,l),
(581,0,l),
(756,-350,l)
);
},
{
closed = 1;
nodes = (
(326,700,l),
(311,700,o),
(297,700,o),
(283,700,cs),
(235,700,o),
(190,690,o),
(151,663,c),
(151,0,l),
(326,-350,l)
);
},
{
closed = 1;
nodes = (
(326,-350,l),
(151,-525,l),
(326,-700,l)
);
}
);
userData = {
com.arrowtype.glyphMarkStatus = fromComponents;
com.typemytype.robofont.Image.Brightness = 0;
com.typemytype.robofont.Image.Contrast = 1;
com.typemytype.robofont.Image.Saturation = 1;
com.typemytype.robofont.Image.Sharpness = 0.4;
com.typemytype.robofont.guideline.magnetic.0tpcWRobrU = 0;
com.typemytype.robofont.guideline.magnetic.1HKcmIgvly = 0;
com.typemytype.robofont.guideline.magnetic.2qhUn3cONS = 0;
com.typemytype.robofont.guideline.magnetic.39293df7AS = 0;
com.typemytype.robofont.guideline.magnetic.5Q7NXTGZdQ = 0;
com.typemytype.robofont.guideline.magnetic.6JaTKKfSn2 = 0;
com.typemytype.robofont.guideline.magnetic.7q2HOVkRzd = 0;
com.typemytype.robofont.guideline.magnetic.8iJUtyIu2p = 0;
com.typemytype.robofont.guideline.magnetic.AgPQp2C7od = 0;
com.typemytype.robofont.guideline.magnetic.BzP9fZtoCl = 0;
com.typemytype.robofont.guideline.magnetic.DdLLm33Bgu = 0;
com.typemytype.robofont.guideline.magnetic.EHYmLn3KoN = 0;
com.typemytype.robofont.guideline.magnetic.NJzStYZvzX = 0;
com.typemytype.robofont.guideline.magnetic.OKNNHqF4XR = 0;
com.typemytype.robofont.guideline.magnetic.QYQEn0T27a = 0;
com.typemytype.robofont.guideline.magnetic.RFrB2Z8Aco = 0;
com.typemytype.robofont.guideline.magnetic.SKugKqqKoC = 0;
com.typemytype.robofont.guideline.magnetic.U4K9f0dV4f = 0;
com.typemytype.robofont.guideline.magnetic.XJcN4Kk8We = 0;
com.typemytype.robofont.guideline.magnetic.b3Vda2wuxZ = 0;
com.typemytype.robofont.guideline.magnetic.de5POlemJP = 0;
com.typemytype.robofont.guideline.magnetic.elGuQuvwFC = 0;
com.typemytype.robofont.guideline.magnetic.j1uVRQumBj = 0;
com.typemytype.robofont.guideline.magnetic.jA2jjvmRGN = 0;
com.typemytype.robofont.guideline.magnetic.lyOosaJV0t = 0;
com.typemytype.robofont.guideline.magnetic.mZCeDQmBZx = 0;
com.typemytype.robofont.guideline.magnetic.p9TAftYCNn = 0;
com.typemytype.robofont.guideline.magnetic.pS7a7j8exb = 0;
com.typemytype.robofont.guideline.magnetic.pzeHU5JCcI = 0;
com.typemytype.robofont.guideline.magnetic.skvQQpHcWe = 0;
com.typemytype.robofont.guideline.magnetic.w3a4sFusB6 = 0;
com.typemytype.robofont.guideline.magnetic.xddIAdCtQx = 0;
com.typemytype.robofont.guideline.magnetic.yYUnGKIJZx = 0;
};
width = 769;
},
{
associatedMasterId = m01;
layerId = "54267E6D-E4C2-454C-9C31-66123AED227B";
name = 45degrees;
shapes = (
{
closed = 1;
nodes = (
(219,720,o),
(146,700,o),
(113,667,cs),
(92,646,o),
(81,610,o),
(81,569,cs),
(81,542,o),
(84,524,o),
(92,504,c),
(96,504,l),
(159,549,o),
(227,570,o),
(312,570,cs),
(382,570,o),
(427,551,o),
(464,506,c),
(502,560,o),
(521,620,o),
(481,659,cs),
(443,696,o),
(378,720,o),
(305,720,cs)
);
},
{
closed = 1;
nodes = (
(455,685,o),
(375,672,o),
(332,634,c),
(375,595,o),
(384,577,o),
(384,541,cs),
(384,512,o),
(378,486,o),
(322,447,cs),
(299,431,ls),
(227,381,o),
(213,356,o),
(213,330,cs),
(213,326,ls),
(213,291,o),
(255,252,o),
(336,252,cs),
(344,252,l),
(344,255,ls),
(344,282,o),
(355,305,o),
(391,327,cs),
(421,345,ls),
(504,395,o),
(535,461,o),
(535,524,cs),
(535,527,ls),
(535,583,o),
(519,621,o),
(481,659,cs)
);
},
{
closed = 1;
nodes = (
(384,114,ls),
(384,177,o),
(315,186,o),
(254,186,cs),
(231,186,o),
(201,184,o),
(176,180,c),
(176,61,ls),
(176,-2,o),
(245,-11,o),
(306,-11,cs),
(329,-11,o),
(359,-9,o),
(384,-5,c)
);
}
);
width = 600;
}
);
}
{
glyphname = question.test1;
layers = (
{
layerId = m01;
shapes = (
{
ref = exclam;
},
{
closed = 1;
nodes = (
(314,-411,l),
(314,1126,l),
(139,700,l),
(139,0,l)
);
},
{
closed = 1;
nodes = (
(194,267,o),
(190,269,o),
(187,271,cs),
(170,288,o),
(162,319,o),
(162,401,cs),
(162,412,o),
(161,423,o),
(159,430,c),
(165,431,o),
(170,432,o),
(174,432,cs),
(191,432,o),
(198,424,o),
(198,405,cs),
(198,363,o),
(198,328,o),
(201,305,c),
(203,305,l),
(212,328,o),
(215,348,o),
(215,389,c),
(221,389,ls),
(232,389,o),
(235,386,o),
(236,374,cs),
(238,344,o),
(239,329,o),
(248,305,c),
(250,305,l),
(255,339,o),
(256,380,o),
(252,430,c),
(257,431,o),
(261,432,o),
(266,432,cs),
(283,432,o),
(289,427,o),
(289,392,cs),
(289,330,o),
(278,297,o),
(262,268,c),
(261,267,o),
(260,267,o),
(258,267,cs),
(252,267,o),
(250,268,o),
(245,273,cs),
(238,281,o),
(231,296,o),
(227,319,c),
(225,319,l),
(219,296,o),
(212,281,o),
(204,268,c),
(203,267,o),
(200,267,o),
(198,267,cs)
);
},
{
closed = 1;
nodes = (
(430,267,o),
(422,275,o),
(422,293,cs),
(422,327,o),
(422,361,o),
(422,395,c),
(416,395,ls),
(387,395,o),
(378,404,o),
(378,420,cs),
(378,424,o),
(378,426,o),
(379,430,c),
(485,430,ls),
(497,430,o),
(501,420,o),
(501,409,cs),
(501,403,o),
(501,399,o),
(500,395,c),
(450,395,l),
(450,394,l),
(456,390,o),
(459,383,o),
(459,373,cs),
(459,346,o),
(459,319,o),
(459,291,cs),
(459,284,o),
(459,276,o),
(461,269,c),
(457,268,o),
(454,267,o),
(449,267,cs)
);
},
{
closed = 1;
nodes = (
(604,267,o),
(597,273,o),
(597,296,cs),
(597,307,o),
(597,316,o),
(597,327,c),
(587,328,o),
(585,339,o),
(585,355,cs),
(585,361,l),
(597,361,l),
(597,375,o),
(597,390,o),
(597,405,cs),
(597,414,o),
(596,422,o),
(594,430,c),
(599,431,o),
(603,432,o),
(609,432,cs),
(626,432,o),
(633,422,o),
(633,408,cs),
(633,393,o),
(633,377,o),
(633,361,c),
(653,361,ls),
(663,361,o),
(670,359,o),
(676,354,c),
(677,355,l),
(677,379,o),
(677,404,o),
(677,430,c),
(682,431,o),
(686,432,o),
(691,432,cs),
(706,432,o),
(714,427,o),
(714,408,cs),
(714,376,o),
(714,335,o),
(714,295,cs),
(714,286,o),
(714,277,o),
(716,269,c),
(711,268,o),
(706,267,o),
(700,267,cs),
(686,267,o),
(677,276,o),
(677,294,cs),
(677,305,o),
(677,316,o),
(677,326,c),
(633,326,l),
(633,307,o),
(633,288,o),
(633,269,c),
(628,268,o),
(624,267,o),
(618,267,cs)
);
},
{
closed = 1;
nodes = (
(529,-426,l),
(529,1126,l),
(354,700,l),
(354,0,l)
);
},
{
closed = 1;
nodes = (
(744,-426,l),
(744,1126,l),
(569,700,l),
(569,0,l)
);
}
);
userData = {
com.arrowtype.glyphMarkStatus = fromComponents;
com.typemytype.robofont.Image.Brightness = 0;
com.typemytype.robofont.Image.Contrast = 1;
com.typemytype.robofont.Image.Saturation = 1;
com.typemytype.robofont.Image.Sharpness = 0.4;
com.typemytype.robofont.guideline.magnetic.0tpcWRobrU = 0;
com.typemytype.robofont.guideline.magnetic.1HKcmIgvly = 0;
com.typemytype.robofont.guideline.magnetic.2qhUn3cONS = 0;
com.typemytype.robofont.guideline.magnetic.39293df7AS = 0;
com.typemytype.robofont.guideline.magnetic.5Q7NXTGZdQ = 0;
com.typemytype.robofont.guideline.magnetic.6JaTKKfSn2 = 0;
com.typemytype.robofont.guideline.magnetic.7q2HOVkRzd = 0;
com.typemytype.robofont.guideline.magnetic.8iJUtyIu2p = 0;
com.typemytype.robofont.guideline.magnetic.AgPQp2C7od = 0;
com.typemytype.robofont.guideline.magnetic.BzP9fZtoCl = 0;
com.typemytype.robofont.guideline.magnetic.DdLLm33Bgu = 0;
com.typemytype.robofont.guideline.magnetic.EHYmLn3KoN = 0;
com.typemytype.robofont.guideline.magnetic.NJzStYZvzX = 0;
com.typemytype.robofont.guideline.magnetic.OKNNHqF4XR = 0;
com.typemytype.robofont.guideline.magnetic.QYQEn0T27a = 0;
com.typemytype.robofont.guideline.magnetic.RFrB2Z8Aco = 0;
com.typemytype.robofont.guideline.magnetic.SKugKqqKoC = 0;
com.typemytype.robofont.guideline.magnetic.U4K9f0dV4f = 0;
com.typemytype.robofont.guideline.magnetic.XJcN4Kk8We = 0;
com.typemytype.robofont.guideline.magnetic.b3Vda2wuxZ = 0;
com.typemytype.robofont.guideline.magnetic.de5POlemJP = 0;
com.typemytype.robofont.guideline.magnetic.elGuQuvwFC = 0;
com.typemytype.robofont.guideline.magnetic.j1uVRQumBj = 0;
com.typemytype.robofont.guideline.magnetic.jA2jjvmRGN = 0;
com.typemytype.robofont.guideline.magnetic.lyOosaJV0t = 0;
com.typemytype.robofont.guideline.magnetic.mZCeDQmBZx = 0;
com.typemytype.robofont.guideline.magnetic.p9TAftYCNn = 0;
com.typemytype.robofont.guideline.magnetic.pS7a7j8exb = 0;
com.typemytype.robofont.guideline.magnetic.pzeHU5JCcI = 0;
com.typemytype.robofont.guideline.magnetic.skvQQpHcWe = 0;
com.typemytype.robofont.guideline.magnetic.w3a4sFusB6 = 0;
com.typemytype.robofont.guideline.magnetic.xddIAdCtQx = 0;
com.typemytype.robofont.guideline.magnetic.yYUnGKIJZx = 0;
};
width = 769;
},
{
associatedMasterId = m01;
layerId = "54267E6D-E4C2-454C-9C31-66123AED227B";
name = 45degrees;
shapes = (
{
closed = 1;
nodes = (
(219,720,o),
(146,700,o),
(113,667,cs),
(92,646,o),
(81,610,o),
(81,569,cs),
(81,542,o),
(84,524,o),
(92,504,c),
(96,504,l),
(159,549,o),
(227,570,o),
(312,570,cs),
(382,570,o),
(427,551,o),
(464,506,c),
(502,560,o),
(521,620,o),
(481,659,cs),
(443,696,o),
(378,720,o),
(305,720,cs)
);
},
{
closed = 1;
nodes = (
(455,685,o),
(375,672,o),
(332,634,c),
(375,595,o),
(384,577,o),
(384,541,cs),
(384,512,o),
(378,486,o),
(322,447,cs),
(299,431,ls),
(227,381,o),
(213,356,o),
(213,330,cs),
(213,326,ls),
(213,291,o),
(255,252,o),
(336,252,cs),
(344,252,l),
(344,255,ls),
(344,282,o),
(355,305,o),
(391,327,cs),
(421,345,ls),
(504,395,o),
(535,461,o),
(535,524,cs),
(535,527,ls),
(535,583,o),
(519,621,o),
(481,659,cs)
);
},
{
closed = 1;
nodes = (
(384,114,ls),
(384,177,o),
(315,186,o),
(254,186,cs),
(231,186,o),
(201,184,o),
(176,180,c),
(176,61,ls),
(176,-2,o),
(245,-11,o),
(306,-11,cs),
(329,-11,o),
(359,-9,o),
(384,-5,c)
);
}
);
width = 600;
}
);
}
